<?xml version="1.0" encoding="UTF-8"?>
<svg version="1.1" xmlns="http://www.w3.org/2000/svg" width="756" height="610">
<path d="M0 0 C2.93929824 1.53652549 5.89882381 2.98136277 8.89453125 4.40234375 C15.10944933 7.50980279 20.66416908 11.60521249 26.125 15.87890625 C31.02583139 19.74795995 31.02583139 19.74795995 36.95703125 20.96484375 C38.13265625 20.59359375 39.30828125 20.22234375 40.51953125 19.83984375 C60.5759633 13.7506697 80.0661528 13.89707653 100.51953125 17.83984375 C101.80085938 18.08347656 103.0821875 18.32710937 104.40234375 18.578125 C123.16200747 22.8527352 139.52898488 34.00774372 153.42578125 46.95703125 C156.94883584 50.15393116 156.94883584 50.15393116 161.51953125 50.83984375 C161.18953125 51.82984375 160.85953125 52.81984375 160.51953125 53.83984375 C162.11204002 56.53109014 162.11204002 56.53109014 164.39453125 59.46484375 C176.97036889 76.86721829 186.51953125 98.01061923 186.51953125 119.83984375 C187.42832031 119.98679688 187.42832031 119.98679688 188.35546875 120.13671875 C204.55586385 123.02786618 218.96871318 131.55284074 228.76171875 144.89453125 C236.43260158 155.96260942 240.3859524 167.52461192 242.74609375 180.78125 C243.54733728 183.94980395 244.74967971 186.11626524 246.51953125 188.83984375 C247.20703125 191.15234375 247.20703125 191.15234375 247.51953125 192.83984375 C248.17953125 192.83984375 248.83953125 192.83984375 249.51953125 192.83984375 C250.3347376 195.5682281 251.14677968 198.29748792 251.95703125 201.02734375 C252.30217773 202.18073242 252.30217773 202.18073242 252.65429688 203.35742188 C258.51279608 223.14046992 256.23696491 240.60820626 249.51953125 259.83984375 C248.85953125 259.83984375 248.19953125 259.83984375 247.51953125 259.83984375 C247.25011719 260.5565625 246.98070312 261.27328125 246.703125 262.01171875 C241.93765875 273.39850939 234.0615779 280.61364088 223.89453125 287.27734375 C221.4200863 288.62088051 221.4200863 288.62088051 220.51953125 290.83984375 C221.26074219 290.88882812 222.00195312 290.9378125 222.765625 290.98828125 C237.23009967 292.01513502 251.34915977 293.74587618 265.51953125 296.83984375 C265.69637045 306.91967818 265.1749314 316.92085406 263.57421875 326.875 C262.40921991 334.23427969 261.69614341 341.6094821 261.01953125 349.02734375 C260.76509403 351.75149867 260.50771675 354.47537235 260.25 357.19921875 C260.1267334 358.50439453 260.0034668 359.80957031 259.87646484 361.15429688 C259.17549174 368.39225176 258.36168556 375.6171321 257.51953125 382.83984375 C258.1228125 383.03320312 258.72609375 383.2265625 259.34765625 383.42578125 C260.54648438 383.81636719 260.54648438 383.81636719 261.76953125 384.21484375 C262.95289063 384.59769531 262.95289063 384.59769531 264.16015625 384.98828125 C266.51953125 385.83984375 266.51953125 385.83984375 268.5625 387.0234375 C270.48449064 388.04390471 270.48449064 388.04390471 272.4921875 387.4140625 C273.18183594 387.12144531 273.87148438 386.82882812 274.58203125 386.52734375 C284.46226996 382.89323296 293.59356934 383.18337807 303.14453125 387.46484375 C308.87687736 391.0325277 313.45683616 396.40736333 315.51953125 402.83984375 C316.6841061 411.65540457 314.83542679 419.05687028 309.7890625 426.3359375 C307.77478768 428.91308352 305.67849513 431.38282822 303.51953125 433.83984375 C302.78089844 434.69964844 302.04226563 435.55945313 301.28125 436.4453125 C296.68580143 441.69158453 291.86975627 446.37803248 286.51953125 450.83984375 C286.0205835 451.27820557 285.52163574 451.71656738 285.00756836 452.16821289 C265.94467343 468.84790743 240.6094847 486.2399113 214.44140625 485.01025391 C209.26241707 484.55103967 205.47659435 482.7571471 201.7890625 479.14453125 C195.00345402 470.86776436 192.86918075 462.39077968 193.10546875 451.80078125 C193.67711539 446.33238791 195.11012474 441.38580256 196.83984375 436.1796875 C197.63651876 432.26499133 196.94602641 430.50867205 195.51953125 426.83984375 C194.67329182 419.45984871 195.01909545 412.95154669 199.51953125 406.83984375 C200.18549316 406.27289795 200.85145508 405.70595215 201.53759766 405.12182617 C204.06584406 402.21082357 204.17959091 400.42653224 204.49609375 396.609375 C204.60848389 395.34609375 204.72087402 394.0828125 204.83666992 392.78125 C204.93990971 391.40499424 205.04251487 390.02869074 205.14453125 388.65234375 C205.26226172 387.23818369 205.38117655 385.82412178 205.5012207 384.41015625 C206.78479786 368.9075667 207.68186544 353.37200257 208.51953125 337.83984375 C207.22515137 337.73696045 205.93077148 337.63407715 204.59716797 337.52807617 C197.56642248 336.82179862 190.64225831 335.52498224 183.69479752 334.26543617 C181.23218312 333.81995556 178.7685093 333.38085381 176.30441284 332.94364929 C169.30630535 331.70166834 162.30912323 330.45485859 155.31542969 329.18823242 C151.02000226 328.41075817 146.72247696 327.64600111 142.42330551 326.88951683 C140.79017072 326.59962553 139.1578793 326.30494037 137.52649307 326.00536537 C135.25284824 325.58831025 132.97689044 325.18749038 130.69970703 324.7902832 C129.40638458 324.55791458 128.11306213 324.32554596 126.7805481 324.08613586 C123.46310902 323.83558239 122.1977174 323.97177767 119.51953125 325.83984375 C118.19907716 327.01665011 116.90990922 328.22900767 115.64453125 329.46484375 C101.07962192 342.55663011 82.58630593 348.19021758 63.23046875 348.06640625 C55.35244672 347.58543227 47.95210742 345.38373143 40.51953125 342.83984375 C39.96265625 343.54109375 39.40578125 344.24234375 38.83203125 344.96484375 C30.27624109 355.60177205 20.57149824 367.45475269 7.4609375 372.49609375 C-6.98249978 378.26686972 -11.19923044 388.90673414 -17.73583984 402.39746094 C-20.47905136 407.81017887 -23.65991313 412.91278252 -26.91796875 418.02734375 C-27.53857178 419.00590332 -28.1591748 419.98446289 -28.79858398 420.99267578 C-30.68286227 423.94807147 -32.58010651 426.89476955 -34.48046875 429.83984375 C-35.11662109 430.83177734 -35.75277344 431.82371094 -36.40820312 432.84570312 C-44.46464131 445.39875797 -52.75685796 457.74128395 -61.48046875 469.83984375 C-62.21910156 470.87496094 -62.95773437 471.91007812 -63.71875 472.9765625 C-65.61515429 475.61679915 -67.5358966 478.2349273 -69.48046875 480.83984375 C-70.18171875 481.78214844 -70.88296875 482.72445313 -71.60546875 483.6953125 C-72.30671875 484.60925781 -73.00796875 485.52320313 -73.73046875 486.46484375 C-74.66632813 487.69074219 -74.66632813 487.69074219 -75.62109375 488.94140625 C-77.73200217 491.09666148 -78.55779714 491.38213957 -81.48046875 491.83984375 C-83.93992615 491.68089294 -83.93992615 491.68089294 -86.72045898 491.27905273 C-88.28744789 491.05903847 -88.28744789 491.05903847 -89.88609314 490.83457947 C-91.57056297 490.58775169 -91.57056297 490.58775169 -93.2890625 490.3359375 C-95.66857922 490.00426609 -98.04813783 489.67289512 -100.42773438 489.34179688 C-104.17884904 488.81084188 -107.92928872 488.27571023 -111.67895508 487.73461914 C-115.29749523 487.21537633 -118.91800257 486.7122594 -122.5390625 486.2109375 C-123.66001816 486.04436142 -124.78097382 485.87778534 -125.93589783 485.7061615 C-126.98370926 485.56263748 -128.03152069 485.41911346 -129.11108398 485.27124023 C-130.48864113 485.07352272 -130.48864113 485.07352272 -131.89402771 484.87181091 C-136.26555842 484.8177809 -139.49282093 486.81237105 -143.16796875 488.96484375 C-147.84068093 491.35905247 -152.32434339 491.42446019 -157.48046875 490.83984375 C-158.14046875 490.50984375 -158.80046875 490.17984375 -159.48046875 489.83984375 C-159.56296875 490.47921875 -159.64546875 491.11859375 -159.73046875 491.77734375 C-161.92105125 500.72222231 -166.96574237 510.32511737 -173.48046875 516.83984375 C-172.6429199 516.81061451 -171.80537106 516.78138527 -170.94244194 516.75127029 C-149.0305898 516.00400955 -127.14155369 515.66454368 -105.21757364 515.63965511 C-102.67969351 515.63664936 -100.14181716 515.63253342 -97.60393906 515.62815094 C-89.51690458 515.61455924 -81.42987965 515.60486092 -73.34283459 515.60094905 C-65.17576925 515.59696769 -57.00882246 515.58489988 -48.84179688 515.55859375 C-10.08179371 515.43650815 28.61187327 515.66598078 67.34375 517.265625 C68.13630865 517.29834346 68.92886729 517.33106192 69.74544287 517.36477184 C184.01461039 522.11989922 184.01461039 522.11989922 207.51953125 532.83984375 C207.51953125 535.15234375 207.51953125 535.15234375 206.51953125 537.83984375 C200.04175289 541.2082885 192.68733169 542.14290134 185.55854797 543.44863892 C184.16391978 543.71621166 182.77336525 544.00569401 181.38713074 544.31381226 C174.58173167 545.79886181 167.84822529 546.41359499 160.90625 546.875 C159.73367142 546.95858261 158.56109283 547.04216522 157.35298157 547.12828064 C153.6380592 547.39232478 149.92262367 547.64791719 146.20703125 547.90234375 C142.47368094 548.16146718 138.74048432 548.42245461 135.00752258 548.68711853 C132.692815 548.8508928 130.37786742 549.01131824 128.06266785 549.16798401 C127.01420181 549.2415361 125.96573578 549.3150882 124.88549805 549.39086914 C123.96745895 549.45367569 123.04941986 549.51648224 122.1035614 549.58119202 C119.5237721 549.83941926 117.05732237 550.31876594 114.51953125 550.83984375 C112.35626893 550.97359338 110.19005566 551.06314053 108.0234375 551.12109375 C106.11981445 551.17620117 106.11981445 551.17620117 104.17773438 551.23242188 C103.51008057 551.24990479 102.84242676 551.2673877 102.15454102 551.28540039 C98.63141239 551.37795048 95.10870082 551.48442844 91.5859375 551.58984375 C90.88514069 551.61050903 90.18434387 551.63117432 89.46231079 551.65246582 C83.81130124 551.82233601 78.1661147 552.06241829 72.51953125 552.33984375 C59.32918034 552.96533784 46.13491199 553.41568699 32.93481445 553.77410889 C31.30247106 553.81853509 29.67014706 553.86367915 28.0378418 553.90948486 C-52.04739505 556.1459585 -132.10806552 555.12442086 -212.12150574 551.36724854 C-218.01412245 551.09073096 -223.90653983 550.81806593 -229.80078125 550.57836914 C-240.77870678 550.1269676 -251.67480427 549.38543064 -262.60546875 548.27734375 C-271.04962768 547.42162403 -279.39400479 546.65848769 -287.89477539 546.87475586 C-293.35415766 546.80104312 -298.54053059 545.39939683 -303.7578125 543.89453125 C-306.35691201 543.15816518 -308.93477088 542.47015622 -311.55859375 541.83984375 C-312.244375 541.67484375 -312.93015625 541.50984375 -313.63671875 541.33984375 C-315.04733851 541.00297933 -316.45882281 540.66971725 -317.87109375 540.33984375 C-321.22353913 539.52712972 -323.57891279 538.77421439 -326.48046875 536.83984375 C-326.35546875 535.02734375 -326.35546875 535.02734375 -325.48046875 532.83984375 C-320.88069028 530.09814535 -316.33235701 528.87664977 -311.15234375 527.8203125 C-310.33320496 527.65121872 -309.51406616 527.48212494 -308.67010498 527.3079071 C-297.78407707 525.17547803 -286.76249507 524.20009218 -275.73046875 523.15234375 C-273.58324377 522.93905079 -271.43610763 522.72486152 -269.2890625 522.50976562 C-239.6695654 519.5743513 -239.6695654 519.5743513 -225.48046875 519.83984375 C-225.66609375 518.97359375 -225.85171875 518.10734375 -226.04296875 517.21484375 C-227.54488615 506.40239158 -225.02548541 495.43287778 -222.29296875 485.02734375 C-221.97618164 483.79959229 -221.65939453 482.57184082 -221.33300781 481.30688477 C-218.86595053 471.9279842 -216.0566013 462.8491191 -212.48046875 453.83984375 C-212.06716309 452.78812988 -211.65385742 451.73641602 -211.22802734 450.65283203 C-209.80374476 447.04341721 -208.3644605 443.44041323 -206.91796875 439.83984375 C-206.45874023 438.69314209 -205.99951172 437.54644043 -205.52636719 436.36499023 C-195.71556734 412.32853061 -195.71556734 412.32853061 -184.79296875 407.33984375 C-175.05721384 404.02585759 -165.04212903 405.57780628 -155.48046875 408.83984375 C-154.49046875 409.49984375 -153.50046875 410.15984375 -152.48046875 410.83984375 C-150.20445726 411.14911771 -150.20445726 411.14911771 -147.73046875 411.21484375 C-141.27265 411.77025382 -137.44189134 413.56872285 -133.10546875 418.58984375 C-131.13501626 422.53074872 -130.78204855 425.46693666 -130.48046875 429.83984375 C-129.53816406 429.95199219 -128.59585938 430.06414062 -127.625 430.1796875 C-122.71531514 430.8807178 -117.96290756 432.15740327 -113.16796875 433.40234375 C-111.38075341 433.86409405 -109.59301667 434.32383247 -107.8046875 434.78125 C-107.02182373 434.98435791 -106.23895996 435.18746582 -105.43237305 435.39672852 C-103.48900146 435.91363837 -103.48900146 435.91363837 -101.48046875 435.83984375 C-100.05955109 434.09821647 -100.05955109 434.09821647 -98.65234375 431.81640625 C-98.09933594 430.95917969 -97.54632813 430.10195313 -96.9765625 429.21875 C-96.40035156 428.30996094 -95.82414062 427.40117187 -95.23046875 426.46484375 C-94.38935547 425.15966797 -94.38935547 425.15966797 -93.53125 423.828125 C-89.72917493 417.90110267 -86.07856551 411.89224706 -82.48046875 405.83984375 C-81.56791733 404.32148896 -80.6551635 402.80325579 -79.7421875 401.28515625 C-78.88370854 399.8452941 -78.02563098 398.40519254 -77.16796875 396.96484375 C-76.72646484 396.23265625 -76.28496094 395.50046875 -75.83007812 394.74609375 C-75.40919922 394.03710938 -74.98832031 393.328125 -74.5546875 392.59765625 C-74.17916748 391.97004395 -73.80364746 391.34243164 -73.41674805 390.69580078 C-72.4403134 388.76024505 -71.9244482 386.95584335 -71.48046875 384.83984375 C-78.39784442 382.68525133 -83.73006636 382.9594651 -90.73046875 384.21484375 C-110.15320666 387.66306975 -128.0566571 385.34706217 -146.48046875 378.83984375 C-147.37121094 378.54335938 -148.26195312 378.246875 -149.1796875 377.94140625 C-154.5369891 376.01100667 -159.34857102 373.29839483 -164.23046875 370.40234375 C-164.85703369 370.03077148 -165.48359863 369.65919922 -166.12915039 369.27636719 C-169.23020989 367.38413937 -171.95067739 365.46053213 -174.62109375 362.9921875 C-177.22573204 360.58532691 -177.22573204 360.58532691 -180.046875 360.828125 C-182.77751833 361.96333627 -184.99203499 363.33404946 -187.41796875 365.02734375 C-206.77574154 377.67338541 -232.92794495 383.89071232 -255.85546875 379.46484375 C-266.37371025 377.17754029 -276.52181039 372.81228266 -285.48046875 366.83984375 C-288.10578399 366.67270806 -288.10578399 366.67270806 -290.48046875 366.83984375 C-290.72152344 365.94007813 -290.96257812 365.0403125 -291.2109375 364.11328125 C-292.59707658 360.53917494 -293.97772031 359.01039613 -296.79296875 356.46484375 C-300.94734364 352.6983986 -303.67182157 348.63927187 -306.48046875 343.83984375 C-307.20113525 343.90042969 -307.92180176 343.96101563 -308.66430664 344.0234375 C-311.95695286 344.29855215 -315.24994929 344.56923471 -318.54296875 344.83984375 C-320.24356445 344.98292969 -320.24356445 344.98292969 -321.97851562 345.12890625 C-337.65335432 346.40848492 -337.65335432 346.40848492 -341.48046875 343.77734375 C-343.48046875 340.83984375 -343.48046875 340.83984375 -343.54296875 337.21484375 C-342.48046875 333.83984375 -342.48046875 333.83984375 -340.85546875 331.96484375 C-335.2614183 329.31503038 -328.17744496 329.44467194 -322.04296875 328.77734375 C-320.80256836 328.64102539 -320.80256836 328.64102539 -319.53710938 328.50195312 C-317.51833999 328.28023857 -315.49941971 328.05989872 -313.48046875 327.83984375 C-313.63902344 326.99164063 -313.79757812 326.1434375 -313.9609375 325.26953125 C-316.43226435 308.95505774 -313.2366967 293.77975865 -304.48046875 279.83984375 C-303.97 278.95296875 -303.45953125 278.06609375 -302.93359375 277.15234375 C-301.39116501 274.69772598 -299.88746291 273.41683993 -297.48046875 271.83984375 C-298.0744068 267.90853953 -299.30971468 265.05512172 -301.23046875 261.58984375 C-305.13872281 253.99881183 -307.31389425 246.05706993 -309.48046875 237.83984375 C-309.67318359 237.15212891 -309.86589844 236.46441406 -310.06445312 235.75585938 C-311.16702058 231.68216277 -311.69131338 228.05673631 -311.48046875 223.83984375 C-312.2075 223.96101562 -312.93453125 224.0821875 -313.68359375 224.20703125 C-315.81091706 224.56158513 -317.93854667 224.91430392 -320.06640625 225.265625 C-322.19896687 225.6243051 -324.32962264 225.9947419 -326.45703125 226.3828125 C-332.98054982 227.55212243 -339.40247272 228.15278322 -346.015625 228.5546875 C-349.3693258 228.8306967 -352.60673004 229.31119876 -355.91796875 229.90234375 C-364.60163079 231.40550762 -364.60163079 231.40550762 -368.48046875 230.83984375 C-371.74467582 228.07782238 -372.40511996 226.46416227 -372.91796875 222.21484375 C-372.44751065 218.58559556 -372.24344877 217.985344 -369.48046875 215.83984375 C-360.19142673 212.76506145 -349.20020814 212.66045115 -339.4987793 211.55273438 C-336.52534135 211.21282869 -333.5526904 210.86657634 -330.58007812 210.51953125 C-328.68363671 210.30040913 -326.78715376 210.08164614 -324.890625 209.86328125 C-323.56249535 209.70863907 -323.56249535 209.70863907 -322.20753479 209.5508728 C-320.96990639 209.41040024 -320.96990639 209.41040024 -319.70727539 209.26708984 C-318.98544571 209.18429779 -318.26361603 209.10150574 -317.51991272 209.01620483 C-315.51339491 208.84269104 -313.49447489 208.83984375 -311.48046875 208.83984375 C-311.43148437 208.10121094 -311.3825 207.36257812 -311.33203125 206.6015625 C-310.45201465 194.66064755 -308.46702527 184.76645855 -303.48046875 173.83984375 C-302.5910458 171.88155585 -301.70173031 169.92321914 -300.8125 167.96484375 C-300.03531735 166.25643712 -299.25802746 164.54807925 -298.48046875 162.83984375 C-299.63663696 162.97616211 -299.63663696 162.97616211 -300.81616211 163.11523438 C-304.3494969 163.52876894 -307.88370115 163.93436189 -311.41796875 164.33984375 C-312.63033203 164.48292969 -313.84269531 164.62601563 -315.09179688 164.7734375 C-333.17172591 166.8313156 -333.17172591 166.8313156 -336.54296875 164.27734375 C-337.83158894 160.92693127 -337.86200225 158.40082307 -337.48046875 154.83984375 C-336.36181641 152.69580078 -336.36181641 152.69580078 -334.48046875 150.83984375 C-331.56396484 150.05029297 -331.56396484 150.05029297 -328.00390625 149.64453125 C-326.70042236 149.48710449 -325.39693848 149.32967773 -324.05395508 149.16748047 C-322.65448515 149.01636506 -321.25498922 148.86549029 -319.85546875 148.71484375 C-318.43949513 148.54875203 -317.02372186 148.38094339 -315.6081543 148.21142578 C-311.567854 147.73231254 -307.5249098 147.28266957 -303.48046875 146.83984375 C-302.47097168 146.72898438 -301.46147461 146.618125 -300.42138672 146.50390625 C-299.11838623 146.36082031 -299.11838623 146.36082031 -297.7890625 146.21484375 C-296.61754639 146.08360107 -296.61754639 146.08360107 -295.42236328 145.94970703 C-293.44949827 145.7321083 -291.47479647 145.5313413 -289.5 145.33203125 C-283.84025767 144.40948593 -281.42961529 141.92143118 -277.48046875 137.83984375 C-270.05233608 131.10214649 -262.41564104 126.25771113 -253.48046875 121.83984375 C-253.51527344 121.06382812 -253.55007812 120.2878125 -253.5859375 119.48828125 C-253.94618212 105.11280551 -251.56405093 90.42916094 -241.52734375 79.49609375 C-237.76435654 75.60224487 -234.00029401 71.85306059 -229.48046875 68.83984375 C-228.78392013 66.36650585 -228.22963138 63.97715097 -227.73046875 61.46484375 C-224.91311647 49.02723015 -218.53043572 39.73947904 -209.48046875 30.83984375 C-208.76632813 30.11796875 -208.0521875 29.39609375 -207.31640625 28.65234375 C-198.20304491 20.38455202 -185.52025189 17.00091298 -173.48046875 15.83984375 C-172.68640625 15.76121094 -171.89234375 15.68257812 -171.07421875 15.6015625 C-164.74711337 15.37728078 -159.13149459 16.74709585 -153.1015625 18.50463867 C-149.21365353 19.59763473 -146.29429501 20.36537425 -142.48046875 18.83984375 C-140.07636768 16.70290809 -140.07636768 16.70290809 -137.91796875 14.02734375 C-121.43287624 -5.31478385 -97.52982067 -12.65604551 -72.85546875 -14.78515625 C-46.14141647 -16.8621201 -23.58969046 -12.34749395 0 0 Z " fill="#090B0C" transform="translate(422.48046875,41.16015625)"/>
<path d="M0 0 C1.11342773 0.02634521 2.22685547 0.05269043 3.37402344 0.07983398 C11.1047847 0.44167751 17.14720751 2.15528026 24.125 5.4375 C25.10855469 5.88416016 26.09210938 6.33082031 27.10546875 6.79101562 C56.09827637 20.12770713 80.47913844 37.37206619 103 60 C103.77859375 60.75539062 104.5571875 61.51078125 105.359375 62.2890625 C114.67275485 71.38939118 122.47347635 81.39724052 130 92 C126.24279056 93.25240315 125.58949199 92.4357968 122 91 C119.33597161 90.54444124 116.69171836 90.27373407 114 90 C114 89.34 114 88.68 114 88 C110.31192844 88.11073668 106.62479971 88.24115972 102.9375 88.375 C101.89916016 88.4059375 100.86082031 88.436875 99.79101562 88.46875 C94.21094569 88.68132409 89.31983991 89.1496209 84 91 C82.96359375 91.33257812 81.9271875 91.66515625 80.859375 92.0078125 C65.07687913 97.67840775 52.90892642 108.20849638 45 123 C43.44111181 126.60826768 42.14594159 130.24174607 41 134 C40.64035156 135.06347656 40.28070313 136.12695312 39.91015625 137.22265625 C38.80747552 141.7990179 38.70631136 146.00189286 38.75 150.6875 C38.74226563 151.52861328 38.73453125 152.36972656 38.7265625 153.23632812 C38.72914063 154.04908203 38.73171875 154.86183594 38.734375 155.69921875 C38.73775879 156.79496216 38.73775879 156.79496216 38.74121094 157.9128418 C39.03740369 160.30166432 39.85622448 161.89817854 41 164 C41.35490484 165.46956893 41.66683113 166.95011012 41.9375 168.4375 C42.70120011 172.15213736 43.88018923 174.82028384 46 178 C46 178.66 46 179.32 46 180 C46.66 180 47.32 180 48 180 C49.26171875 181.50390625 49.26171875 181.50390625 50.6875 183.5625 C58.58010264 194.33893822 68.22799275 202.0069344 81.59765625 204.56640625 C90.73944057 205.73143272 99.54553966 206.03137395 108 202 C108.70898438 201.67128906 109.41796875 201.34257812 110.1484375 201.00390625 C115.77051616 197.98386771 118.92083088 194.03629746 121 188 C122.20210675 181.12777912 120.76855753 175.7966166 117 170 C115.89471558 168.68031822 115.89471558 168.68031822 113.125 168.75 C110.09676458 168.74398081 110.09676458 168.74398081 108.26953125 170.1171875 C105.91046783 173.61586002 107.47647042 177.79480051 108.06640625 181.7734375 C107.9820003 185.87457361 106.90474396 187.17995698 104 190 C98.684298 193.70759047 90.82079574 192.45823733 84.6875 191.72265625 C75.38952997 189.75433598 66.73649744 183.88331917 61.125 176.3125 C59 173 59 173 59 171 C58.34 171 57.68 171 57 171 C56.34865075 169.43979133 55.70417036 167.87671421 55.0625 166.3125 C54.70285156 165.44238281 54.34320313 164.57226562 53.97265625 163.67578125 C50.03556785 152.84483524 50.97594303 141.26662754 55.5234375 130.86328125 C57.62110392 126.79558419 59.93126335 123.38955911 63 120 C63.6703125 119.24976563 64.340625 118.49953125 65.03125 117.7265625 C74.30751294 107.8950303 85.043304 101.76475263 98.67871094 101.32763672 C118.93229106 101.23172151 132.6538303 107.9006969 147.52612305 121.38354492 C149.16755806 123.18376708 150.06190266 124.85519166 151.0859375 127.0625 C151.64667969 128.25939453 151.64667969 128.25939453 152.21875 129.48046875 C152.6003125 130.31191406 152.981875 131.14335937 153.375 132 C153.93574219 133.20076172 153.93574219 133.20076172 154.5078125 134.42578125 C155.28106236 136.08614995 156.04863134 137.74917395 156.81103516 139.41455078 C157.60570455 141.14258957 158.41277454 142.86497781 159.23193359 144.58154297 C162.68633456 151.91995656 165.34685289 159.42350557 167.875 167.125 C168.08799744 167.7708606 168.30099487 168.41672119 168.52044678 169.08215332 C171.54138987 178.25845452 174.4397034 187.46928758 177.125 196.75 C177.56755127 198.23717529 177.56755127 198.23717529 178.01904297 199.75439453 C180.0237027 206.89714008 181.42866877 213.89192313 178.93359375 221.06640625 C175.33558835 227.06934477 171.51987565 232.65241049 167 238 C166.33226562 238.81339844 165.66453125 239.62679687 164.9765625 240.46484375 C150.47734349 257.45039093 130.14133605 268.39797682 108 271 C103.61966635 271.23341091 99.26035419 271.23657051 94.875 271.1875 C93.77285156 271.18685547 92.67070312 271.18621094 91.53515625 271.18554688 C80.88990644 271.1287217 71.53493013 270.18115177 61.375 266.9375 C60.46621094 266.65583984 59.55742187 266.37417969 58.62109375 266.08398438 C56.41126106 265.39777317 54.20451459 264.70307008 52 264 C51.85884766 265.54107422 51.85884766 265.54107422 51.71484375 267.11328125 C49.12085777 281.21719411 35.7307468 294.76995102 24.32275391 302.68847656 C18.87231481 306.28266028 13.1978618 308.93664149 7 311 C5.95912231 311.38406006 5.95912231 311.38406006 4.8972168 311.77587891 C-2.29900399 314.23876444 -9.12198989 314.53936908 -16.6875 314.5 C-17.92540283 314.49572998 -19.16330566 314.49145996 -20.4387207 314.48706055 C-32.86047183 314.25619724 -42.75074782 311.77020413 -53.16796875 304.72265625 C-55.02160654 303.75895225 -55.02160654 303.75895225 -57.0078125 304.71875 C-59.53213762 306.34223753 -62.03336257 307.99066951 -64.51171875 309.68359375 C-71.47853949 313.36933722 -78.11307289 314.53292901 -85.9375 314.4375 C-86.81704346 314.42920166 -87.69658691 314.42090332 -88.6027832 314.41235352 C-99.77437725 314.1211189 -106.61216138 310.21273079 -115 303 C-115.33 304.98 -115.66 306.96 -116 309 C-116.66 309 -117.32 309 -118 309 C-118.2475 309.721875 -118.495 310.44375 -118.75 311.1875 C-122.2314304 319.0207184 -128.87087885 322.88326642 -136.24609375 326.6640625 C-140.63412519 328.22567202 -144.14868589 328.37848347 -148.75 328.25 C-149.50410156 328.24484375 -150.25820312 328.2396875 -151.03515625 328.234375 C-154.26434811 328.1884895 -156.9191023 328.0269659 -160 327 C-160.85271484 328.28583984 -160.85271484 328.28583984 -161.72265625 329.59765625 C-170.62966425 342.86601341 -180.45897866 353.29966753 -196.8828125 356.6953125 C-207.84950108 358.27354444 -223.40458442 359.37687944 -232.99609375 353.01171875 C-233.80175781 352.24472656 -234.60742188 351.47773438 -235.4375 350.6875 C-236.26121094 349.92824219 -237.08492187 349.16898437 -237.93359375 348.38671875 C-240.01769856 345.979558 -241.0255675 344.00849379 -242 341 C-240.96359375 340.96261719 -239.9271875 340.92523438 -238.859375 340.88671875 C-237.48954816 340.82104212 -236.11975809 340.75459536 -234.75 340.6875 C-234.06808594 340.66494141 -233.38617188 340.64238281 -232.68359375 340.61914062 C-228.60148391 340.40116389 -225.83009671 340.08086477 -223 337 C-222.41657647 333.45769191 -222.41657647 333.45769191 -223 330 C-226.39897673 327.73401552 -227.56319173 327.76257346 -231.54296875 327.8046875 C-232.61611328 327.81113281 -233.68925781 327.81757813 -234.79492188 327.82421875 C-235.91447266 327.84097656 -237.03402344 327.85773438 -238.1875 327.875 C-239.31865234 327.88402344 -240.44980469 327.89304687 -241.61523438 327.90234375 C-244.41036828 327.92593138 -247.20507845 327.958847 -250 328 C-253.83228031 319.31763925 -253.74513545 306.18719001 -250.375 297.3125 C-249.2734375 295.109375 -249.2734375 295.109375 -248 293 C-247.51789063 292.18015625 -247.03578125 291.3603125 -246.5390625 290.515625 C-243.4015313 285.51468695 -240.76790263 281.92263421 -235 280 C-225.011471 278.90579495 -216.49071873 281.045091 -208.3046875 286.94140625 C-206.22607552 288.79806475 -204.96589775 290.31765985 -203.5625 292.6875 C-201.69209167 295.42253105 -201.20513434 295.92464453 -197.9375 297.125 C-195.02252382 297.17189852 -195.02252382 297.17189852 -192.625 296 C-190.77835698 293.7272086 -190.1193235 292.04713136 -190.30078125 289.09375 C-192.83048489 281.51877149 -200.66656688 275.91402449 -207.41015625 272.24609375 C-214.3418165 268.91095104 -220.05596898 266.9006424 -227.8125 266.8125 C-233.36655848 266.47151884 -233.36655848 266.47151884 -235.91015625 264.578125 C-237.67993796 262.14290537 -238.81172771 259.77263534 -240 257 C-240.43650879 256.01241699 -240.43650879 256.01241699 -240.88183594 255.00488281 C-245.76465687 243.82487213 -249.05186508 233.30790045 -249 221 C-247.4679895 220.84180786 -247.4679895 220.84180786 -245.9050293 220.68041992 C-223.06207969 218.40525583 -223.06207969 218.40525583 -200.3125 215.375 C-199.56766357 215.26438232 -198.82282715 215.15376465 -198.05541992 215.03979492 C-194.1077083 214.41871731 -194.1077083 214.41871731 -191 212 C-190.50878759 207.892575 -190.50878759 207.892575 -192.26037598 204.32373047 C-194.41560362 202.68375513 -195.46661751 202.65798809 -198.14648438 202.7578125 C-198.94465576 202.78520508 -199.74282715 202.81259766 -200.56518555 202.84082031 C-204.27771084 203.08353228 -207.96212084 203.43503462 -211.65625 203.875 C-212.44342407 203.96378418 -213.23059814 204.05256836 -214.04162598 204.14404297 C-216.52831789 204.42462949 -219.0142164 204.71148451 -221.5 205 C-224.78062391 205.38076959 -228.06191315 205.75484656 -231.34375 206.125 C-232.07839478 206.21249512 -232.81303955 206.29999023 -233.56994629 206.39013672 C-238.74105107 206.97254884 -243.79585701 207.07188752 -249 207 C-248.17588212 184.90832382 -238.34825809 166.52894073 -223 151 C-211.27607166 140.19712595 -201.6416234 134.49012259 -185.5 134.6640625 C-180.52645071 135.14143442 -176.41331228 136.7221614 -172 139 C-172 139.66 -172 140.32 -172 141 C-171.236875 141.268125 -170.47375 141.53625 -169.6875 141.8125 C-167 143 -167 143 -165.6875 144.625 C-162.81537374 146.96525102 -159.59539698 146.1768228 -156 146 C-154.34393788 143.4671991 -153.99215226 142.14317335 -154.16015625 139.078125 C-155.64733039 133.62745885 -160.34804894 131.7364418 -165 129 C-165.68191406 128.59523437 -166.36382812 128.19046875 -167.06640625 127.7734375 C-174.4276361 123.99918658 -182.91378311 123.22546571 -191 122 C-191.69243645 109.17069124 -190.41898562 97.89492998 -181.79296875 87.87109375 C-177.53846221 83.43120566 -173.97614776 80.84837857 -168 79 C-167.90203125 77.94941406 -167.8040625 76.89882812 -167.703125 75.81640625 C-166.89627415 67.94398124 -166.07205863 60.94008664 -162 54 C-161.60167969 53.26652344 -161.20335937 52.53304687 -160.79296875 51.77734375 C-154.95268299 41.96499045 -145.87648977 35.25713063 -135 32 C-134.38898438 31.80921875 -133.77796875 31.6184375 -133.1484375 31.421875 C-123.04145757 29.43723167 -112.74780148 31.23839688 -103 34 C-103.48578543 37.12290635 -103.9986012 39.99580359 -105 43 C-106.70785353 60.56575042 -105.43912059 73.81222218 -94.78125 87.94140625 C-92.64038989 90.47048571 -90.42587322 92.74531576 -88 95 C-86.95392578 95.98226562 -86.95392578 95.98226562 -85.88671875 96.984375 C-74.69300204 106.5614489 -62.44100284 108.09697894 -48.25244141 107.20507812 C-41.00982535 106.54565936 -35.39787936 104.97173099 -30 100 C-28.54873313 99.07218625 -27.08953123 98.15673158 -25.625 97.25 C-19.88290802 93.48265084 -15.78733487 88.6810023 -12 83 C-11.34 83 -10.68 83 -10 83 C-9.69255859 81.84371094 -9.69255859 81.84371094 -9.37890625 80.6640625 C-8.97478516 79.15972656 -8.97478516 79.15972656 -8.5625 77.625 C-8.29566406 76.62726563 -8.02882813 75.62953125 -7.75390625 74.6015625 C-7 72 -7 72 -6 70 C-5.34 70 -4.68 70 -4 70 C-4.0868748 68.04082341 -4.19504512 66.08258129 -4.3125 64.125 C-4.39951172 62.48917969 -4.39951172 62.48917969 -4.48828125 60.8203125 C-4.65714844 59.88960937 -4.82601562 58.95890625 -5 58 C-8.46923881 55.68717413 -9.92205575 55.57521414 -14 56 C-16.53573582 58.01337885 -17.4530795 59.72532632 -18.2109375 62.8359375 C-18.40429688 63.57070312 -18.59765625 64.30546875 -18.796875 65.0625 C-19.17999635 66.59498541 -19.55767193 68.12884332 -19.9296875 69.6640625 C-21.28506933 74.76457834 -22.87558738 77.48339556 -27 81 C-27.69480469 81.69222656 -28.38960937 82.38445312 -29.10546875 83.09765625 C-33.76854168 87.49826729 -37.95717458 90.21828693 -44.03125 92.30859375 C-45.97647533 92.83218861 -45.97647533 92.83218861 -47 94 C-65.03600624 95.22789775 -65.03600624 95.22789775 -73 90 C-73.68191406 89.57589844 -74.36382812 89.15179688 -75.06640625 88.71484375 C-83.77135219 82.78490904 -89.85339899 74.35419313 -92 64 C-93.37670634 50.85635084 -91.77989066 38.0123509 -83.75 27.0625 C-82.53681207 25.67525727 -81.28605812 24.3199704 -80 23 C-79.03126953 21.99066406 -79.03126953 21.99066406 -78.04296875 20.9609375 C-56.54449821 0.3000697 -28.15835487 -0.79999883 0 0 Z " fill="#69ACD6" transform="translate(375,41)"/>
<path d="M0 0 C0.33 0 0.66 0 1 0 C2.62269892 10.27226367 3.2156294 20.41181445 3.25 30.8125 C3.26353516 32.49146362 3.26353516 32.49146362 3.27734375 34.2043457 C3.23771186 45.41604256 1.4658685 55.76506469 -2.125 66.375 C-2.43066895 67.27839111 -2.73633789 68.18178223 -3.05126953 69.11254883 C-7.43961208 81.59432821 -13.66524384 91.52897002 -23 101 C-23.56203125 101.63421875 -24.1240625 102.2684375 -24.703125 102.921875 C-33.74861439 112.84556724 -47.71388119 119.2341529 -61.04296875 120.2265625 C-73.20129823 120.54613627 -82.32216133 117.98073921 -92.50390625 111.328125 C-93.32761719 110.88984375 -94.15132813 110.4515625 -95 110 C-98.78213457 111.26071152 -99.09002071 112.42487587 -101.0625 115.8125 C-113.47806371 135.82255257 -133.16650821 151.326741 -156.28125 157.18383789 C-163.5128062 158.73786919 -170.73627048 159.3363543 -178.125 159.4375 C-179.26122803 159.4533313 -179.26122803 159.4533313 -180.42041016 159.46948242 C-190.8295898 159.30062903 -201.52511337 154.85210665 -209.30078125 147.9609375 C-215.13712585 141.73989975 -218.46501538 134.73846523 -221.6875 126.9375 C-222.67241093 123.89955142 -222.67241093 123.89955142 -225 123 C-228.5 122.75 -228.5 122.75 -232 123 C-234.42596533 125.42596533 -234.35829015 126.22348595 -234.4609375 129.5703125 C-234.33851866 135.54306329 -232.06318344 139.14749777 -228.625 143.875 C-227.61585606 145.3298065 -226.60799732 146.78550552 -225.6015625 148.2421875 C-225.15119629 148.8697998 -224.70083008 149.49741211 -224.23681641 150.14404297 C-222.97814484 152.03279568 -221.97199086 153.95116795 -221 156 C-245.66966423 160.59923277 -271.49542618 156.82379347 -292.45703125 142.76171875 C-297.95768335 138.75558345 -302.80264171 134.46276541 -307.28125 129.3359375 C-308.88836055 127.79303097 -308.88836055 127.79303097 -310.90625 128.0625 C-313.58387127 129.2614349 -315.67542779 130.83314226 -318 132.625 C-338.27693412 147.55329402 -361.1988633 154.8471629 -386.375 151.3125 C-393.74297911 149.87384299 -401.73977705 147.54879468 -407 142 C-406.21987549 142.02094727 -405.43975098 142.04189453 -404.63598633 142.06347656 C-401.02829395 142.14771737 -397.42080953 142.19899916 -393.8125 142.25 C-391.97268555 142.30027344 -391.97268555 142.30027344 -390.09570312 142.3515625 C-375.69239648 142.50357629 -363.11610863 138.63571591 -352.4921875 128.640625 C-347.70910879 123.55761726 -344.02228906 118.28757623 -341 112 C-340.505 112.15597656 -340.01 112.31195313 -339.5 112.47265625 C-329.31989262 114.62002265 -319.4190973 113.90271236 -310.390625 108.6484375 C-307.53282156 106.67786062 -305.20490416 104.68722695 -303 102 C-302.2575 101.113125 -301.515 100.22625 -300.75 99.3125 C-298.99126544 97.13513468 -298.99126544 97.13513468 -298 95 C-297.34 95 -296.68 95 -296 95 C-295.67 93.02 -295.34 91.04 -295 89 C-291.17225513 90.8012917 -287.86044134 93.12689658 -284.4140625 95.5625 C-275.36312623 100.95205429 -262.60745921 100.30811341 -252.52734375 98.3125 C-247.13333627 96.49173798 -243.01661966 93.84804735 -238.8515625 89.9765625 C-237 89 -237 89 -234.59765625 89.68359375 C-233.74042969 90.11800781 -232.88320313 90.55242187 -232 91 C-231.16082031 91.39058594 -230.32164062 91.78117187 -229.45703125 92.18359375 C-227.70564694 93.01401379 -225.95562348 93.84731051 -224.20703125 94.68359375 C-215.06672454 98.43546143 -207.07607323 99.49626516 -197.1875 99.4375 C-196.00607422 99.45748047 -194.82464844 99.47746094 -193.60742188 99.49804688 C-175.80299068 99.48829102 -159.13251032 91.89024583 -146 80 C-138.23146304 71.59762843 -130.45807695 61.30715396 -128 50 C-122.41226765 50.81276107 -117.21029298 52.39132456 -111.828125 54.0625 C-87.20296697 60.09315095 -59.11202456 57.12318556 -37.375 44.1875 C-20.69906191 33.53398055 -6.06588455 19.33500701 0 0 Z " fill="#325D87" transform="translate(555,255)"/>
<path d="M0 0 C0.33 0 0.66 0 1 0 C0.97905273 0.77601563 0.95810547 1.55203125 0.93652344 2.3515625 C0.85287241 5.90090748 0.80118371 9.45004435 0.75 13 C0.71648437 14.22074219 0.68296875 15.44148437 0.6484375 16.69921875 C0.56216176 24.67972463 1.00440739 30.39416139 6.41308594 36.62890625 C10.31028335 39.99608481 15.87562866 40.22011528 20.8125 40 C30.73295937 38.66309277 38.02980777 32.51989839 45.00390625 25.7578125 C47 24 47 24 49 24 C49.33 23.34 49.66 22.68 50 22 C73.12502102 21.22068131 96.22660204 20.82612464 119.36428905 20.79981136 C121.89999694 20.79680365 124.43570106 20.79268758 126.97140694 20.78830719 C135.05309863 20.77472038 143.13478078 20.76501927 151.21648306 20.7611053 C159.37557601 20.75712289 167.53455034 20.74504626 175.69360352 20.71875 C214.4340267 20.59665387 253.10800217 20.82706916 291.8203125 22.42578125 C292.61292882 22.45849971 293.40554513 22.49121817 294.22218013 22.52492809 C408.49458865 27.27983177 408.49458865 27.27983177 432 38 C432 40.3125 432 40.3125 431 43 C424.52222164 46.36844475 417.16780044 47.30305759 410.03901672 48.60879517 C408.64438853 48.87636791 407.253834 49.16585026 405.86759949 49.47396851 C399.06220042 50.95901806 392.32869404 51.57375124 385.38671875 52.03515625 C383.62785088 52.16053017 383.62785088 52.16053017 381.83345032 52.28843689 C378.11852795 52.55248103 374.40309242 52.80807344 370.6875 53.0625 C366.95414969 53.32162343 363.22095307 53.58261086 359.48799133 53.84727478 C357.17328375 54.01104905 354.85833617 54.17147449 352.5431366 54.32814026 C351.49467056 54.40169235 350.44620453 54.47524445 349.3659668 54.55102539 C348.4479277 54.61383194 347.52988861 54.67663849 346.58403015 54.74134827 C344.00424085 54.99957551 341.53779112 55.47892219 339 56 C336.83673768 56.13374963 334.67052441 56.22329678 332.50390625 56.28125 C331.23482422 56.31798828 329.96574219 56.35472656 328.65820312 56.39257812 C327.99054932 56.41006104 327.32289551 56.42754395 326.63500977 56.44555664 C323.11188114 56.53810673 319.58916957 56.64458469 316.06640625 56.75 C315.36560944 56.77066528 314.66481262 56.79133057 313.94277954 56.81262207 C308.29176999 56.98249226 302.64658345 57.22257454 297 57.5 C283.80964909 58.12549409 270.61538074 58.57584324 257.4152832 58.93426514 C255.78293981 58.97869134 254.15061581 59.0238354 252.51831055 59.06964111 C172.4330737 61.30611475 92.37240323 60.28457711 12.35896301 56.52740479 C6.4663463 56.25088721 0.57392892 55.97822218 -5.3203125 55.73852539 C-16.29823803 55.28712385 -27.19433552 54.54558689 -38.125 53.4375 C-46.56915893 52.58178028 -54.91353604 51.81864394 -63.41430664 52.03491211 C-68.87368891 51.96119937 -74.06006184 50.55955308 -79.27734375 49.0546875 C-81.87644326 48.31832143 -84.45430213 47.63031247 -87.078125 47 C-87.76390625 46.835 -88.4496875 46.67 -89.15625 46.5 C-90.56686976 46.16313558 -91.97835406 45.8298735 -93.390625 45.5 C-96.74307038 44.68728597 -99.09844404 43.93437064 -102 42 C-101.875 40.1875 -101.875 40.1875 -101 38 C-96.40022153 35.2583016 -91.85188826 34.03680602 -86.671875 32.98046875 C-85.85273621 32.81137497 -85.03359741 32.64228119 -84.18963623 32.46806335 C-73.30360832 30.33563428 -62.28202632 29.36024843 -51.25 28.3125 C-49.10277502 28.09920704 -46.95563888 27.88501777 -44.80859375 27.66992188 C-15.18909665 24.73450755 -15.18909665 24.73450755 -1 25 C-1.185625 24.13375 -1.37125 23.2675 -1.5625 22.375 C-2.60546667 15.22113006 -2.03238951 6.94112687 0 0 Z " fill="#38628B" transform="translate(198,536)"/>
<path d="M0 0 C5.13224593 4.01336767 9.83651497 8.36740797 14.47265625 12.93359375 C15.27832031 13.71476562 16.08398438 14.4959375 16.9140625 15.30078125 C32.76865995 31.67926975 40.74550981 54.89562494 40.53515625 77.37109375 C40.53064453 78.29341797 40.52613281 79.21574219 40.52148438 80.16601562 C40.50979563 82.42194423 40.4934108 84.67773342 40.47265625 86.93359375 C41.45105469 86.89878906 42.42945313 86.86398438 43.4375 86.828125 C51.00495967 86.67186477 57.43696434 86.87528623 64.47265625 89.93359375 C65.46265625 90.26359375 66.45265625 90.59359375 67.47265625 90.93359375 C67.47265625 91.59359375 67.47265625 92.25359375 67.47265625 92.93359375 C68.13265625 93.13984375 68.79265625 93.34609375 69.47265625 93.55859375 C81.60295492 99.11831397 89.55654984 109.82991261 94.47265625 121.93359375 C95.68938687 125.71218431 96.41586564 129.35378219 96.55859375 133.32421875 C96.83042406 139.97360622 98.9483175 143.7501462 102.68359375 149.20703125 C106.43560488 154.92516174 109.5471635 161.65830032 109.1640625 168.640625 C107.24040604 175.02020886 101.83331827 179.47770481 96.34375 182.86328125 C90.45669191 185.88265583 85.42693936 188.05708003 78.77734375 188.06640625 C77.45669922 188.06833984 77.45669922 188.06833984 76.109375 188.0703125 C75.19800781 188.06644531 74.28664063 188.06257812 73.34765625 188.05859375 C71.96900391 188.06439453 71.96900391 188.06439453 70.5625 188.0703125 C69.68464844 188.06902344 68.80679688 188.06773437 67.90234375 188.06640625 C67.10038574 188.06527832 66.29842773 188.06415039 65.47216797 188.06298828 C63.47265625 187.93359375 63.47265625 187.93359375 61.47265625 186.93359375 C62.07576497 183.61356807 62.92115519 180.55164751 64.03515625 177.37109375 C67.32574654 166.30423286 65.47564259 157.18628905 60.47265625 146.93359375 C57.92913023 142.45698795 54.9092761 138.63884976 50.47265625 135.93359375 C47.25016281 135.48244467 45.39983954 135.4251384 42.53515625 136.99609375 C41.23144903 139.03175646 41.23144903 139.03175646 41.34765625 142.12109375 C42.66722175 146.59295462 44.63342722 148.62960652 47.75 151.9765625 C52.23497919 157.07174294 53.0853851 162.52091771 52.88671875 169.0859375 C51.99875863 175.19275758 49.20472793 180.72225232 44.59765625 184.87109375 C36.77525289 190.03387997 30.81835444 190.59031849 21.47265625 189.93359375 C20.48265625 189.60359375 19.49265625 189.27359375 18.47265625 188.93359375 C18.39225098 188.32999023 18.3118457 187.72638672 18.22900391 187.10449219 C17.33017887 180.37804976 16.40944684 173.65485078 15.47265625 166.93359375 C15.30636719 165.7321875 15.14007812 164.53078125 14.96875 163.29296875 C14.0329286 157.12160598 12.52186184 151.26065441 10.7265625 145.28515625 C9.70798137 141.84213547 8.81311038 138.37657229 7.9375 134.89453125 C4.73091863 122.26483138 1.07883279 110.47354179 -4.65087891 98.75878906 C-6.46395477 94.98314695 -8.06004023 91.11720194 -9.59765625 87.22265625 C-14.99667918 72.64296233 -14.99667918 72.64296233 -23.52734375 59.93359375 C-23.65127536 53.11735501 -21.31053576 49.31908806 -16.8984375 44.20703125 C-11.01178908 38.56283128 -4.72603124 36.39906225 3.34375 36.26953125 C6.0164795 35.84777944 6.8780974 35.08826662 8.47265625 32.93359375 C8.88941145 29.89147944 8.88941145 29.89147944 8.47265625 26.93359375 C5.69056482 24.15150232 3.9236027 24.60118352 0.03515625 24.55859375 C-11.25300273 24.77766936 -18.21730079 27.9477582 -26.43359375 35.6171875 C-28.51821864 37.92349824 -30.03190513 40.21592165 -31.52734375 42.93359375 C-34.84490892 41.55303584 -36.25317187 40.24663275 -38.08984375 37.18359375 C-47.85235447 21.94336505 -60.45790479 8.97882928 -73.15234375 -3.81640625 C-73.87925415 -4.55044678 -73.87925415 -4.55044678 -74.62084961 -5.29931641 C-76.61736738 -7.28631856 -78.58458183 -9.10813836 -80.86328125 -10.76953125 C-81.41242188 -11.1975 -81.9615625 -11.62546875 -82.52734375 -12.06640625 C-82.52734375 -12.72640625 -82.52734375 -13.38640625 -82.52734375 -14.06640625 C-54.60596087 -21.95009083 -23.87939494 -16.38633599 0 0 Z " fill="#68ABD5" transform="translate(553.52734375,88.06640625)"/>
<path d="M0 0 C0.33 0 0.66 0 1 0 C4.1146953 16.18620343 2.26179806 31.82629303 -6.375 46 C-7.55111388 47.68955715 -8.75798149 49.35828223 -10 51 C-10.54527344 51.72703125 -11.09054687 52.4540625 -11.65234375 53.203125 C-19.96115546 63.44740108 -33.95818685 71.86588512 -47 74 C-57.18860026 73.75330266 -67.24357226 71.71013142 -77.25 69.9375 C-78.88142604 69.65251138 -80.51293602 69.3680028 -82.14453125 69.08398438 C-86.09734198 68.39484404 -90.0489657 67.69925009 -94 67 C-93.44827347 62.53622004 -92.88608556 58.07711696 -92.24609375 53.625 C-92.11396484 52.70332031 -91.98183594 51.78164063 -91.84570312 50.83203125 C-91.71099609 49.89746094 -91.57628906 48.96289062 -91.4375 48 C-91.29892578 47.03449219 -91.16035156 46.06898438 -91.01757812 45.07421875 C-90.6790295 42.71605249 -90.33982318 40.35798287 -90 38 C-88.90042969 38.04640625 -87.80085937 38.0928125 -86.66796875 38.140625 C-73.75970641 38.5238939 -63.16774854 36.65990607 -53 28 C-51.06504228 25.7478361 -49.57167572 23.53496084 -48 21 C-47.01 21.33 -46.02 21.66 -45 22 C-31.28581236 23.21253488 -18.74594845 22.57908107 -7.72265625 13.5703125 C-3.27902863 9.51965875 -0.44866485 6.28130796 0 0 Z " fill="#325D86" transform="translate(662,253)"/>
<path d="M0 0 C-0.37286133 0.6297876 -0.74572266 1.2595752 -1.12988281 1.90844727 C-2.83713289 4.79280971 -4.54357246 7.67765087 -6.25 10.5625 C-6.83652344 11.55314453 -7.42304688 12.54378906 -8.02734375 13.56445312 C-10.36471922 17.51698131 -12.69960893 21.46543634 -14.94921875 25.46875 C-17.9498844 30.74793268 -21.28603894 35.82720453 -24.5625 40.9375 C-25.09614166 41.76994232 -25.09614166 41.76994232 -25.64056396 42.61920166 C-31.58084609 51.87624392 -37.62481103 61.03654795 -44 70 C-44.58088379 70.82387207 -45.16176758 71.64774414 -45.76025391 72.49658203 C-47.63959209 75.15317436 -49.53585249 77.79684226 -51.4375 80.4375 C-52.02934082 81.27394043 -52.62118164 82.11038086 -53.23095703 82.97216797 C-54.07376221 84.12869873 -54.07376221 84.12869873 -54.93359375 85.30859375 C-55.42915771 85.99751709 -55.92472168 86.68644043 -56.43530273 87.39624023 C-58.30460868 89.3122132 -59.36244614 89.68947947 -62 90 C-63.98168945 89.90161133 -63.98168945 89.90161133 -66.11328125 89.58203125 C-66.9343335 89.46496826 -67.75538574 89.34790527 -68.60131836 89.22729492 C-70.45520527 88.94366108 -72.30887439 88.658601 -74.16235352 88.37231445 C-79.44410245 87.57838134 -84.68319962 86.91347894 -90.01400757 86.54359436 C-112.32638699 84.99211665 -112.32638699 84.99211665 -116.99414062 81.51416016 C-120.01801622 77.73643026 -120.83272562 73.64717686 -122 69 C-124.0101096 66.74915837 -124.0101096 66.74915837 -126 65 C-126.19395996 61.21778085 -124.99013838 59.98865914 -122.5 57.125 C-119.77797611 55.049212 -117.95630267 54.7099314 -114.5625 55 C-110.41054095 55.7314693 -106.81450839 57.20070359 -103 59 C-99.23432938 60.4887535 -95.60749069 61.25693464 -91.625 61.875 C-83.95494984 63.07284159 -76.50279291 65.03860997 -69 67 C-68.66935547 66.01 -68.66935547 66.01 -68.33203125 65 C-66.55755514 61.00352594 -64.15827127 57.59610819 -61.6875 54 C-56.96828401 47.0307396 -52.42169693 39.97426981 -48 32.8125 C-47.46076904 31.94044922 -46.92153809 31.06839844 -46.3659668 30.16992188 C-43.48918786 25.49329115 -40.69337417 20.78462383 -38 16 C-37.34 16 -36.68 16 -36 16 C-35.814375 14.88625 -35.814375 14.88625 -35.625 13.75 C-35.04513299 11.19858515 -34.26291261 9.2732427 -33 7 C-32.34 7 -31.68 7 -31 7 C-30.855625 6.195625 -30.71125 5.39125 -30.5625 4.5625 C-30 2 -30 2 -29 1 C-27.57195261 0.85533097 -26.13745576 0.77300637 -24.703125 0.71875 C-23.8265625 0.68136719 -22.95 0.64398438 -22.046875 0.60546875 C-21.12390625 0.57066406 -20.2009375 0.53585937 -19.25 0.5 C-17.44256678 0.43068083 -15.63526352 0.35786845 -13.828125 0.28125 C-12.6201123 0.23581055 -12.6201123 0.23581055 -11.38769531 0.18945312 C-8.95449165 0.05399281 -8.95449165 0.05399281 -6.44824219 -0.58007812 C-3.90988609 -1.01545632 -2.41684373 -0.80561458 0 0 Z " fill="#68AAD3" transform="translate(397,427)"/>
<path d="M0 0 C8.22457822 0.95243753 16.40388302 2.021367 24.5625 3.4375 C31.52201135 4.64211873 38.49270143 5.61669785 45.5 6.5 C55.38205835 7.74579034 65.19130076 9.27337504 75 11 C75.19903188 18.84103556 74.57928488 26.4916282 73.7578125 34.28515625 C73.62937958 35.54025497 73.50094666 36.7953537 73.36862183 38.08848572 C73.0968898 40.73529042 72.82334457 43.38182185 72.54638672 46.02807617 C72.12804451 50.02529973 71.71804083 54.02333953 71.30859375 58.02148438 C70.66766524 64.26456676 70.00567219 70.50520664 69.33834839 76.74551392 C69.03529453 79.66051101 68.75765655 82.57623951 68.49243164 85.49487305 C68.34268444 87.02263093 68.19287063 88.55038229 68.04296875 90.078125 C67.92977295 91.33141602 67.81657715 92.58470703 67.69995117 93.87597656 C66.49579756 99.25035731 63.1533 101.72745817 59 105 C58.15935852 106.14655539 57.3435457 107.31204588 56.5625 108.5 C54 111 54 111 51.78100586 111.24414062 C50.97542236 111.21513672 50.16983887 111.18613281 49.33984375 111.15625 C48.52765381 111.13369141 47.71546387 111.11113281 46.87866211 111.08789062 C46.25870361 111.05888672 45.63874512 111.02988281 45 111 C44.81164343 96.71219869 45.33135446 82.61774529 46.4375 68.375 C46.7101659 64.75804309 46.97857246 61.14077817 47.24609375 57.5234375 C47.31122162 56.65209167 47.37634949 55.78074585 47.44345093 54.88299561 C48.10171089 45.92911786 48.56854636 36.96729138 49 28 C47.97193237 27.96241577 47.97193237 27.96241577 46.9230957 27.92407227 C35.8208732 27.30664235 25.07638003 25.08360462 14.1875 22.9375 C12.22343692 22.55597268 10.25924497 22.17510817 8.29492188 21.79492188 C3.52842861 20.87091141 -1.23623398 19.93796504 -6 19 C-5.36713094 14.10225431 -4.42337637 10.09437172 -2.4375 5.5625 C-1.98246094 4.51191406 -1.52742187 3.46132813 -1.05859375 2.37890625 C-0.70925781 1.59386719 -0.35992188 0.80882812 0 0 Z " fill="#68ABD4" transform="translate(597,339)"/>
<path d="M0 0 C0.63808594 0.18175781 1.27617187 0.36351562 1.93359375 0.55078125 C9.60398526 2.8194886 17.01794815 8.69699452 21.5625 15.25 C22.89799518 17.80486034 24.02656281 20.28828213 25 23 C25.350625 23.825 25.70125 24.65 26.0625 25.5 C31.47716632 39.93911018 27.96099943 57.3996615 22 71 C21.34 71 20.68 71 20 71 C19.7834375 71.70253906 19.566875 72.40507812 19.34375 73.12890625 C13.92998513 84.69610735 0.89628074 92.30643204 -10.56176758 96.49267578 C-37.13306163 105.90971065 -62.14313576 100.81615965 -87.05102539 89.24829102 C-93.93470361 85.86539908 -93.93470361 85.86539908 -96 82 C-96.4375 79.5625 -96.4375 79.5625 -96 77 C-94 74.1875 -94 74.1875 -92 72 C-86.33027024 72.53522249 -82.0523316 74.77849475 -77.0625 77.3125 C-57.15362053 87.08486395 -37.3152678 89.78617307 -16 82.875 C-5.26513055 78.86119465 3.78870462 72.42259076 9 62 C9.66 62 10.32 62 11 62 C11.12375 61.46375 11.2475 60.9275 11.375 60.375 C12 58 12 58 13.015625 55.40234375 C15.31480704 47.45556771 15.57866988 36.52800497 12.375 28.8125 C7.34620871 19.81361031 0.94553959 14.85888836 -9 12 C-17.77043164 11.02322274 -24.91295398 11.44613391 -32 17 C-32.48984375 17.54269531 -32.9796875 18.08539063 -33.484375 18.64453125 C-35.42215329 20.37754431 -36.49531755 20.40379083 -39.0625 20.375 C-40.361875 20.25125 -41.66125 20.1275 -43 20 C-45.54800972 16.17798542 -45.68007776 14.53385176 -45 10 C-40.69730966 3.49754193 -33.37791538 -0.20736154 -26.1484375 -2.6171875 C-17.24177306 -4.20419316 -8.2901309 -3.51053257 0 0 Z " fill="#020406" transform="translate(342,208)"/>
<path d="M0 0 C249.48 0 498.96 0 756 0 C756 0.99 756 1.98 756 3 C722.97993395 4.1367893 689.9629192 4.13460111 656.92822744 4.10355343 C648.77786667 4.09612161 640.62750732 4.09480063 632.47714364 4.09362289 C617.44484904 4.09130815 602.41255983 4.08450505 587.3802681 4.07516479 C566.87057702 4.06248256 546.36088771 4.05650186 525.85119335 4.05223143 C516.26689646 4.05022692 506.68259964 4.04789932 497.09830284 4.04548645 C496.1395241 4.04524544 495.18074536 4.04500442 494.19291272 4.04475611 C471.45624429 4.03896544 448.7195773 4.03000619 425.98291016 4.02050781 C424.98995284 4.02009417 423.99699552 4.01968052 422.97394858 4.01925434 C408.86896827 4.01337485 394.76398802 4.00735609 380.65900779 4.001302 C363.46033466 3.99392142 346.26166151 3.98661533 329.06298828 3.97949219 C327.56572068 3.9788703 327.56572068 3.9788703 326.03820525 3.97823586 C303.25998987 3.96879207 280.48177462 3.96024545 257.70355797 3.95451355 C256.26924686 3.95415206 256.26924686 3.95415206 254.80595976 3.95378327 C245.2631366 3.95139861 235.72031341 3.94917053 226.17749016 3.94717702 C205.67695056 3.94285941 185.17641716 3.93577991 164.6758809 3.92312917 C149.76404586 3.91396794 134.8522129 3.90819473 119.94037516 3.90601182 C111.07566373 3.90459279 102.21096393 3.90031557 93.34625617 3.89206566 C87.4361558 3.88683328 81.52606162 3.88517438 75.61595909 3.88649235 C72.24271224 3.88713707 68.86950356 3.88560062 65.4962575 3.8807956 C61.87389976 3.87587154 58.25159501 3.87699469 54.62923622 3.87974548 C53.56780401 3.87683262 52.5063718 3.87391976 51.41277498 3.87091863 C49.97652207 3.87390523 49.97652207 3.87390523 48.51125395 3.87695217 C47.68196367 3.87657245 46.85267338 3.87619273 45.99825308 3.8758015 C43.92649656 3.87389025 43.92649656 3.87389025 42 5 C42 4.34 42 3.68 42 3 C28.14 3 14.28 3 0 3 C0 2.01 0 1.02 0 0 Z " fill="#E7E7E7" transform="translate(0,0)"/>
<path d="M0 0 C2.51681526 0.41946921 4.62663215 0.79464768 6.875 2.03125 C9.34819824 3.15873743 11.04866023 3.20445117 13.75 3.125 C14.94882812 3.09792969 14.94882812 3.09792969 16.171875 3.0703125 C17.07679688 3.03550781 17.07679688 3.03550781 18 3 C18.53551657 6.64151264 18.09046443 7.87115673 15.9375 10.9375 C13.37711006 13.77587514 10.52499531 16.21158914 7.55078125 18.60546875 C5.7459798 20.11259341 5.7459798 20.11259341 4 23 C4.27641408 27.03050298 5.52603962 28.97830583 8.3125 31.8125 C12.67203113 36.58466165 16.20970314 41.32415435 16.25 48 C16.1675 48.99 16.085 49.98 16 51 C12.90294059 52.54852971 10.32288543 52.75146526 7 52 C3.98315377 50.33782577 1.18304163 48.49690067 -1.64453125 46.53125 C-3.81123042 44.81832093 -3.81123042 44.81832093 -6 45 C-6.08975098 45.54301758 -6.17950195 46.08603516 -6.27197266 46.64550781 C-9.68676878 66.74305015 -16.09227369 80.76159738 -32 94 C-33.37282158 90.20197704 -32.65392274 87.3055447 -31.8125 83.41796875 C-31.67480698 82.77538116 -31.53711395 82.13279358 -31.39524841 81.47073364 C-30.94118422 79.37372885 -30.47203406 77.28052837 -30 75.1875 C-29.84105255 74.47258392 -29.6821051 73.75766785 -29.51834106 73.02108765 C-25.59113135 55.41597246 -21.13912581 38.1774575 -13 22 C-12.525625 20.80375 -12.05125 19.6075 -11.5625 18.375 C-8.52129279 11.80599242 -4.40508603 5.73466992 0 0 Z " fill="#66A8D1" transform="translate(259,465)"/>
<path d="M0 0 C2.20040689 2.12706 2.88673335 3.4478251 3.5 6.4375 C2.94064212 9.30420912 1.99459451 10.84162798 -0.11911011 12.84970093 C-4.43188361 15.48727125 -9.82998778 15.49941046 -14.75390625 16.01953125 C-16.00574203 16.16782883 -17.25757782 16.3161264 -18.54734802 16.46891785 C-21.19708744 16.77879146 -23.84618015 17.08049215 -26.49829102 17.36791992 C-29.86353975 17.73279597 -33.22533452 18.12208844 -36.58670139 18.52100086 C-39.82891289 18.9044994 -43.07261898 19.27463331 -46.31640625 19.64453125 C-48.102994 19.85067802 -48.102994 19.85067802 -49.92567444 20.06098938 C-70.31049813 22.27034782 -70.31049813 22.27034782 -73.77857971 19.66267395 C-75.63857952 17.13072548 -75.87543327 15.11416814 -76 12 C-75 9.25 -75 9.25 -73 7 C-67.58449868 5.09859995 -62.19408509 4.4010593 -56.5078125 3.78125 C-55.15150223 3.62613953 -55.15150223 3.62613953 -53.76779175 3.46789551 C-50.88745727 3.13971968 -48.00629074 2.81965981 -45.125 2.5 C-42.28939442 2.17949123 -39.45397894 1.85734268 -36.61859131 1.53491211 C-34.75905828 1.32481371 -32.89923395 1.11727713 -31.03912354 0.91235352 C-26.69759261 0.43250671 -22.36516334 -0.07464761 -18.03808594 -0.671875 C-16.88214432 -0.82601868 -16.88214432 -0.82601868 -15.70285034 -0.98327637 C-14.28226068 -1.17475661 -12.86302886 -1.37676614 -11.4458313 -1.59191895 C-7.09512673 -2.16729878 -4.01981392 -1.75760343 0 0 Z " fill="#191919" transform="translate(105,398)"/>
<path d="M0 0 C-1.6025709 3.48600474 -3.67943595 6.48492915 -5.875 9.625 C-8.91782179 14.14811347 -11.23288486 18.41637382 -13.078125 23.53125 C-14.04966934 26.13301281 -15.21989796 28.56716742 -16.4375 31.0625 C-25.41581189 50.76566469 -29.88037071 73.95483792 -33.4921875 95.19140625 C-34 98 -34 98 -35 101 C-37.375 100.6875 -37.375 100.6875 -40 100 C-44.00530526 93.9920421 -41.90468429 85.99019947 -40.6875 79.1875 C-40.54852295 78.39690186 -40.4095459 77.60630371 -40.26635742 76.79174805 C-36.33549328 54.9345381 -28.14086844 34.52946967 -19.0480957 14.35180664 C-18.11358145 12.25486376 -17.21824847 10.14660654 -16.3359375 8.02734375 C-12.71224999 -0.18422882 -8.22937227 -0.71907136 0 0 Z " fill="#C3CBD4" transform="translate(253,462)"/>
<path d="M0 0 C-2.18935002 2.43749359 -4.12545271 3.66565284 -7.1484375 4.8984375 C-11.80298811 6.88249847 -16.20931684 9.15940507 -20.625 11.625 C-21.78733154 12.27251221 -21.78733154 12.27251221 -22.97314453 12.93310547 C-29.9999004 16.90299967 -36.68952517 21.28731914 -43.33300781 25.86230469 C-45.77909529 27.53171998 -48.26814874 29.13439046 -50.75 30.75 C-61.14282902 37.66910035 -71.32685306 45.10514876 -81 53 C-81.52009261 47.14895809 -80.06728384 43.03018221 -77.77734375 37.6484375 C-76.89191473 34.63174969 -77.10146161 32.98151374 -78 30 C-78.350625 29.38125 -78.70125 28.7625 -79.0625 28.125 C-80.42265876 25.04197349 -80.18473367 22.32520604 -80 19 C-79.67 18.34 -79.34 17.68 -79 17 C-73.06 17 -67.12 17 -61 17 C-61 17.66 -61 18.32 -61 19 C-60.360625 19.2475 -59.72125 19.495 -59.0625 19.75 C-57 21 -57 21 -56.37109375 23.078125 C-56.24863281 23.71234375 -56.12617187 24.3465625 -56 25 C-48.67649654 21.1830893 -41.67733797 17.00325178 -34.74804688 12.51611328 C-30.60910687 9.8717905 -26.56526547 7.817553 -22 6 C-21.11054687 5.63777344 -20.22109375 5.27554687 -19.3046875 4.90234375 C-18.10199219 4.42474609 -18.10199219 4.42474609 -16.875 3.9375 C-16.06804687 3.61652344 -15.26109375 3.29554688 -14.4296875 2.96484375 C-13.62789062 2.64644531 -12.82609375 2.32804687 -12 2 C-11.15308594 1.63261719 -10.30617188 1.26523437 -9.43359375 0.88671875 C-6.22832841 -0.28117087 -3.38133135 -0.13260123 0 0 Z " fill="#63A3CB" transform="translate(712,440)"/>
<path d="M0 0 C3.3 0 6.6 0 10 0 C12.125 4.625 12.125 4.625 11 8 C10.23816406 8.09796875 9.47632813 8.1959375 8.69140625 8.296875 C-2.75949862 9.95518332 -10.51779263 14.01354512 -19.95263672 20.57861328 C-22.38940132 22.27034277 -24.8376086 23.94500415 -27.28515625 25.62109375 C-36.46426482 31.93100781 -45.58364411 38.30110038 -54.4375 45.0625 C-55.09194092 45.56160889 -55.74638184 46.06071777 -56.4206543 46.57495117 C-66.01135122 53.97492713 -66.01135122 53.97492713 -74 63 C-75.875 62.6875 -75.875 62.6875 -78 62 C-80 59 -80 59 -79.86328125 56.58984375 C-73.96556181 38.89668543 -40.64506902 24.39734672 -26 15 C-25.26974609 14.52675293 -24.53949219 14.05350586 -23.78710938 13.56591797 C-21.96825663 12.38830453 -20.14255337 11.22260149 -18.3125 10.0625 C-17.35988281 9.45535156 -16.40726563 8.84820312 -15.42578125 8.22265625 C-13 7 -13 7 -9 7 C-9 6.34 -9 5.68 -9 5 C-5.63316085 2.56839395 -4.26649636 2 0 2 C0 1.34 0 0.68 0 0 Z " fill="#C1CAD3" transform="translate(712,447)"/>
<path d="M0 0 C11.08372254 1.26798979 22.03176304 2.9638174 33 5 C34.33708769 9.01126306 33.21306194 10.57263102 31.625 14.4375 C30.19413921 17.95070289 28.86587893 21.30927846 28 25 C23.89543653 24.37758854 19.79142783 23.75158779 15.6875 23.125 C13.96563477 22.86396484 13.96563477 22.86396484 12.20898438 22.59765625 C5.11609444 21.51262493 -1.94864496 20.32889202 -9 19 C-7.34541659 14.77478988 -5.42473213 10.73280468 -3.375 6.6875 C-3.05015625 6.04232422 -2.7253125 5.39714844 -2.390625 4.73242188 C-1.59558044 3.15402459 -0.79804366 1.57688306 0 0 Z " fill="#315B83" transform="translate(563,333)"/>
<path d="M0 0 C-0.23149462 3.41823965 -0.47362416 6.83442519 -0.7421875 10.25 C-0.89377458 12.45490297 -1.00180679 14.66490053 -1.0078125 16.875 C-1.12125347 22.06087291 -2.02771034 24.54866131 -5.75 28.25 C-6.47832031 28.88421875 -7.20664062 29.5184375 -7.95703125 30.171875 C-9.84011139 31.85692568 -11.04890477 33.41467102 -12.4375 35.5 C-15 38 -15 38 -17.21899414 38.24414062 C-18.02457764 38.21513672 -18.83016113 38.18613281 -19.66015625 38.15625 C-20.47234619 38.13369141 -21.28453613 38.11113281 -22.12133789 38.08789062 C-22.74129639 38.05888672 -23.36125488 38.02988281 -24 38 C-24.10492107 26.6184852 -24.17759935 15.33439373 -23 4 C-21.86820313 3.79503906 -20.73640625 3.59007812 -19.5703125 3.37890625 C-18.08851239 3.10693028 -16.60674315 2.83478613 -15.125 2.5625 C-14.37863281 2.42779297 -13.63226562 2.29308594 -12.86328125 2.15429688 C-1.04906952 -0.02760709 -1.04906952 -0.02760709 0 0 Z " fill="#CBD4DE" transform="translate(666,412)"/>
<path d="M0 0 C2.3570226 0.94280904 4.69034152 1.94647157 7 3 C10.31185818 4.07635391 13.65003001 5.0496061 17 6 C16.37727768 13.4071181 15.29512034 20.68194135 14 28 C12.14591875 28.02740022 10.29171531 28.04657422 8.4375 28.0625 C7.40496094 28.07410156 6.37242187 28.08570313 5.30859375 28.09765625 C4.21675781 28.06542969 3.12492187 28.03320312 2 28 C0.18242187 27.96132813 0.18242187 27.96132813 -1.671875 27.921875 C-5 27 -5 27 -7.07421875 23.98046875 C-7.63896808 22.72796849 -8.17612851 21.46272465 -8.6875 20.1875 C-10.59542296 15.71737834 -12.42946646 12.37690374 -16 9 C-16.19395996 5.21778085 -14.99013838 3.98865914 -12.5 1.125 C-8.45252428 -1.96156422 -4.70300865 -1.24199172 0 0 Z " fill="#C9D2DD" transform="translate(287,483)"/>
<path d="M0 0 C-2.12362212 3.60498022 -4.24913375 7.20884276 -6.375 10.8125 C-6.97828125 11.83666016 -7.5815625 12.86082031 -8.203125 13.91601562 C-8.78320312 14.89892578 -9.36328125 15.88183594 -9.9609375 16.89453125 C-10.49509277 17.80050049 -11.02924805 18.70646973 -11.57958984 19.63989258 C-12.67251363 21.45585928 -13.82432115 23.23648172 -15 25 C-16.86010742 25.26464844 -16.86010742 25.26464844 -19.10546875 25.109375 C-20.33426758 25.03396484 -20.33426758 25.03396484 -21.58789062 24.95703125 C-22.44576172 24.88871094 -23.30363281 24.82039063 -24.1875 24.75 C-25.02603516 24.69714844 -25.86457031 24.64429688 -26.72851562 24.58984375 C-31.52665406 24.26772048 -36.24987694 23.74562148 -41 23 C-39.125 18.25 -39.125 18.25 -38 16 C-37.34 16 -36.68 16 -36 16 C-35.814375 14.88625 -35.814375 14.88625 -35.625 13.75 C-35.04513299 11.19858515 -34.26291261 9.2732427 -33 7 C-32.34 7 -31.68 7 -31 7 C-30.855625 6.195625 -30.71125 5.39125 -30.5625 4.5625 C-30 2 -30 2 -29 1 C-27.57195261 0.85533097 -26.13745576 0.77300637 -24.703125 0.71875 C-23.8265625 0.68136719 -22.95 0.64398438 -22.046875 0.60546875 C-21.12390625 0.57066406 -20.2009375 0.53585937 -19.25 0.5 C-17.44256678 0.43068083 -15.63526352 0.35786845 -13.828125 0.28125 C-13.0227832 0.25095703 -12.21744141 0.22066406 -11.38769531 0.18945312 C-8.95449165 0.05399281 -8.95449165 0.05399281 -6.44824219 -0.58007812 C-3.90988609 -1.01545632 -2.41684373 -0.80561458 0 0 Z " fill="#325C85" transform="translate(397,427)"/>
<path d="M0 0 C-1.6392361 4.14806696 -4.63849853 6.98248777 -7.75 10.0625 C-8.61455811 10.91968628 -8.61455811 10.91968628 -9.49658203 11.79418945 C-15.60141903 17.73828608 -22.12503913 22.97955651 -29 28 C-29.56348145 28.41846191 -30.12696289 28.83692383 -30.70751953 29.26806641 C-38.74044328 35.17239206 -47.22818217 39.8247989 -56.1875 44.1875 C-57.19224365 44.68185547 -58.1969873 45.17621094 -59.23217773 45.68554688 C-60.18036377 46.13349609 -61.1285498 46.58144531 -62.10546875 47.04296875 C-62.95262451 47.44539795 -63.79978027 47.84782715 -64.67260742 48.26245117 C-67.25990201 49.08236274 -68.48672784 48.92323544 -71 48 C-59.61245573 35.26393075 -44.42696661 26.11656267 -30.375 16.640625 C-26.97714576 14.34876748 -23.60096461 12.03174923 -20.25 9.671875 C-19.52683594 9.16470947 -18.80367187 8.65754395 -18.05859375 8.13500977 C-16.73420911 7.20376255 -15.41356236 6.2671645 -14.09765625 5.32397461 C-9.58977492 2.16808777 -5.57335331 0 0 0 Z " fill="#C1C9D2" transform="translate(717,462)"/>
<path d="M0 0 C0.01953125 2.17578125 0.01953125 2.17578125 -1 5 C-3.56139152 7.09427316 -6.41165943 8.61194074 -9.3125 10.1875 C-10.08529297 10.62513672 -10.85808594 11.06277344 -11.65429688 11.51367188 C-15.06150842 13.43260873 -18.49374319 15.26820635 -22 17 C-22.8203125 15.38671875 -22.8203125 15.38671875 -23 13 C-21.36302713 10.71243535 -19.79995749 8.82738606 -17.875 6.8125 C-17.38773438 6.26658203 -16.90046875 5.72066406 -16.3984375 5.15820312 C-11.25801073 -0.35818571 -7.2217359 -0.14160266 0 0 Z " fill="#62A2C9" transform="translate(681,439)"/>
<path d="M0 0 C0 0.33 0 0.66 0 1 C-1.07378906 0.96519531 -2.14757812 0.93039062 -3.25390625 0.89453125 C-4.69008839 0.86637082 -6.12628762 0.83907309 -7.5625 0.8125 C-8.26697266 0.78736328 -8.97144531 0.76222656 -9.69726562 0.73632812 C-15.73578918 0.65284623 -20.33038815 1.74264459 -25.07421875 5.75390625 C-25.60660156 6.35074219 -26.13898438 6.94757813 -26.6875 7.5625 C-28.96462869 10.08962373 -30.87093227 11.62975466 -34 13 C-31.51437985 7.12489784 -28.21745079 3.24128591 -22.4375 0.625 C-15.09998364 -2.02221773 -7.53204516 -1.68750738 0 0 Z " fill="#727272" transform="translate(260,448)"/>
<path d="M0 0 C0.66 0.33 1.32 0.66 2 1 C-3.28 6.28 -8.56 11.56 -14 17 C-14.66 16.67 -15.32 16.34 -16 16 C-11.1163329 10.09563077 -5.8280757 4.96906227 0 0 Z " fill="#142129" transform="translate(441,139)"/>
<path d="M0 0 C0.66 0.33 1.32 0.66 2 1 C-2.04153419 5.8187523 -6.0653164 10.09815716 -11 14 C-11.66 14.66 -12.32 15.32 -13 16 C-12.42308522 12.83145253 -11.58353113 11.21773541 -9.27734375 8.984375 C-8.73916016 8.45585938 -8.20097656 7.92734375 -7.64648438 7.3828125 C-7.08251953 6.84398438 -6.51855469 6.30515625 -5.9375 5.75 C-5.36966797 5.19570312 -4.80183594 4.64140625 -4.21679688 4.0703125 C-2.81787531 2.70665786 -1.40980886 1.35239583 0 0 Z " fill="#5A5A5A" transform="translate(190,112)"/>
<path d="M0 0 C0.66 0.33 1.32 0.66 2 1 C-2.95 5.95 -7.9 10.9 -13 16 C-13 11.08924079 -9.30469813 8.39044878 -6 5 C-4.05397986 3.23549584 -2.07285289 1.6178364 0 0 Z " fill="#558BAD" transform="translate(304,56)"/>
<path d="M0 0 C-1.52524036 3.60286506 -3.67485437 5.94299983 -6.4375 8.6875 C-7.21996094 9.47511719 -8.00242187 10.26273438 -8.80859375 11.07421875 C-11 13 -11 13 -14 14 C-12.41438362 10.14406926 -9.93490046 7.66783709 -7 4.75 C-6.113125 3.85796875 -5.22625 2.9659375 -4.3125 2.046875 C-2 0 -2 0 0 0 Z " fill="#5993B7" transform="translate(449,152)"/>
<path d="M0 0 C-1.4615836 3.36997254 -3.3380888 5.60745127 -5.9375 8.1875 C-6.97197266 9.22970703 -6.97197266 9.22970703 -8.02734375 10.29296875 C-10 12 -10 12 -13 13 C-11.56951306 9.81716656 -9.80982757 7.42084342 -7.5 4.8125 C-6.58734375 3.77029297 -6.58734375 3.77029297 -5.65625 2.70703125 C-3.73667164 0.72859789 -2.7753566 0 0 0 Z " fill="#555555" transform="translate(295,46)"/>
<path d="M0 0 C0.66 0.33 1.32 0.66 2 1 C-2.62 5.62 -7.24 10.24 -12 15 C-12.66 14.67 -13.32 14.34 -14 14 C-9.61932717 8.89662734 -5.32423478 4.12628195 0 0 Z " fill="#5287A8" transform="translate(160,185)"/>
<path d="M0 0 C0.66 0.33 1.32 0.66 2 1 C-2.29 5.29 -6.58 9.58 -11 14 C-11 10.30159372 -10.17133056 9.68584567 -7.75 7 C-7.14671875 6.319375 -6.5434375 5.63875 -5.921875 4.9375 C-4.06233388 3.06284066 -2.15205789 1.52358081 0 0 Z " fill="#5389AA" transform="translate(201,122)"/>
<path d="M0 0 C3.21524305 1.40844718 5.32183868 3.10344786 7.75 5.625 C8.67039062 6.57246094 8.67039062 6.57246094 9.609375 7.5390625 C10.29773438 8.26222656 10.29773438 8.26222656 11 9 C11.99 8.67 12.98 8.34 14 8 C14 11 14 11 13 14 C10.83031809 11.85714108 8.66416525 9.71091768 6.5 7.5625 C5.87996094 6.95083984 5.25992188 6.33917969 4.62109375 5.70898438 C4.03457031 5.12568359 3.44804688 4.54238281 2.84375 3.94140625 C2.02680664 3.13231812 2.02680664 3.13231812 1.19335938 2.30688477 C0 1 0 1 0 0 Z " fill="#9B9B9B" transform="translate(569,83)"/>
<path d="M0 0 C0.66 0.33 1.32 0.66 2 1 C-1.96 4.96 -5.92 8.92 -10 13 C-10.66 12.67 -11.32 12.34 -12 12 C-8.32167983 7.47384007 -4.58913637 3.60575001 0 0 Z " fill="#2D2F31" transform="translate(652,495)"/>
<path d="M0 0 C-1.47721422 3.45201639 -3.43794001 5.64961936 -6.125 8.25 C-6.84945312 8.95640625 -7.57390625 9.6628125 -8.3203125 10.390625 C-8.87460937 10.92171875 -9.42890625 11.4528125 -10 12 C-10.33 11.01 -10.66 10.02 -11 9 C-9.54782324 7.49403892 -8.08807139 5.99537896 -6.625 4.5 C-5.40683594 3.24703125 -5.40683594 3.24703125 -4.1640625 1.96875 C-2 0 -2 0 0 0 Z " fill="#B3BBC3" transform="translate(645,491)"/>
<path d="M0 0 C0.66 0 1.32 0 2 0 C0.52278578 3.45201639 -1.43794001 5.64961936 -4.125 8.25 C-4.84945312 8.95640625 -5.57390625 9.6628125 -6.3203125 10.390625 C-6.87460937 10.92171875 -7.42890625 11.4528125 -8 12 C-8.66 11.67 -9.32 11.34 -10 11 C-8.52116808 9.35386588 -7.04192523 7.70810092 -5.5625 6.0625 C-4.73878906 5.14597656 -3.91507813 4.22945313 -3.06640625 3.28515625 C-1 1 -1 1 0 0 Z " fill="#5A95B9" transform="translate(669,440)"/>
<path d="M0 0 C0.66 0.33 1.32 0.66 2 1 C-2.29 5.29 -6.58 9.58 -11 14 C-11 9.40845608 -8.09282279 7.18698368 -5 4 C-3.3719908 2.61973133 -1.71956118 1.26438322 0 0 Z " fill="#5389AA" transform="translate(227,79)"/>
<path d="M0 0 C0.66 0.33 1.32 0.66 2 1 C-5.11389522 9.6309795 -5.11389522 9.6309795 -10 12 C-8.52278578 8.54798361 -6.56205999 6.35038064 -3.875 3.75 C-3.15054688 3.04359375 -2.42609375 2.3371875 -1.6796875 1.609375 C-1.12539062 1.07828125 -0.57109375 0.5471875 0 0 Z " fill="#585858" transform="translate(216,69)"/>
<path d="M0 0 C-1.39750048 3.15835107 -3.05198234 5.32272825 -5.5 7.75 C-6.41265625 8.67039062 -6.41265625 8.67039062 -7.34375 9.609375 C-9 11 -9 11 -11 11 C-9.60249952 7.84164893 -7.94801766 5.67727175 -5.5 3.25 C-4.8915625 2.63640625 -4.283125 2.0228125 -3.65625 1.390625 C-2 0 -2 0 0 0 Z " fill="#131F26" transform="translate(534,118)"/>
<path d="M0 0 C0.90105469 0.02707031 1.80210937 0.05414063 2.73046875 0.08203125 C3.76107422 0.13423828 3.76107422 0.13423828 4.8125 0.1875 C4.4825 1.1775 4.1525 2.1675 3.8125 3.1875 C3.4825 2.5275 3.1525 1.8675 2.8125 1.1875 C0.5025 1.1875 -1.8075 1.1875 -4.1875 1.1875 C-4.435 1.80625 -4.6825 2.425 -4.9375 3.0625 C-6.39378639 5.53818687 -7.56562506 6.13875002 -10.1875 7.1875 C-7.8051174 1.87295421 -6.01707121 -0.23443135 0 0 Z " fill="#A0A7AF" transform="translate(248.1875,461.8125)"/>
<path d="M0 0 C0 3 0 3 -1.6796875 5.04296875 C-2.76636719 6.10451172 -2.76636719 6.10451172 -3.875 7.1875 C-4.95394531 8.26064453 -4.95394531 8.26064453 -6.0546875 9.35546875 C-8 11 -8 11 -10 11 C-8.55218207 7.55571735 -6.72305391 5.63869038 -3.875 3.25 C-3.15054687 2.63640625 -2.42609375 2.0228125 -1.6796875 1.390625 C-0.84824219 0.70226562 -0.84824219 0.70226562 0 0 Z " fill="#172630" transform="translate(274,476)"/>
<path d="M0 0 C-1.57067171 1.80627247 -2.79299586 2.90943569 -5 3.875 C-7 4 -7 4 -8.75 2.5625 C-9.1625 2.046875 -9.575 1.53125 -10 1 C-6.52674819 -0.1577506 -3.63932552 -0.06866652 0 0 Z " fill="#3D647D" transform="translate(712,440)"/>
<path d="M0 0 C-1.75 3.875 -1.75 3.875 -4 5 C-4.33 4.34 -4.66 3.68 -5 3 C-7.02463255 2.34786708 -7.02463255 2.34786708 -9 2 C-3.375 0 -3.375 0 0 0 Z " fill="#8A9097" transform="translate(717,462)"/>
<path d="M0 0 C0.66 0.33 1.32 0.66 2 1 C1.2884375 1.8353125 1.2884375 1.8353125 0.5625 2.6875 C-1.12395996 5.18346074 -1.58953107 7.0446237 -2 10 C-2.33 10 -2.66 10 -3 10 C-3.36923077 3.47692308 -3.36923077 3.47692308 -1.5 1.0625 C-1.005 0.711875 -0.51 0.36125 0 0 Z " fill="#525252" transform="translate(53,257)"/>
<path d="M0 0 C0.99 0 1.98 0 3 0 C2.67 0.99 2.34 1.98 2 3 C1.34 2.67 0.68 2.34 0 2 C0 1.34 0 0.68 0 0 Z " fill="#CDCDCD" transform="translate(401,540)"/>
<path d="M0 0 C0.99 0 1.98 0 3 0 C2.67 0.99 2.34 1.98 2 3 C1.34 2.67 0.68 2.34 0 2 C0 1.34 0 0.68 0 0 Z " fill="#CBCBCB" transform="translate(446,540)"/>
<path d="M0 0 C0.99 0 1.98 0 3 0 C2.67 0.99 2.34 1.98 2 3 C1.34 2.67 0.68 2.34 0 2 C0 1.34 0 0.68 0 0 Z " fill="#CDCDCD" transform="translate(356,540)"/>
<path d="M0 0 C0.99 0.33 1.98 0.66 3 1 C2.67 1.66 2.34 2.32 2 3 C1.34 3 0.68 3 0 3 C0 2.01 0 1.02 0 0 Z " fill="#C9C9C9" transform="translate(581,495)"/>
<path d="M0 0 C0.99 0.33 1.98 0.66 3 1 C2.67 1.66 2.34 2.32 2 3 C1.34 3 0.68 3 0 3 C0 2.01 0 1.02 0 0 Z " fill="#CDCDCD" transform="translate(581,450)"/>
<path d="M0 0 C0.99 0.33 1.98 0.66 3 1 C2.67 1.66 2.34 2.32 2 3 C1.34 3 0.68 3 0 3 C0 2.01 0 1.02 0 0 Z " fill="#C5C5C5" transform="translate(716,405)"/>
<path d="M0 0 C0.99 0.33 1.98 0.66 3 1 C2.67 1.66 2.34 2.32 2 3 C1.34 3 0.68 3 0 3 C0 2.01 0 1.02 0 0 Z " fill="#CACACA" transform="translate(671,181)"/>
<path d="M0 0 C0.99 0.33 1.98 0.66 3 1 C2.67 1.66 2.34 2.32 2 3 C1.34 3 0.68 3 0 3 C0 2.01 0 1.02 0 0 Z " fill="#CBCBCB" transform="translate(671,136)"/>
<path d="M0 0 C0.99 0.33 1.98 0.66 3 1 C2.67 1.66 2.34 2.32 2 3 C1.34 3 0.68 3 0 3 C0 2.01 0 1.02 0 0 Z " fill="#CBCBCB" transform="translate(626,136)"/>
<path d="M0 0 C0.99 0.33 1.98 0.66 3 1 C2.34 1.66 1.68 2.32 1 3 C0.67 2.01 0.34 1.02 0 0 Z " fill="#C7C7C7" transform="translate(536,540)"/>
<path d="M0 0 C0.99 0.33 1.98 0.66 3 1 C2.34 1.66 1.68 2.32 1 3 C0.67 2.01 0.34 1.02 0 0 Z " fill="#C9C9C9" transform="translate(491,540)"/>
<path d="M0 0 C0.66 0 1.32 0 2 0 C1.67 0.99 1.34 1.98 1 3 C0.34 2.34 -0.32 1.68 -1 1 C-0.67 0.67 -0.34 0.34 0 0 Z " fill="#D1D1D1" transform="translate(312,540)"/>
<path d="M0 0 C0.66 0 1.32 0 2 0 C2 0.99 2 1.98 2 3 C1.34 3 0.68 3 0 3 C0 2.01 0 1.02 0 0 Z " fill="#C7C7C7" transform="translate(716,540)"/>
<path d="M0 0 C0.66 0 1.32 0 2 0 C2 0.99 2 1.98 2 3 C1.34 3 0.68 3 0 3 C0 2.01 0 1.02 0 0 Z " fill="#C1C1C1" transform="translate(671,540)"/>
<path d="M0 0 C0.99 0.33 1.98 0.66 3 1 C2.34 1.66 1.68 2.32 1 3 C0.67 2.01 0.34 1.02 0 0 Z " fill="#C2C2C2" transform="translate(626,540)"/>
<path d="M0 0 C0.99 0.33 1.98 0.66 3 1 C2.34 1.66 1.68 2.32 1 3 C0.67 2.01 0.34 1.02 0 0 Z " fill="#C2C2C2" transform="translate(581,540)"/>
<path d="M0 0 C0.66 0 1.32 0 2 0 C1.67 0.99 1.34 1.98 1 3 C0.34 2.34 -0.32 1.68 -1 1 C-0.67 0.67 -0.34 0.34 0 0 Z " fill="#C8C8C8" transform="translate(267,540)"/>
<path d="M0 0 C0.66 0 1.32 0 2 0 C2 0.99 2 1.98 2 3 C1.34 3 0.68 3 0 3 C0 2.01 0 1.02 0 0 Z " fill="#C9C9C9" transform="translate(716,495)"/>
<path d="M0 0 C0.66 0 1.32 0 2 0 C2 0.99 2 1.98 2 3 C1.34 3 0.68 3 0 3 C0 2.01 0 1.02 0 0 Z " fill="#C6C6C6" transform="translate(87,495)"/>
<path d="M0 0 C0.66 0 1.32 0 2 0 C2 0.99 2 1.98 2 3 C1.34 3 0.68 3 0 3 C0 2.01 0 1.02 0 0 Z " fill="#C5C5C5" transform="translate(42,495)"/>
<path d="M0 0 C0.99 0.33 1.98 0.66 3 1 C2.34 1.66 1.68 2.32 1 3 C0.67 2.01 0.34 1.02 0 0 Z " fill="#CFCFCF" transform="translate(536,495)"/>
<path d="M0 0 C0.99 0.33 1.98 0.66 3 1 C2.34 1.66 1.68 2.32 1 3 C0.67 2.01 0.34 1.02 0 0 Z " fill="#C9C9C9" transform="translate(491,495)"/>
<path d="M0 0 C0.99 0.33 1.98 0.66 3 1 C2.34 1.66 1.68 2.32 1 3 C0.67 2.01 0.34 1.02 0 0 Z " fill="#C7C7C7" transform="translate(446,495)"/>
<path d="M0 0 C0.66 0.66 1.32 1.32 2 2 C1.01 2.33 0.02 2.66 -1 3 C-0.67 2.01 -0.34 1.02 0 0 Z " fill="#C9C9C9" transform="translate(537,450)"/>
<path d="M0 0 C0.66 0.66 1.32 1.32 2 2 C1.01 2.33 0.02 2.66 -1 3 C-0.67 2.01 -0.34 1.02 0 0 Z " fill="#C7C7C7" transform="translate(492,450)"/>
<path d="M0 0 C0.66 0.33 1.32 0.66 2 1 C2 1.66 2 2.32 2 3 C1.01 2.67 0.02 2.34 -1 2 C-0.67 1.34 -0.34 0.68 0 0 Z " fill="#C3C3C3" transform="translate(222,450)"/>
<path d="M0 0 C0.66 0.33 1.32 0.66 2 1 C2 1.66 2 2.32 2 3 C1.01 2.67 0.02 2.34 -1 2 C-0.67 1.34 -0.34 0.68 0 0 Z " fill="#C2C2C2" transform="translate(177,450)"/>
<path d="M0 0 C0.66 0 1.32 0 2 0 C2 0.99 2 1.98 2 3 C1.34 3 0.68 3 0 3 C0 2.01 0 1.02 0 0 Z " fill="#C9C9C9" transform="translate(42,450)"/>
<path d="M0 0 C0.66 0 1.32 0 2 0 C2 0.99 2 1.98 2 3 C1.34 3 0.68 3 0 3 C0 2.01 0 1.02 0 0 Z " fill="#C7C7C7" transform="translate(132,450)"/>
<path d="M0 0 C0.66 0 1.32 0 2 0 C2 0.99 2 1.98 2 3 C1.34 3 0.68 3 0 3 C0 2.01 0 1.02 0 0 Z " fill="#C8C8C8" transform="translate(87,450)"/>
<path d="M0 0 C0.66 0.66 1.32 1.32 2 2 C1.01 2.33 0.02 2.66 -1 3 C-0.67 2.01 -0.34 1.02 0 0 Z " fill="#C8C8C8" transform="translate(537,405)"/>
<path d="M0 0 C0.66 0.66 1.32 1.32 2 2 C1.01 2.33 0.02 2.66 -1 3 C-0.67 2.01 -0.34 1.02 0 0 Z " fill="#C8C8C8" transform="translate(492,405)"/>
<path d="M0 0 C0.66 0.66 1.32 1.32 2 2 C1.01 2.33 0.02 2.66 -1 3 C-0.67 2.01 -0.34 1.02 0 0 Z " fill="#C4C4C4" transform="translate(447,405)"/>
<path d="M0 0 C0.66 0.66 1.32 1.32 2 2 C1.01 2.33 0.02 2.66 -1 3 C-0.67 2.01 -0.34 1.02 0 0 Z " fill="#C6C6C6" transform="translate(627,405)"/>
<path d="M0 0 C0.66 0.66 1.32 1.32 2 2 C1.01 2.33 0.02 2.66 -1 3 C-0.67 2.01 -0.34 1.02 0 0 Z " fill="#C8C8C8" transform="translate(582,405)"/>
<path d="M0 0 C0.99 0.33 1.98 0.66 3 1 C2.01 1.66 1.02 2.32 0 3 C0 2.01 0 1.02 0 0 Z " fill="#C0C0C0" transform="translate(42,316)"/>
<path d="M0 0 C0.66 0 1.32 0 2 0 C2 0.99 2 1.98 2 3 C1.34 3 0.68 3 0 3 C0 2.01 0 1.02 0 0 Z " fill="#C7C7C7" transform="translate(716,226)"/>
<path d="M0 0 C0.66 0 1.32 0 2 0 C2 0.99 2 1.98 2 3 C1.34 3 0.68 3 0 3 C0 2.01 0 1.02 0 0 Z " fill="#C1C1C1" transform="translate(671,226)"/>
<path d="M0 0 C0.66 0 1.32 0 2 0 C2 0.99 2 1.98 2 3 C1.34 3 0.68 3 0 3 C0 2.01 0 1.02 0 0 Z " fill="#C9C9C9" transform="translate(716,181)"/>
<path d="M0 0 C0.66 0 1.32 0 2 0 C2 0.99 2 1.98 2 3 C1.34 3 0.68 3 0 3 C0 2.01 0 1.02 0 0 Z " fill="#C7C7C7" transform="translate(132,181)"/>
<path d="M0 0 C0.66 0 1.32 0 2 0 C2 0.99 2 1.98 2 3 C1.34 3 0.68 3 0 3 C0 2.01 0 1.02 0 0 Z " fill="#C6C6C6" transform="translate(87,181)"/>
<path d="M0 0 C0.66 0 1.32 0 2 0 C2 0.99 2 1.98 2 3 C1.34 3 0.68 3 0 3 C0 2.01 0 1.02 0 0 Z " fill="#C9C9C9" transform="translate(42,181)"/>
<path d="M0 0 C0.66 0 1.32 0 2 0 C2 0.99 2 1.98 2 3 C1.34 3 0.68 3 0 3 C0 2.01 0 1.02 0 0 Z " fill="#CBCBCB" transform="translate(716,136)"/>
<path d="M0 0 C0.66 0 1.32 0 2 0 C2 0.99 2 1.98 2 3 C1.34 3 0.68 3 0 3 C0 2.01 0 1.02 0 0 Z " fill="#C8C8C8" transform="translate(87,136)"/>
<path d="M0 0 C0.66 0 1.32 0 2 0 C2 0.99 2 1.98 2 3 C1.34 3 0.68 3 0 3 C0 2.01 0 1.02 0 0 Z " fill="#C5C5C5" transform="translate(42,136)"/>
<path d="M0 0 C1.485 0.99 1.485 0.99 3 2 C2.01 2.33 1.02 2.66 0 3 C0 2.01 0 1.02 0 0 Z " fill="#C1C1C1" transform="translate(716,91)"/>
<path d="M0 0 C1.485 0.99 1.485 0.99 3 2 C2.01 2.33 1.02 2.66 0 3 C0 2.01 0 1.02 0 0 Z " fill="#C1C1C1" transform="translate(671,91)"/>
<path d="M0 0 C0.66 0.33 1.32 0.66 2 1 C2 1.66 2 2.32 2 3 C1.01 2.67 0.02 2.34 -1 2 C-0.67 1.34 -0.34 0.68 0 0 Z " fill="#CACACA" transform="translate(177,91)"/>
<path d="M0 0 C0.66 0.66 1.32 1.32 2 2 C1.01 2.33 0.02 2.66 -1 3 C-0.67 2.01 -0.34 1.02 0 0 Z " fill="#C6C6C6" transform="translate(627,91)"/>
<path d="M0 0 C0.99 0 1.98 0 3 0 C3 0.66 3 1.32 3 2 C2.01 2 1.02 2 0 2 C0 1.34 0 0.68 0 0 Z " fill="#C7C7C7" transform="translate(446,47)"/>
<path d="M0 0 C0.66 0 1.32 0 2 0 C1.67 0.99 1.34 1.98 1 3 C0.67 2.01 0.34 1.02 0 0 Z " fill="#C2C2C2" transform="translate(87,585)"/>
<path d="M0 0 C0.66 0 1.32 0 2 0 C1.67 0.99 1.34 1.98 1 3 C0.67 2.01 0.34 1.02 0 0 Z " fill="#C4C4C4" transform="translate(42,585)"/>
<path d="M0 0 C0.66 0 1.32 0 2 0 C1.67 0.99 1.34 1.98 1 3 C0.67 2.01 0.34 1.02 0 0 Z " fill="#C0C0C0" transform="translate(716,585)"/>
<path d="M0 0 C0.99 0.33 1.98 0.66 3 1 C2.01 1.33 1.02 1.66 0 2 C0 1.34 0 0.68 0 0 Z " fill="#C3C3C3" transform="translate(626,585)"/>
<path d="M0 0 C0.66 0 1.32 0 2 0 C1.67 0.99 1.34 1.98 1 3 C0.67 2.01 0.34 1.02 0 0 Z " fill="#C8C8C8" transform="translate(177,540)"/>
<path d="M0 0 C0.66 0 1.32 0 2 0 C1.67 0.99 1.34 1.98 1 3 C0.67 2.01 0.34 1.02 0 0 Z " fill="#C8C8C8" transform="translate(132,540)"/>
<path d="M0 0 C0.66 0 1.32 0 2 0 C1.67 0.99 1.34 1.98 1 3 C0.67 2.01 0.34 1.02 0 0 Z " fill="#C7C7C7" transform="translate(42,540)"/>
<path d="M0 0 C0.66 0 1.32 0 2 0 C1.67 0.99 1.34 1.98 1 3 C0.67 2.01 0.34 1.02 0 0 Z " fill="#C7C7C7" transform="translate(87,540)"/>
<path d="M0 0 C0.66 0.66 1.32 1.32 2 2 C1.01 2 0.02 2 -1 2 C-0.67 1.34 -0.34 0.68 0 0 Z " fill="#C9C9C9" transform="translate(402,495)"/>
<path d="M0 0 C0.66 0 1.32 0 2 0 C1.67 0.99 1.34 1.98 1 3 C0.67 2.01 0.34 1.02 0 0 Z " fill="#CACACA" transform="translate(177,495)"/>
<path d="M0 0 C0.66 0 1.32 0 2 0 C1.67 0.99 1.34 1.98 1 3 C0.67 2.01 0.34 1.02 0 0 Z " fill="#C8C8C8" transform="translate(132,495)"/>
<path d="M0 0 C0.66 0.66 1.32 1.32 2 2 C1.01 2 0.02 2 -1 2 C-0.67 1.34 -0.34 0.68 0 0 Z " fill="#C9C9C9" transform="translate(447,450)"/>
<path d="M0 0 C0.66 0.66 1.32 1.32 2 2 C1.01 2 0.02 2 -1 2 C-0.67 1.34 -0.34 0.68 0 0 Z " fill="#C8C8C8" transform="translate(402,450)"/>
<path d="M0 0 C0.66 0.66 1.32 1.32 2 2 C1.01 2 0.02 2 -1 2 C-0.67 1.34 -0.34 0.68 0 0 Z " fill="#C9C9C9" transform="translate(312,450)"/>
<path d="M0 0 C0.99 0.33 1.98 0.66 3 1 C2.01 1.33 1.02 1.66 0 2 C0 1.34 0 0.68 0 0 Z " fill="#C2C2C2" transform="translate(716,361)"/>
<path d="M0 0 C0.99 0.495 0.99 0.495 2 1 C2 1.66 2 2.32 2 3 C1.34 3 0.68 3 0 3 C0 2.01 0 1.02 0 0 Z " fill="#C1C1C1" transform="translate(42,360)"/>
<path d="M0 0 C0.99 0.33 1.98 0.66 3 1 C2.01 1.33 1.02 1.66 0 2 C0 1.34 0 0.68 0 0 Z " fill="#C2C2C2" transform="translate(716,316)"/>
<path d="M0 0 C0.99 0.33 1.98 0.66 3 1 C2.01 1.33 1.02 1.66 0 2 C0 1.34 0 0.68 0 0 Z " fill="#C7C7C7" transform="translate(671,316)"/>
<path d="M0 0 C0.66 0 1.32 0 2 0 C1.67 0.99 1.34 1.98 1 3 C0.67 2.01 0.34 1.02 0 0 Z " fill="#C1C1C1" transform="translate(87,271)"/>
<path d="M0 0 C0.66 0 1.32 0 2 0 C1.67 0.99 1.34 1.98 1 3 C0.67 2.01 0.34 1.02 0 0 Z " fill="#C9C9C9" transform="translate(42,271)"/>
<path d="M0 0 C0.66 0 1.32 0 2 0 C1.67 0.99 1.34 1.98 1 3 C0.67 2.01 0.34 1.02 0 0 Z " fill="#C1C1C1" transform="translate(716,271)"/>
<path d="M0 0 C0.66 0 1.32 0 2 0 C1.67 0.99 1.34 1.98 1 3 C0.67 2.01 0.34 1.02 0 0 Z " fill="#C7C7C7" transform="translate(42,226)"/>
<path d="M0 0 C0.66 0 1.32 0 2 0 C1.67 0.99 1.34 1.98 1 3 C0.67 2.01 0.34 1.02 0 0 Z " fill="#C5C5C5" transform="translate(87,226)"/>
<path d="M0 0 C0.99 0.495 0.99 0.495 2 1 C2 1.66 2 2.32 2 3 C1.34 3 0.68 3 0 3 C0 2.01 0 1.02 0 0 Z " fill="#C9C9C9" transform="translate(132,136)"/>
<path d="M0 0 C0.99 0.495 0.99 0.495 2 1 C2 1.66 2 2.32 2 3 C1.34 3 0.68 3 0 3 C0 2.01 0 1.02 0 0 Z " fill="#C8C8C8" transform="translate(42,91)"/>
<path d="M0 0 C0.99 0.495 0.99 0.495 2 1 C2 1.66 2 2.32 2 3 C1.34 3 0.68 3 0 3 C0 2.01 0 1.02 0 0 Z " fill="#CCCCCC" transform="translate(132,91)"/>
<path d="M0 0 C0.99 0.495 0.99 0.495 2 1 C2 1.66 2 2.32 2 3 C1.34 3 0.68 3 0 3 C0 2.01 0 1.02 0 0 Z " fill="#CACACA" transform="translate(87,91)"/>
<path d="M0 0 C0.99 0.33 1.98 0.66 3 1 C2.01 1.33 1.02 1.66 0 2 C0 1.34 0 0.68 0 0 Z " fill="#C8C8C8" transform="translate(536,47)"/>
<path d="M0 0 C0.99 0.33 1.98 0.66 3 1 C2.01 1.33 1.02 1.66 0 2 C0 1.34 0 0.68 0 0 Z " fill="#C2C2C2" transform="translate(716,47)"/>
<path d="M0 0 C0.99 0.33 1.98 0.66 3 1 C2.01 1.33 1.02 1.66 0 2 C0 1.34 0 0.68 0 0 Z " fill="#C1C1C1" transform="translate(671,47)"/>
<path d="M0 0 C0.99 0.33 1.98 0.66 3 1 C2.01 1.33 1.02 1.66 0 2 C0 1.34 0 0.68 0 0 Z " fill="#C7C7C7" transform="translate(626,47)"/>
<path d="M0 0 C0.99 0.33 1.98 0.66 3 1 C2.01 1.33 1.02 1.66 0 2 C0 1.34 0 0.68 0 0 Z " fill="#C7C7C7" transform="translate(581,47)"/>
<path d="M0 0 C0.99 0.33 1.98 0.66 3 1 C2.01 1.33 1.02 1.66 0 2 C0 1.34 0 0.68 0 0 Z " fill="#C8C8C8" transform="translate(491,47)"/>
<path d="M0 0 C0.99 0 1.98 0 3 0 C3 0.66 3 1.32 3 2 C2.01 1.67 1.02 1.34 0 1 C0 0.67 0 0.34 0 0 Z " fill="#CACACA" transform="translate(266,47)"/>
<path d="M0 0 C0.99 0 1.98 0 3 0 C3 0.66 3 1.32 3 2 C2.01 1.67 1.02 1.34 0 1 C0 0.67 0 0.34 0 0 Z " fill="#CCCCCC" transform="translate(221,47)"/>
<path d="M0 0 C0.99 0 1.98 0 3 0 C3 0.66 3 1.32 3 2 C2.01 1.67 1.02 1.34 0 1 C0 0.67 0 0.34 0 0 Z " fill="#C4C4C4" transform="translate(176,47)"/>
<path d="M0 0 C0.99 0 1.98 0 3 0 C3 0.66 3 1.32 3 2 C2.01 1.67 1.02 1.34 0 1 C0 0.67 0 0.34 0 0 Z " fill="#C2C2C2" transform="translate(131,47)"/>
<path d="M0 0 C0.66 0 1.32 0 2 0 C2 0.66 2 1.32 2 2 C1.34 2 0.68 2 0 2 C0 1.34 0 0.68 0 0 Z " fill="#C1C1C1" transform="translate(671,585)"/>
<path d="M0 0 C0.66 0 1.32 0 2 0 C2 0.66 2 1.32 2 2 C1.34 2 0.68 2 0 2 C0 1.34 0 0.68 0 0 Z " fill="#C2C2C2" transform="translate(87,361)"/>
<path d="M0 0 C0.66 0 1.32 0 2 0 C2 0.66 2 1.32 2 2 C1.34 2 0.68 2 0 2 C0 1.34 0 0.68 0 0 Z " fill="#C1C1C1" transform="translate(87,316)"/>
<path d="M0 0 C0.66 0 1.32 0 2 0 C2 0.66 2 1.32 2 2 C1.34 2 0.68 2 0 2 C0 1.34 0 0.68 0 0 Z " fill="#C2C2C2" transform="translate(87,47)"/>
<path d="M0 0 C0.66 0 1.32 0 2 0 C2 0.66 2 1.32 2 2 C1.34 2 0.68 2 0 2 C0 1.34 0 0.68 0 0 Z " fill="#C2C2C2" transform="translate(42,47)"/>
</svg>
