<svg xmlns="http://www.w3.org/2000/svg" width="92" height="92" viewBox="0 0 92 92">
    <g transform="translate(13.715 15.512)">
        <path fill="#45536d"
            d="M32.285 60.977c17.782 0 32.286-1.969 32.286-4.383s-14.5-4.383-32.286-4.383S0 54.18 0 56.594s14.5 4.383 32.285 4.383" />
        <path fill="#ffd112"
            d="M20.858 45.237c-9.213 0-16.683 1.614-16.683 3.6v5.125c0 1.99 7.469 3.6 16.683 3.6s16.683-1.614 16.683-3.6v-5.125c0-1.991-7.469-3.6-16.683-3.6" />
        <path fill="#fff"
            d="M4.237 48.53a.845.845 0 0 0-.062.311v5.125a1.269 1.269 0 0 0 .578.943v-4.367a15.987 15.987 0 0 0 5.278 1.228l-4.413-3.591Z" />
        <path fill="#f2a500"
            d="M20.859 45.505c-2.157 0-4.321.086-6.469.282a44.052 44.052 0 0 0-5.271.767c-.677.146-1.353.316-2.012.527a10.056 10.056 0 0 0-1.5.6 2.608 2.608 0 0 0-1.1.9l.109-.013 5.344 1.723.794 1.611a43.41 43.41 0 0 0 5.451 1.13c1.207.669 1.52 3.178-.547 3.389a29.513 29.513 0 0 1-9.315-.957c.252.1.507.187.761.268.659.211 1.336.381 2.012.527a44.1 44.1 0 0 0 5.271.768c2.148.2 4.312.282 6.469.282s4.321-.086 6.469-.282a44.1 44.1 0 0 0 5.271-.768 21.394 21.394 0 0 0 2.012-.527 9.918 9.918 0 0 0 1.5-.6c.389-.2 1.165-.648 1.165-1.165v-5.125c0-.516-.776-.966-1.165-1.165a10.048 10.048 0 0 0-1.5-.6 21.394 21.394 0 0 0-2.012-.527 44.047 44.047 0 0 0-5.271-.767 69.846 69.846 0 0 0-6.469-.282" />
        <path fill="#b33d2f"
            d="M20.858 45.422A58.516 58.516 0 0 0 9.1 46.474c-2.929.633-4.74 1.472-4.74 2.368v5.125c0 .9 1.812 1.736 4.74 2.368a66.26 66.26 0 0 0 23.515 0c2.929-.633 4.74-1.472 4.74-2.368v-5.125c0-.9-1.812-1.736-4.74-2.368a58.517 58.517 0 0 0-11.758-1.052m-11.836.691a66.579 66.579 0 0 1 23.671 0c3.109.672 5.032 1.634 5.032 2.729v5.125c0 1.094-1.923 2.057-5.032 2.729a66.61 66.61 0 0 1-23.671 0c-3.109-.672-5.032-1.635-5.032-2.729v-5.125c0-1.095 1.923-2.057 5.032-2.729" />
        <path fill="#ffd112"
            d="M20.858 52.446c9.189 0 16.683-1.619 16.683-3.6s-7.494-3.6-16.683-3.6-16.683 1.619-16.683 3.6 7.494 3.6 16.683 3.6" />
        <path fill="#fff"
            d="M7.952 46.557c-2.36.622-3.777 1.417-3.777 2.284a.866.866 0 0 0 .092.38l.209.012c-.125-.768.654-1.471 2.664-1.919.271-.266.541-.51.812-.758" />
        <path fill="#f2a500"
            d="M4.951 49.598a4.3 4.3 0 0 0 .658.407 10.013 10.013 0 0 0 1.5.6c.66.211 1.336.381 2.012.527a43.908 43.908 0 0 0 5.271.768c2.148.2 4.312.282 6.469.282s4.321-.086 6.469-.282a43.906 43.906 0 0 0 5.266-.774 21.394 21.394 0 0 0 2.012-.527 10.01 10.01 0 0 0 1.5-.6c.389-.2 1.165-.649 1.165-1.164s-.776-.966-1.165-1.165a9.983 9.983 0 0 0-1.5-.6 21.394 21.394 0 0 0-2.012-.527 40.79 40.79 0 0 0-4.093-.649c.323.094.643.2.959.312a8.164 8.164 0 0 1 1.315.6c.342.2 1.023.648 1.023 1.165s-.681.966-1.023 1.165a8.187 8.187 0 0 1-1.315.6 17.16 17.16 0 0 1-1.767.526 34.288 34.288 0 0 1-4.628.768 57.362 57.362 0 0 1-11.361 0 34.289 34.289 0 0 1-4.628-.768 17.177 17.177 0 0 1-1.767-.526c-.121-.044-.242-.09-.363-.139" />
        <path fill="#b33d2f"
            d="M20.858 45.422A58.516 58.516 0 0 0 9.1 46.474c-2.929.633-4.74 1.472-4.74 2.368s1.812 1.736 4.74 2.368a66.282 66.282 0 0 0 23.515 0c2.929-.633 4.74-1.472 4.74-2.368s-1.812-1.736-4.74-2.368a58.517 58.517 0 0 0-11.758-1.052m-11.836.691a66.579 66.579 0 0 1 23.671 0c3.109.672 5.032 1.634 5.032 2.729s-1.923 2.058-5.032 2.729a66.6 66.6 0 0 1-23.671 0c-3.109-.672-5.032-1.635-5.032-2.729s1.923-2.057 5.032-2.729m11.652 7.362a.185.185 0 0 1 .37 0v3.067a.185.185 0 1 1-.37 0ZM6.139 51.49a.185.185 0 1 1 .37 0v3.136a.185.185 0 1 1-.37 0Zm2.907.847a.185.185 0 0 1 .37 0V55.5a.185.185 0 0 1-.37 0Zm2.907.539a.185.185 0 1 1 .37 0v3.132a.185.185 0 0 1-.37 0Zm2.906.344a.185.185 0 1 1 .37 0v3.1a.185.185 0 1 1-.37 0Zm2.907.193a.185.185 0 1 1 .37 0v3.078a.185.185 0 1 1-.37 0Zm17.441-1.923a.185.185 0 1 1 .37 0v3.136a.185.185 0 1 1-.37 0Zm-2.907.847a.185.185 0 0 1 .37 0V55.5a.185.185 0 1 1-.37 0Zm-2.907.539a.185.185 0 1 1 .37 0v3.132a.185.185 0 0 1-.37 0Zm-2.906.344a.185.185 0 1 1 .37 0v3.1a.185.185 0 1 1-.37 0Zm-2.907.193a.185.185 0 1 1 .37 0v3.078a.185.185 0 1 1-.37 0Z" />
        <path fill="#ffd112"
            d="M24.009 39.42c-9.214 0-16.683 1.614-16.683 3.6v5.125c0 1.991 7.469 3.6 16.683 3.6s16.683-1.614 16.683-3.6V43.02c0-1.991-7.469-3.6-16.683-3.6" />
        <path fill="#fff"
            d="M7.326 46.05v2.1a1.4 1.4 0 0 0 .726 1.055l.231-.05c-.554-.594-.671-1.111-.772-3.105Z" />
        <path fill="#f2a500"
            d="M24.007 39.688c-2.157 0-4.321.086-6.469.282a43.943 43.943 0 0 0-5.271.767c-.677.146-1.353.316-2.012.527a10.041 10.041 0 0 0-1.5.6c-.389.2-1.165.648-1.165 1.165v2.672a30.793 30.793 0 0 0 8.27 1.18c0 .453.667 2.818-1.242 3.011a12.049 12.049 0 0 1-6.212-.775c.128.079.251.145.349.2a9.961 9.961 0 0 0 1.5.6c.659.211 1.336.381 2.012.527a43.943 43.943 0 0 0 5.271.768c2.148.2 4.312.282 6.469.282s4.321-.086 6.469-.282a43.961 43.961 0 0 0 5.271-.768 21.556 21.556 0 0 0 2.012-.527 9.957 9.957 0 0 0 1.5-.6c.389-.2 1.165-.648 1.165-1.164v-5.126c0-.516-.776-.966-1.165-1.165a10.037 10.037 0 0 0-1.5-.6 21.556 21.556 0 0 0-2.012-.527 43.961 43.961 0 0 0-5.271-.767 69.846 69.846 0 0 0-6.469-.282" />
        <path fill="#b33d2f"
            d="M24.009 39.606a58.5 58.5 0 0 0-11.758 1.052c-2.929.633-4.74 1.472-4.74 2.368v5.126c0 .9 1.812 1.735 4.74 2.368a66.274 66.274 0 0 0 23.515 0c2.929-.633 4.741-1.473 4.741-2.368v-5.125c0-.9-1.812-1.735-4.741-2.368a58.5 58.5 0 0 0-11.758-1.052m-11.836.69a66.595 66.595 0 0 1 23.671 0c3.109.672 5.032 1.635 5.032 2.729v5.126c0 1.095-1.923 2.057-5.032 2.729a66.572 66.572 0 0 1-23.671 0c-3.109-.672-5.032-1.634-5.032-2.729v-5.125c0-1.094 1.923-2.058 5.032-2.729" />
        <path fill="#f2a500"
            d="M24.009 46.629c9.188 0 16.683-1.619 16.683-3.6s-7.494-3.6-16.683-3.6-16.683 1.619-16.683 3.6 7.494 3.6 16.683 3.6" />
        <path fill="#b33d2f"
            d="M24.009 39.606a58.5 58.5 0 0 0-11.758 1.052c-2.929.633-4.74 1.472-4.74 2.368s1.812 1.736 4.74 2.368a66.267 66.267 0 0 0 23.515 0c2.929-.633 4.741-1.472 4.741-2.368s-1.812-1.735-4.741-2.368a58.5 58.5 0 0 0-11.758-1.052m-11.836.69a66.595 66.595 0 0 1 23.671 0c3.109.672 5.032 1.635 5.032 2.729s-1.923 2.057-5.032 2.729a66.587 66.587 0 0 1-23.671 0c-3.109-.672-5.032-1.634-5.032-2.729s1.923-2.058 5.032-2.729m11.652 7.362a.185.185 0 1 1 .37 0v3.067a.185.185 0 1 1-.37 0ZM9.29 45.673a.185.185 0 0 1 .37 0v3.136a.185.185 0 1 1-.37 0Zm2.907.847a.185.185 0 1 1 .37 0v3.164a.185.185 0 1 1-.37 0Zm2.907.538a.185.185 0 0 1 .37 0v3.132a.185.185 0 0 1-.37 0Zm2.907.344a.185.185 0 0 1 .37 0v3.1a.185.185 0 1 1-.37 0Zm2.907.194a.185.185 0 1 1 .37 0v3.078a.185.185 0 1 1-.37 0Zm17.44-1.923a.185.185 0 0 1 .37 0v3.137a.185.185 0 0 1-.37 0Zm-2.907.847a.185.185 0 0 1 .37 0v3.164a.185.185 0 1 1-.37 0Zm-2.907.538a.185.185 0 0 1 .37 0v3.132a.185.185 0 0 1-.37 0Zm-2.907.344a.185.185 0 0 1 .37 0v3.1a.185.185 0 1 1-.37 0Zm-2.907.194a.185.185 0 1 1 .37 0v3.078a.185.185 0 0 1-.37 0Z" />
        <path fill="#ffd112"
            d="M17.147 33.467c-9.214 0-16.683 1.614-16.683 3.6v5.125c0 1.99 7.469 3.6 16.683 3.6s16.683-1.615 16.683-3.6v-5.125c0-1.991-7.469-3.6-16.683-3.6" />
        <path fill="#fff"
            d="M2.766 35.244c-1.462.536-2.3 1.161-2.3 1.828v5.125a1.312 1.312 0 0 0 .629.984v-4.2a35.2 35.2 0 0 0 13.509 1.843Z" />
        <path fill="#f2a500"
            d="M15.604 39.329h6.765v5.317l-7.946-.591c.767-.21 1.244-.756 1.18-1.932Z" />
        <path fill="#f2a500"
            d="M17.146 33.735c-2.157 0-4.321.086-6.469.282a44.069 44.069 0 0 0-5.271.768 21.7 21.7 0 0 0-2.012.526 10.04 10.04 0 0 0-1.5.6c-.389.2-1.165.648-1.165 1.165v.572a6.947 6.947 0 0 1 .958-.375c.445-.142.9-.257 1.359-.356a29.71 29.71 0 0 1 3.559-.518c1.451-.133 2.912-.191 4.368-.191s2.918.058 4.369.191a29.712 29.712 0 0 1 3.559.518c.457.1.913.214 1.359.356a6.758 6.758 0 0 1 1.011.4c.263.134.787.438.787.786v3.461c0 .348-.524.652-.787.786a6.745 6.745 0 0 1-1.011.4c-.445.142-.9.257-1.359.356a29.762 29.762 0 0 1-3.559.518c-1.451.133-2.912.191-4.369.191s-2.918-.058-4.368-.191a29.761 29.761 0 0 1-3.559-.518 14.83 14.83 0 0 1-1.359-.356 6.87 6.87 0 0 1-.463-.161 4.261 4.261 0 0 0 .671.417 10 10 0 0 0 1.5.6c.66.211 1.335.381 2.012.527a44 44 0 0 0 5.271.768c2.148.2 4.312.282 6.469.282s4.321-.086 6.469-.282a44 44 0 0 0 5.271-.768 21.394 21.394 0 0 0 2.012-.527 10 10 0 0 0 1.5-.6c.389-.2 1.165-.648 1.165-1.164v-5.125c0-.516-.776-.966-1.165-1.165a10.042 10.042 0 0 0-1.5-.6 21.47 21.47 0 0 0-2.012-.526 44.077 44.077 0 0 0-5.271-.768 69.846 69.846 0 0 0-6.469-.282" />
        <path fill="#b33d2f"
            d="M17.147 33.652a58.526 58.526 0 0 0-11.758 1.051C2.46 35.336.648 36.175.648 37.072v5.125c0 .9 1.812 1.735 4.741 2.368a66.244 66.244 0 0 0 23.515 0c2.929-.633 4.74-1.472 4.74-2.368v-5.123c0-.9-1.812-1.736-4.74-2.369a58.527 58.527 0 0 0-11.758-1.051m-11.836.69a66.609 66.609 0 0 1 23.671 0c3.109.672 5.032 1.635 5.032 2.73v5.125c0 1.1-1.923 2.057-5.032 2.729a66.586 66.586 0 0 1-23.671 0C2.201 44.256.278 43.294.278 42.199v-5.125c0-1.095 1.923-2.058 5.032-2.73" />
        <path fill="#ffd112"
            d="M17.147 40.677c9.189 0 16.683-1.619 16.683-3.6s-7.494-3.6-16.683-3.6S.464 35.096.464 37.077s7.494 3.6 16.683 3.6" />
        <path fill="#fff"
            d="M6.76 34.251c-3.837.66-6.3 1.678-6.3 2.821a.892.892 0 0 0 .125.441l.237.042c-.226-.919 1.259-2.034 4.681-2.525.368.155.735.411 1.1.566Z" />
        <path fill="#f2a500"
            d="M1.216 37.812a4.238 4.238 0 0 0 .681.425 10.013 10.013 0 0 0 1.5.6c.659.211 1.335.381 2.012.527a44.022 44.022 0 0 0 5.271.767c2.148.2 4.313.282 6.469.282s4.321-.086 6.469-.282a44.028 44.028 0 0 0 5.271-.767 21.394 21.394 0 0 0 2.012-.527 10.013 10.013 0 0 0 1.5-.6c.389-.2 1.165-.648 1.165-1.164s-.776-.966-1.165-1.165a10.028 10.028 0 0 0-1.5-.6c-.66-.21-1.336-.38-2.012-.526a38.866 38.866 0 0 0-3.33-.558c.317.082.633.172.944.271a9.223 9.223 0 0 1 1.387.552c.36.184 1.078.6 1.078 1.078s-.718.894-1.078 1.078a9.261 9.261 0 0 1-1.387.551c-.61.2-1.236.352-1.863.488a40.744 40.744 0 0 1-4.879.711c-1.989.182-3.992.261-5.989.261s-4-.079-5.989-.261a40.744 40.744 0 0 1-4.879-.711 20.47 20.47 0 0 1-1.688-.433" />
        <path fill="#b33d2f"
            d="M17.147 33.652a58.526 58.526 0 0 0-11.758 1.051C2.46 35.336.648 36.175.648 37.072s1.812 1.736 4.741 2.368a66.282 66.282 0 0 0 23.515 0c2.929-.633 4.74-1.473 4.74-2.368s-1.812-1.736-4.74-2.369a58.527 58.527 0 0 0-11.758-1.051m-11.836.69a66.609 66.609 0 0 1 23.671 0c3.109.672 5.032 1.635 5.032 2.73s-1.923 2.057-5.032 2.729a66.6 66.6 0 0 1-23.671 0C2.201 39.129.278 38.167.278 37.072s1.923-2.058 5.032-2.73m11.652 7.363a.185.185 0 0 1 .37 0v3.067a.185.185 0 0 1-.37 0ZM2.428 39.72a.185.185 0 0 1 .37 0v3.137a.185.185 0 0 1-.37 0Zm2.907.847a.185.185 0 0 1 .37 0v3.163a.185.185 0 1 1-.37 0Zm2.907.538a.185.185 0 1 1 .37 0v3.132a.185.185 0 0 1-.37 0Zm2.907.344a.185.185 0 0 1 .37 0v3.1a.185.185 0 1 1-.37 0Zm2.907.193a.185.185 0 1 1 .37 0v3.079a.185.185 0 1 1-.37 0Zm17.441-1.923a.185.185 0 1 1 .37 0v3.137a.185.185 0 1 1-.37 0Zm-2.907.847a.185.185 0 0 1 .37 0v3.163a.185.185 0 1 1-.37 0Zm-2.907.538a.185.185 0 0 1 .37 0v3.132a.185.185 0 0 1-.37 0Zm-2.907.344a.185.185 0 0 1 .37 0v3.1a.185.185 0 1 1-.37 0Zm-2.907.193a.185.185 0 1 1 .37 0v3.079a.185.185 0 0 1-.37 0Z" />
        <path fill="#ffd112"
            d="M22.375 27.57c-9.214 0-16.683 1.614-16.683 3.6v5.125c0 1.991 7.469 3.6 16.683 3.6s16.683-1.614 16.683-3.6V31.17c0-1.991-7.469-3.6-16.683-3.6" />
        <path fill="#fff"
            d="M5.692 31.293v5.01a1.231 1.231 0 0 0 .537.91v-4.35c3.453 1.8 7.96 2.045 12.72 2.028l-11.8-4.075Z" />
        <path fill="#f2a500"
            d="M20.949 39.894q.7.013 1.424.013c9.214 0 16.683-1.614 16.683-3.6v-5.125c0-1.117-2.351-2.115-6.041-2.776H20.238v7.519a2.554 2.554 0 0 1-2.152 2.719 4.482 4.482 0 0 1 2.863 1.254" />
        <path fill="#f2a500"
            d="M6.309 36.927a3.792 3.792 0 0 0 .816.54 10.006 10.006 0 0 0 1.5.6c.659.211 1.335.381 2.012.527a44.023 44.023 0 0 0 5.271.767c2.148.2 4.312.282 6.469.282s4.321-.086 6.469-.282a44.022 44.022 0 0 0 5.27-.767 21.394 21.394 0 0 0 2.012-.527 10.008 10.008 0 0 0 1.5-.6c.389-.2 1.165-.648 1.165-1.164v-5.125c0-.516-.776-.966-1.165-1.164a8.727 8.727 0 0 0-.982-.421.91.91 0 0 1 .349.625v5.125c0 .516-.776.966-1.165 1.164a9.972 9.972 0 0 1-1.5.6c-.66.211-1.336.381-2.012.527a44.053 44.053 0 0 1-5.271.768c-2.148.2-4.312.282-6.469.282s-4.321-.086-6.469-.282a44.052 44.052 0 0 1-5.271-.768 21.394 21.394 0 0 1-2.012-.527 13.087 13.087 0 0 1-.516-.176" />
        <path fill="#b33d2f"
            d="M22.375 27.758a58.515 58.515 0 0 0-11.758 1.051c-2.929.633-4.74 1.472-4.74 2.368v5.125c0 .9 1.811 1.735 4.74 2.368a66.259 66.259 0 0 0 23.515 0c2.929-.633 4.74-1.472 4.74-2.368v-5.125c0-.9-1.811-1.736-4.74-2.368a58.516 58.516 0 0 0-11.758-1.051m-11.835.69a66.6 66.6 0 0 1 23.671 0c3.109.672 5.032 1.635 5.032 2.729v5.125c0 1.095-1.923 2.057-5.032 2.729a66.59 66.59 0 0 1-23.671 0c-3.109-.672-5.032-1.634-5.032-2.729v-5.125c0-1.095 1.923-2.058 5.032-2.729" />
        <path fill="#ffd112"
            d="M22.375 34.781c9.189 0 16.683-1.619 16.683-3.6s-7.494-3.6-16.683-3.6-16.683 1.619-16.683 3.6 7.494 3.6 16.683 3.6" />
        <path fill="#fff"
            d="M9.64 28.849c-2.462.628-3.948 1.441-3.948 2.328a.814.814 0 0 0 .023.191l.162.053c.259-.839 1.365-1.411 3.3-1.723Z" />
        <path fill="#f2a500"
            d="M6.1 31.569a3 3 0 0 0 1.024.772 10.005 10.005 0 0 0 1.5.6c.659.211 1.336.381 2.012.527a44.06 44.06 0 0 0 5.271.768c2.148.2 4.312.282 6.469.282s4.321-.086 6.469-.282a44.059 44.059 0 0 0 5.27-.768 21.394 21.394 0 0 0 2.012-.527 10.017 10.017 0 0 0 1.5-.6c.389-.2 1.165-.648 1.165-1.164s-.776-.966-1.165-1.165a8.626 8.626 0 0 0-.946-.408.691.691 0 0 1 .141.393c0 .516-.776.966-1.165 1.164a10.016 10.016 0 0 1-1.5.6c-.659.211-1.336.381-2.012.527a44.046 44.046 0 0 1-5.271.768c-2.148.2-4.313.282-6.469.282s-4.321-.086-6.469-.282a44.056 44.056 0 0 1-5.271-.768 21.475 21.475 0 0 1-2.012-.527 14.923 14.923 0 0 1-.551-.188" />
        <path fill="#b33d2f"
            d="M22.375 27.758a58.515 58.515 0 0 0-11.758 1.051c-2.929.633-4.74 1.472-4.74 2.368s1.811 1.735 4.74 2.368a66.271 66.271 0 0 0 23.515 0c2.929-.633 4.74-1.472 4.74-2.368s-1.811-1.736-4.74-2.368a58.516 58.516 0 0 0-11.758-1.051m-11.835.69a66.6 66.6 0 0 1 23.671 0c3.109.672 5.032 1.635 5.032 2.729s-1.923 2.058-5.032 2.729a66.605 66.605 0 0 1-23.671 0c-3.109-.672-5.032-1.635-5.032-2.729s1.923-2.058 5.032-2.729m11.649 7.363a.185.185 0 0 1 .37 0v3.068a.185.185 0 1 1-.37 0ZM7.654 33.826a.185.185 0 1 1 .37 0v3.137a.185.185 0 1 1-.37 0Zm2.907.847a.185.185 0 0 1 .37 0v3.164a.185.185 0 1 1-.37 0Zm2.907.538a.185.185 0 0 1 .37 0v3.132a.185.185 0 0 1-.37 0Zm2.907.344a.185.185 0 1 1 .37 0v3.1a.185.185 0 0 1-.37 0Zm2.907.193a.185.185 0 1 1 .37 0v3.079a.185.185 0 1 1-.37 0Zm17.441-1.923a.185.185 0 1 1 .37 0v3.137a.185.185 0 1 1-.37 0Zm-2.907.847a.185.185 0 0 1 .37 0v3.164a.185.185 0 1 1-.37 0Zm-2.907.538a.185.185 0 0 1 .37 0v3.132a.185.185 0 1 1-.37 0Zm-2.907.344a.185.185 0 1 1 .37 0v3.1a.185.185 0 1 1-.37 0Zm-2.907.193a.185.185 0 0 1 .37 0v3.079a.185.185 0 0 1-.37 0Z" />
        <path fill="#ffd112"
            d="M24.511 20.684c-9.214 0-16.683 1.614-16.683 3.6v5.125c0 1.991 7.469 3.6 16.683 3.6s16.683-1.614 16.683-3.6v-5.125c0-1.991-7.469-3.6-16.683-3.6" />
        <path fill="#fff"
            d="M8.19 23.539a1.087 1.087 0 0 0-.362.75v5.125a1.317 1.317 0 0 0 .637.99v-4.3c6.525 2.6 14.81 2.809 24.4 1.494l.182-.872-16.442-4.264-.082-.007Z" />
        <path fill="#f2a500"
            d="m10.573 31.116.187.061c.659.211 1.335.38 2.012.527a44.041 44.041 0 0 0 5.271.767c2.148.2 4.312.282 6.469.282s4.321-.086 6.469-.282a44.031 44.031 0 0 0 5.271-.767 21.394 21.394 0 0 0 2.012-.527 10 10 0 0 0 1.5-.6c.389-.2 1.165-.648 1.165-1.165v-5.125c0-.516-.776-.966-1.165-1.165a10.005 10.005 0 0 0-1.5-.6 21.705 21.705 0 0 0-2.012-.527 38.564 38.564 0 0 0-3.171-.538 9.474 9.474 0 0 1 1.311.535c.389.2 1.165.648 1.165 1.165v5.125c0 .516-.776.966-1.165 1.165a10 10 0 0 1-1.5.6c-.659.211-1.336.381-2.012.527a44.023 44.023 0 0 1-5.271.768c-2.148.2-4.312.282-6.469.282s-4.321-.086-6.469-.282c-.7-.064-1.4-.139-2.1-.23" />
        <path fill="#b33d2f"
            d="M24.509 20.869a58.517 58.517 0 0 0-11.756 1.054c-2.929.633-4.74 1.472-4.74 2.368v5.125c0 .9 1.811 1.736 4.74 2.369a66.278 66.278 0 0 0 23.515 0c2.929-.633 4.74-1.472 4.74-2.369v-5.125c0-.9-1.812-1.736-4.74-2.368a58.516 58.516 0 0 0-11.758-1.051m-11.835.69a66.6 66.6 0 0 1 23.671 0c3.109.672 5.032 1.635 5.032 2.729v5.125c0 1.095-1.923 2.058-5.032 2.73a66.613 66.613 0 0 1-23.671 0c-3.109-.672-5.032-1.635-5.032-2.73v-5.125c0-1.095 1.923-2.058 5.032-2.729" />
        <path fill="#ffd112"
            d="M24.511 27.893c9.189 0 16.683-1.619 16.683-3.6s-7.494-3.6-16.683-3.6-16.683 1.619-16.683 3.6 7.494 3.6 16.683 3.6" />
        <path fill="#fff"
            d="M24.511 20.684c-9.214 0-16.683 1.614-16.683 3.6a.869.869 0 0 0 .1.394l.172-.053c.121-1.945 7.165-3.091 18.623-3.729v-.185q-1.086-.031-2.213-.032" />
        <path fill="#f2a500"
            d="m9.204 25.424.057.029a10.017 10.017 0 0 0 1.5.6c.659.211 1.336.381 2.012.527a44.045 44.045 0 0 0 5.271.768c2.148.2 4.312.282 6.469.282s4.321-.086 6.469-.282a44.04 44.04 0 0 0 5.271-.768 21.394 21.394 0 0 0 2.012-.527 10.026 10.026 0 0 0 1.5-.6c.389-.2 1.165-.648 1.165-1.165s-.776-.966-1.165-1.165a10.013 10.013 0 0 0-1.5-.6 21.394 21.394 0 0 0-2.012-.527l-.412-.086-3.566 3.422a43.963 43.963 0 0 1-5.271.767c-2.148.2-4.312.282-6.469.282s-4.321-.086-6.469-.282a45.337 45.337 0 0 1-4.859-.681" />
        <path fill="#b33d2f"
            d="M24.509 20.869a58.517 58.517 0 0 0-11.756 1.054c-2.929.633-4.74 1.472-4.74 2.368s1.811 1.735 4.74 2.368a66.267 66.267 0 0 0 23.515 0c2.929-.633 4.74-1.472 4.74-2.368s-1.812-1.736-4.74-2.368a58.516 58.516 0 0 0-11.758-1.051m-11.835.69a66.6 66.6 0 0 1 23.671 0c3.109.672 5.032 1.635 5.032 2.729s-1.923 2.058-5.032 2.729a66.6 66.6 0 0 1-23.671 0c-3.109-.672-5.032-1.634-5.032-2.729s1.923-2.058 5.032-2.729m11.652 7.36a.185.185 0 1 1 .37 0v3.066a.185.185 0 1 1-.37 0ZM9.791 26.937a.185.185 0 0 1 .37 0v3.137a.185.185 0 0 1-.37 0Zm2.907.847a.185.185 0 1 1 .37 0v3.163a.185.185 0 1 1-.37 0Zm2.907.538a.185.185 0 0 1 .37 0v3.132a.185.185 0 0 1-.37 0Zm2.906.344a.185.185 0 1 1 .37 0v3.1a.185.185 0 1 1-.37 0Zm2.907.193a.185.185 0 1 1 .37 0v3.079a.185.185 0 1 1-.37 0Zm17.44-1.923a.185.185 0 1 1 .37 0v3.136a.185.185 0 1 1-.37 0Zm-2.907.847a.185.185 0 1 1 .37 0v3.163a.185.185 0 0 1-.37 0Zm-2.907.538a.185.185 0 0 1 .37 0v3.132a.185.185 0 0 1-.37 0Zm-2.907.344a.185.185 0 1 1 .37 0v3.1a.185.185 0 1 1-.37 0Zm-2.907.193a.185.185 0 1 1 .37 0v3.079a.185.185 0 1 1-.37 0Z" />
        <path fill="#cd900f"
            d="m49.328 29.31 2.8.752a13.402 13.402 0 1 1-6.937 25.89l-2.8-.751a13.402 13.402 0 1 1 6.937-25.89" />
        <path fill="#a87300"
            d="M33.052 45.171a13.145 13.145 0 0 0 9.408 9.77l2.8.752a13.134 13.134 0 0 0 15.11-18.632 13.136 13.136 0 0 1-16.207 15.6l-2.805-.752a13.092 13.092 0 0 1-7.975-6.119q-.177-.307-.336-.621" />
        <path fill="#b33d2f"
            d="m49.376 29.132 2.8.751a13.586 13.586 0 0 1 3.277 24.889 13.542 13.542 0 0 1-10.309 1.357l-2.8-.751a13.543 13.543 0 0 1-8.249-6.33 13.543 13.543 0 0 1-1.364-10.284l.006-.024a13.545 13.545 0 0 1 6.33-8.25 13.543 13.543 0 0 1 10.284-1.364Zm2.709 1.108-2.781-.745-.024-.006a13.176 13.176 0 0 0-10.029 1.319 13.175 13.175 0 0 0-6.158 8.024 13.178 13.178 0 0 0 1.32 10.029 13.176 13.176 0 0 0 8.025 6.158l2.8.752a13.175 13.175 0 0 0 10.03-1.32 13.217 13.217 0 0 0-3.187-24.213" />
        <path fill="#b33d2f"
            d="M47.191 42.802a.185.185 0 1 1 .1-.357l13.476 3.611a.185.185 0 0 1-.1.357ZM44.259 30.14a.185.185 0 1 1 .1-.357l12.068 3.234a.185.185 0 0 1-.1.357Zm2.049 3.518 13.261 3.553a.185.185 0 0 0 .1-.357l-13.261-3.553a.185.185 0 0 0-.1.357m1.042 3.248a.185.185 0 1 1 .1-.357l13.454 3.6a.185.185 0 1 1-.1.357Zm.259 3.039 13.479 3.612a.185.185 0 1 0 .1-.356l-13.479-3.612a.185.185 0 1 0-.1.357m-9.288 12.356a.185.185 0 0 1 .1-.357l12.068 3.234a.185.185 0 0 1-.1.357Zm3.533-2.022 13.261 3.554a.185.185 0 1 0 .1-.357l-13.261-3.553a.185.185 0 0 0-.1.357m2.526-2.292a.185.185 0 0 1 .1-.357l13.454 3.605a.185.185 0 0 1-.1.357Zm1.744-2.5 13.479 3.612a.185.185 0 1 0 .1-.357l-13.48-3.612a.185.185 0 0 0-.1.357" />
        <path fill="#ffd112"
            d="M49.328 29.31a13.4 13.4 0 1 1-16.413 9.476 13.4 13.4 0 0 1 16.413-9.476" />
        <path fill="#fff"
            d="M49.328 29.31a13.338 13.338 0 0 1 6.52 4.009q.062.145.121.292a13.7 13.7 0 0 0-23.366 9.714q0 .641.058 1.268a13.405 13.405 0 0 1 16.667-15.282" />
        <path fill="#f2a500"
            d="m33.213 38.71-.04.145a13.132 13.132 0 1 0 23.141-4.551 12.136 12.136 0 1 1-23.1 4.406" />
        <path fill="#b33d2f"
            d="m49.351 29.125.024.007a13.544 13.544 0 0 1 8.249 6.33 13.545 13.545 0 0 1 1.365 10.285l-.007.024a13.545 13.545 0 0 1-6.33 8.249 13.545 13.545 0 0 1-10.285 1.364l-.024-.007a13.541 13.541 0 0 1-8.249-6.33 13.542 13.542 0 0 1-1.364-10.284l.006-.024a13.587 13.587 0 0 1 16.614-9.614m7.955 6.521a13.176 13.176 0 0 0-8.021-6.156 13.215 13.215 0 0 0-16.186 9.341 13.177 13.177 0 0 0 1.319 10.029 13.175 13.175 0 0 0 8.023 6.158 13.175 13.175 0 0 0 10.029-1.32 13.176 13.176 0 0 0 6.157-8.024 13.175 13.175 0 0 0-1.32-10.029Z" />
        <path fill="#ffd112"
            d="M48.578 32.114a10.5 10.5 0 1 1-12.857 7.423 10.5 10.5 0 0 1 12.857-7.423" />
        <path fill="#fff"
            d="M55.067 37.213a10.5 10.5 0 0 1-5.2 14.744l-.277-.087c5.395-3.164 7.707-7.81 5.2-14.772Z" />
        <path fill="#f2a500"
            d="M48.509 32.373a10.233 10.233 0 0 0-12.706 11.759 10.5 10.5 0 0 1 18.714-7.329 10.194 10.194 0 0 0-6.008-4.429" />
        <path fill="#f2a500"
            d="M48.426 52.436a10.5 10.5 0 0 1-10.768-16.734 12.142 12.142 0 0 1 10.768 16.734" />
        <path fill="#b33d2f"
            d="M48.626 31.937a10.65 10.65 0 0 1 6.486 4.977 10.682 10.682 0 0 1-11.99 15.666l-.024-.006a10.648 10.648 0 0 1-6.486-4.977 10.648 10.648 0 0 1-1.074-8.081l.007-.024a10.645 10.645 0 0 1 4.977-6.486 10.646 10.646 0 0 1 8.105-1.068m6.167 5.161a10.315 10.315 0 0 0-14.089-3.775 10.282 10.282 0 0 0-4.8 6.261 10.281 10.281 0 0 0 1.03 7.826 10.279 10.279 0 0 0 6.26 4.8 10.313 10.313 0 0 0 11.6-15.118Z" />
        <path fill="#b33d2f"
            d="m44.31 45.676.854-3.185a4.732 4.732 0 0 1-2.009-1.918 3.194 3.194 0 0 1-.19-2.3 2.945 2.945 0 0 1 1.411-1.868 3.639 3.639 0 0 1 2.518-.373l.2-.749 1.2.321-.2.749a3.841 3.841 0 0 1 1.874 1.388 3.223 3.223 0 0 1 .5 2.091l-2.16-.311a1.639 1.639 0 0 0-.67-1.484l-.8 2.972a5.687 5.687 0 0 1 2.363 2 2.973 2.973 0 0 1 .179 2.213 3.33 3.33 0 0 1-1.527 2.077 4.35 4.35 0 0 1-2.835.5l-.381 1.42-1.2-.321.376-1.4a4.109 4.109 0 0 1-2.046-1.59 4.013 4.013 0 0 1-.519-2.608l2.206.34a2.507 2.507 0 0 0 .214 1.18 2.3 2.3 0 0 0 .634.853m2.14-7.987a1.6 1.6 0 0 0-.906.32 1.331 1.331 0 0 0-.5.731 1.272 1.272 0 0 0 .056.817 1.838 1.838 0 0 0 .641.768Zm-.976 8.433a1.884 1.884 0 0 0 1.156-.275 1.457 1.457 0 0 0 .657-.889 1.313 1.313 0 0 0-.094-.964 2.2 2.2 0 0 0-.92-.854Z" />
        <path fill="#9c2517"
            d="m44.31 45.677.854-3.185a4.735 4.735 0 0 1-2.009-1.917 3.406 3.406 0 0 1 .2-3.2 12.088 12.088 0 0 1 1.733 1.237 1.3 1.3 0 0 0-.042.132 1.273 1.273 0 0 0 .056.817 1.84 1.84 0 0 0 .641.768l.234-.874a12.127 12.127 0 0 1 .974 1.159l-.108.4q.342.188.638.376.115.184.224.373a12.124 12.124 0 0 1 1.463 4.077 3.25 3.25 0 0 1-1.31 1.468 4.353 4.353 0 0 1-2.835.5l-.381 1.419-1.2-.321.376-1.4a4.111 4.111 0 0 1-2.046-1.59 4.013 4.013 0 0 1-.519-2.608l2.206.34a2.506 2.506 0 0 0 .214 1.18 2.307 2.307 0 0 0 .634.853m1.165.446a1.886 1.886 0 0 0 1.156-.276 1.456 1.456 0 0 0 .657-.889 1.313 1.313 0 0 0-.094-.964 2.2 2.2 0 0 0-.92-.854Z" />
        <path fill="#cd900f"
            d="M23.176.185h2.9a13.4 13.4 0 0 1 0 26.8h-2.9a13.4 13.4 0 0 1 0-26.8" />
        <path fill="#a87300"
            d="M11.428 19.464a13.133 13.133 0 0 0 11.748 7.258h2.9A13.134 13.134 0 0 0 36.428 5.505a13.138 13.138 0 0 1-11.748 19.01h-2.9a13.111 13.111 0 0 1-10.352-5.051" />
        <path fill="#b33d2f"
            d="M23.175-.001h2.9a13.586 13.586 0 0 1 0 27.173h-2.9a13.586 13.586 0 0 1 0-27.173m2.9.37h-2.9a13.217 13.217 0 0 0 0 26.433h2.9a13.217 13.217 0 0 0 0-26.433" />
        <path fill="#b33d2f"
            d="M24.603 13.772a.185.185 0 1 1 0-.37h13.951a.185.185 0 1 1 0 .37ZM18.494 2.301a.185.185 0 1 1 0-.37h12.493a.185.185 0 0 1 0 .37Zm2.89 2.868a.185.185 0 0 1 0-.37h13.729a.185.185 0 0 1 0 .37Zm1.847 2.868a.185.185 0 0 1 0-.37H37.16a.185.185 0 0 1 0 .37Zm1.037 2.868a.185.185 0 1 1 0-.37h13.955a.185.185 0 0 1 0 .37Zm-5.774 14.339a.185.185 0 0 1 0-.37h12.493a.185.185 0 0 1 0 .37Zm2.889-2.868a.185.185 0 0 1 0-.37h13.729a.185.185 0 0 1 0 .37Zm1.847-2.868a.185.185 0 0 1 0-.37h13.929a.185.185 0 1 1 0 .37Zm1.037-2.868a.185.185 0 1 1 0-.37h13.955a.185.185 0 0 1 0 .37Z" />
        <path fill="#ffd112"
            d="M23.176 26.988a13.4 13.4 0 1 0-13.4-13.4 13.427 13.427 0 0 0 13.4 13.4" />
        <path fill="#fff"
            d="M23.178.185a13.34 13.34 0 0 1 6.927 1.927l-.045.188c-9.619-4.431-17.6 1.188-19.864 8.8l-.15-.193A13.406 13.406 0 0 1 23.179.188" />
        <path fill="#f2a500"
            d="M30.809 2.897a13.132 13.132 0 1 1-20.639 8.871 11.961 11.961 0 0 0 5.324 9.333l.085.086a10.747 10.747 0 0 0 18.346-7.6q0-.2-.007-.4a11.986 11.986 0 0 0-3.108-10.29" />
        <path fill="#b33d2f"
            d="M23.175 0a13.587 13.587 0 1 1-9.607 3.98A13.544 13.544 0 0 1 23.175 0m9.346 4.241a13.217 13.217 0 1 0 3.871 9.345 13.175 13.175 0 0 0-3.871-9.345" />
        <path fill="#ffd112"
            d="M23.176 24.085a10.5 10.5 0 1 0-10.5-10.5 10.518 10.518 0 0 0 10.5 10.5" />
        <path fill="#fff"
            d="M32.947 9.731a10.5 10.5 0 0 1-17.5 10.957l.053-.216c8.064 7.6 20.447 0 17.208-10.833Z" />
        <path fill="#f2a500"
            d="M23.177 3.357a10.228 10.228 0 0 1 9.006 5.375 10.231 10.231 0 0 0-17.37 10.747 10.231 10.231 0 0 1 8.364-16.121" />
        <path fill="#b33d2f"
            d="M23.175 2.904a10.682 10.682 0 1 1-7.554 3.129 10.65 10.65 0 0 1 7.554-3.129m7.292 3.39a10.313 10.313 0 1 0 3.02 7.292 10.281 10.281 0 0 0-3.02-7.292" />
        <path fill="#b33d2f"
            d="M22.566 17.293v-3.3a4.736 4.736 0 0 1-2.437-1.332 3.193 3.193 0 0 1-.777-2.169 2.946 2.946 0 0 1 .879-2.169 3.644 3.644 0 0 1 2.335-1.012v-.775h1.24v.775a3.84 3.84 0 0 1 2.169.856 3.224 3.224 0 0 1 1.028 1.89l-2.167.258a1.639 1.639 0 0 0-1.031-1.26v3.077a5.685 5.685 0 0 1 2.8 1.324 2.975 2.975 0 0 1 .745 2.091 3.329 3.329 0 0 1-.938 2.4 4.351 4.351 0 0 1-2.609 1.217v1.47h-1.24v-1.453a4.108 4.108 0 0 1-2.388-1.007 4.013 4.013 0 0 1-1.176-2.385l2.219-.242a2.505 2.505 0 0 0 .512 1.085 2.305 2.305 0 0 0 .833.659m0-8.269a1.6 1.6 0 0 0-.792.544 1.332 1.332 0 0 0-.291.834 1.275 1.275 0 0 0 .265.775 1.841 1.841 0 0 0 .818.576Zm1.24 8.4a1.884 1.884 0 0 0 1.045-.565 1.456 1.456 0 0 0 .4-1.028 1.315 1.315 0 0 0-.341-.907 2.194 2.194 0 0 0-1.109-.587Z" />
        <path fill="#fff"
            d="M18.538 2.115c.223.386-.2 1.05-.95 1.482s-1.535.468-1.758.082.2-1.05.95-1.482 1.535-.469 1.759-.082" />
        <path fill="#cd900f"
            d="M31.354 33.374h2.9a13.4 13.4 0 1 1 0 26.8h-2.9a13.4 13.4 0 0 1 0-26.8" />
        <path fill="#a87300"
            d="M34.259 59.908a13.135 13.135 0 0 0 11.112-20.136 13.141 13.141 0 0 1-12.59 16.881h-2.9a13.124 13.124 0 0 1-11.113-6.131 13.138 13.138 0 0 0 12.59 9.386Z" />
        <path fill="#b33d2f"
            d="M31.355 33.189h2.9a13.586 13.586 0 0 1 0 27.173h-2.9a13.586 13.586 0 0 1 0-27.173m2.9.37h-2.9a13.217 13.217 0 0 0 0 26.433h2.9a13.217 13.217 0 0 0 0-26.433" />
        <path fill="#b33d2f"
            d="M32.783 46.96a.185.185 0 0 1 0-.37h13.951a.185.185 0 1 1 0 .37Zm-6.109-11.471a.185.185 0 1 1 0-.37h12.493a.185.185 0 1 1 0 .37Zm2.889 2.868a.185.185 0 0 1 0-.37h13.729a.185.185 0 1 1 0 .37Zm1.847 2.868a.185.185 0 1 1 0-.37h13.929a.185.185 0 0 1 0 .37Zm1.037 2.867a.185.185 0 1 1 0-.369h13.955a.185.185 0 1 1 0 .369Zm-5.773 14.339a.185.185 0 0 1 0-.37h12.493a.185.185 0 0 1 0 .37Zm2.89-2.868a.185.185 0 0 1 0-.37h13.729a.185.185 0 0 1 0 .37Zm1.847-2.868a.185.185 0 1 1 0-.37H45.34a.185.185 0 0 1 0 .37Zm1.037-2.868a.185.185 0 0 1 0-.37h13.955a.185.185 0 1 1 0 .37Z" />
        <path fill="#ffd112"
            d="M31.354 60.181a13.4 13.4 0 1 0-13.4-13.4 13.427 13.427 0 0 0 13.4 13.4" />
        <path fill="#fff"
            d="M31.354 33.374a13.408 13.408 0 0 1 3.917.582l.116.23c-8.851-1.166-14.388 2.529-17.071 10.412l-.16-.16a13.405 13.405 0 0 1 13.2-11.063" />
        <path fill="#f2a500"
            d="M36.149 34.544a13.131 13.131 0 1 1-17.808 10.447 11.495 11.495 0 1 0 17.808-10.447" />
        <path fill="#b33d2f"
            d="M31.356 33.189a13.587 13.587 0 1 1-9.607 3.98 13.543 13.543 0 0 1 9.607-3.98m9.346 4.241a13.216 13.216 0 1 0 3.871 9.345 13.175 13.175 0 0 0-3.871-9.345" />
        <path fill="#ffd112"
            d="M31.356 57.273a10.5 10.5 0 1 0-10.5-10.5 10.518 10.518 0 0 0 10.5 10.5" />
        <path fill="#fff"
            d="M41.402 43.725a10.5 10.5 0 0 1-19.306 8c0-.05-.007-.1-.009-.15a10.5 10.5 0 0 0 19.132-8.055l.184.2" />
        <path fill="#f2a500"
            d="M31.355 36.545a10.213 10.213 0 0 1 8.137 4.031 10.5 10.5 0 0 0-17.593 10.108 10.234 10.234 0 0 1 9.456-14.138" />
        <path fill="#b33d2f"
            d="M31.356 36.093a10.683 10.683 0 1 1-7.554 3.129 10.648 10.648 0 0 1 7.554-3.129m7.292 3.39a10.314 10.314 0 1 0 3.02 7.293 10.282 10.282 0 0 0-3.02-7.293" />
        <path fill="#b33d2f"
            d="M30.743 50.481v-3.3a4.737 4.737 0 0 1-2.437-1.333 3.2 3.2 0 0 1-.778-2.17 2.944 2.944 0 0 1 .88-2.169 3.641 3.641 0 0 1 2.335-1.012v-.775h1.241v.775a3.842 3.842 0 0 1 2.169.856 3.224 3.224 0 0 1 1.028 1.89l-2.166.258a1.639 1.639 0 0 0-1.031-1.26v3.076a5.686 5.686 0 0 1 2.8 1.324 2.974 2.974 0 0 1 .746 2.091 3.33 3.33 0 0 1-.938 2.4 4.353 4.353 0 0 1-2.609 1.217v1.47h-1.241v-1.453a4.107 4.107 0 0 1-2.388-1.007 4.015 4.015 0 0 1-1.176-2.385l2.219-.242a2.508 2.508 0 0 0 .513 1.084 2.3 2.3 0 0 0 .833.66m0-8.268a1.6 1.6 0 0 0-.792.543 1.333 1.333 0 0 0-.291.835 1.277 1.277 0 0 0 .265.775 1.842 1.842 0 0 0 .818.576Zm1.241 8.4a1.883 1.883 0 0 0 1.045-.565 1.456 1.456 0 0 0 .4-1.028 1.314 1.314 0 0 0-.341-.907 2.2 2.2 0 0 0-1.109-.587Z" />
        <path fill="#fff"
            d="M26.383 35.438c.206.357-.2.976-.9 1.381s-1.438.444-1.645.087.2-.976.9-1.381 1.438-.444 1.645-.086" />
        <path fill="#62b5a4"
            d="M53.578 19.812a14.145 14.145 0 0 1-1.08 1.11 13.635 13.635 0 0 1-6.35 3.33c-.08-.07-.17-.14-.25-.2-.09-.08-.18-.15-.27-.23a13.313 13.313 0 0 1-2.37-2.67 3.031 3.031 0 0 1-.24-.38A13.14 13.14 0 0 1 52.436.822l.52.49a.01.01 0 0 0 .01.01 13.673 13.673 0 0 1 2.46 3.48.031.031 0 0 0 .01.02 13.8 13.8 0 0 1-1.86 14.99" />
        <path fill="#238c77"
            d="M45.745 24.082A13.353 13.353 0 0 0 56.298 8.676c.215 2.738-1.693 8.325-5.649 10.059s-6.947.18-8.682-3.777a7.816 7.816 0 0 1-.648-2.758 13.367 13.367 0 0 0 4.426 11.887Z" />
        <path fill="#fff"
            d="m55.728 5.882-.01.49a12.518 12.518 0 0 0-3.85-4.92c-5.56.89-8.66 4.48-10.36 9.63a1.555 1.555 0 0 0-.08.23l-.11-.4c.04-.15.07-.32.12-.47-.03-.07-.07-.15-.1-.23a13.39 13.39 0 0 1 10.69-9.52 7.912 7.912 0 0 1 .93.62.01.01 0 0 0 .01.01 13.673 13.673 0 0 1 2.46 3.48.031.031 0 0 0 .01.02 6.131 6.131 0 0 1 .29 1.06" />
        <path fill="#b33d2f"
            d="M55.436 4.822a.031.031 0 0 1-.01-.02 13.673 13.673 0 0 0-2.458-3.48.01.01 0 0 1-.01-.01l-.522-.49-.05-.05-.128-.12-.17.03c-.02 0-.04.01-.06.01a13.39 13.39 0 0 0-10.692 9.52 13.213 13.213 0 0 0 .1 7.55 13.371 13.371 0 0 0 3.99 6.13 3.717 3.717 0 0 0 .37.3l.13.1.16-.03c.02 0 .04-.01.06-.01a13.635 13.635 0 0 0 6.35-3.33 14.145 14.145 0 0 0 1.08-1.11 13.8 13.8 0 0 0 1.86-14.99m.95 7.91a13.273 13.273 0 0 1-3.09 6.84 13.382 13.382 0 0 1-1.048 1.08 13.137 13.137 0 0 1-5.73 3.14c-.32-.08-.59-.14-.91-.22a13.064 13.064 0 0 1-3.83-5.92 12.709 12.709 0 0 1-.5-5.11c.01-.11.02-.21.04-.32a11.292 11.292 0 0 1 .19-1.14 12.956 12.956 0 0 1 10.628-10.05 13.137 13.137 0 0 1 3.58 5.34 13.37 13.37 0 0 1 .77 5.2c-.02.39-.05.77-.1 1.16" />
        <path fill="#b33d2f"
            d="M45.325 25.684a.185.185 0 1 1-.356-.1l5.425-20.245a.185.185 0 0 1 .357.1Z" />
        <path fill="#b33d2f"
            d="M48.811 12.461a.184.184 0 0 1-.319.183L45.251 7.03a.184.184 0 1 1 .312-.195l.007.012Zm-.905 3.372a.184.184 0 0 1-.183-.319l5.613-3.241a.184.184 0 0 1 .183.319Zm-.726 2.709a.184.184 0 1 1-.312.195l-.007-.012-3.241-5.614a.184.184 0 1 1 .312-.195l.007.012Z" />
        <path fill="#62b5a4"
            d="M46.536 25.26a10.1 10.1 0 0 0 17.592-4.714 10.1 10.1 0 0 0-17.592 4.714" />
        <path fill="#fff"
            d="M63.51 19.888a10.1 10.1 0 0 0-16 2.57l-.041.5c4.008-6.329 10.822-7.061 16.006-2.851Z" />
        <path fill="#238c77"
            d="M46.823 25.18a9.833 9.833 0 0 0 17.013-4.559c-.088-.1-.178-.2-.269-.293a9.834 9.834 0 0 1-16.272 3.23 9.949 9.949 0 0 0-.475 1.622" />
        <path fill="#b33d2f"
            d="M46.736 25.206a9.916 9.916 0 0 0 17.2-4.608 9.916 9.916 0 0 0-17.2 4.608m4.44 3.3a10.335 10.335 0 0 1-4.776-3.13.185.185 0 0 1-.043-.156 10.285 10.285 0 0 1 17.911-4.8.185.185 0 0 1 .043.156 10.286 10.286 0 0 1-12.008 8.21 10.128 10.128 0 0 1-1.127-.278" />
        <path fill="#b33d2f"
            d="M45.193 25.81a.185.185 0 1 1-.1-.357l15.552-4.167a.185.185 0 0 1 .095.357Z" />
        <path fill="#b33d2f"
            d="M55.354 23.032a.184.184 0 1 1-.319-.185l2.49-4.312a.184.184 0 0 1 .319.185Zm-2.649.71a.184.184 0 1 1 .171-.326l.012.007 4.313 2.49a.184.184 0 0 1-.184.319Zm-2.023.542a.184.184 0 0 1-.319-.185l2.49-4.312a.184.184 0 0 1 .319.185Z" />
        <path fill="#fff"
            d="M49.543 2.915c.281.486-.155 1.264-.974 1.737s-1.711.462-1.992-.025.155-1.264.974-1.737 1.711-.462 1.991.025" />
    </g>
</svg>
