<?xml version="1.0" encoding="utf-8"?>
<!-- Generator: Adobe Illustrator 27.9.0, SVG Export Plug-In . SVG Version: 6.00 Build 0)  -->
<svg version="1.1" id="Layer_1" xmlns="http://www.w3.org/2000/svg" xmlns:xlink="http://www.w3.org/1999/xlink" x="0px" y="0px"
	 viewBox="0 0 74 98.7" style="enable-background:new 0 0 74 98.7;" xml:space="preserve">
<style type="text/css">
	.st0{fill:#9A9A9A;}
</style>
<g id="delete" transform="translate(621.436 -61)">
	<path id="Path_13059" class="st0" d="M-558.4,159.7h-33.5c-0.1,0-0.2-0.1-0.2-0.1c-5.6-0.7-10.8-5.8-10.7-13.2
		c0.1-14.2,0-28.3,0-42.5v-1.3c-2.5,2.5-4.8,4.8-7.1,7.1c-1,1.3-2.8,1.5-4.1,0.5c-0.2-0.1-0.3-0.3-0.5-0.5c-1.5-1.5-2.9-3-4.4-4.4
		c-3.3-3.4-3.3-7.2,0-10.6c1.6-1.6,3.2-3.2,4.9-4.9c-0.9-0.8-1.8-1.6-2.6-2.4c-3.1-2.9-3.4-7.7-0.5-10.9c0.2-0.2,0.3-0.4,0.5-0.5
		c3.3-3.4,6.7-6.7,10.1-10.1c2.8-3.2,7.7-3.4,10.8-0.6c0.2,0.2,0.4,0.4,0.6,0.6c0.8,0.8,1.6,1.6,2.4,2.5c1.4-1.4,2.8-2.7,4-4.1
		c1.3-1.6,3-2.7,5-3.3h2.3c2,0.6,3.8,1.8,5.1,3.5c1,1.1,2.1,2.1,3.2,3.2c1.8,1.8,1.8,3.3,0,5c-6.3,6.4-12.7,12.7-19,19.1
		c-0.2,0.2-0.5,0.5-0.8,0.9h45.4c0,0.3,0.1,0.5,0.1,0.7c0,18.1,0,36.1,0,54.2c-0.1,5.6-4,10.4-9.4,11.8
		C-557.4,159.5-557.9,159.6-558.4,159.7z M-565.2,126.2c0,5.7,0,11.3,0,17c0,2,1.2,3.3,2.9,3.3s2.9-1.3,2.9-3.3c0-3.1,0-6.2,0-9.3
		c0-8.2,0-16.4,0-24.6c0.1-1.1-0.4-2.1-1.2-2.8c-0.8-0.6-2-0.7-2.9-0.2c-1.1,0.5-1.7,1.6-1.6,2.7
		C-565.2,114.8-565.2,120.5-565.2,126.2L-565.2,126.2z M-572.3,126.2c0-5.7,0-11.4,0-17.1c0.1-1.4-0.8-2.7-2.2-3
		c-1.9-0.5-3.6,0.9-3.6,3.1c0,9.6,0,19.2,0,28.8c0,1.8,0,3.5,0,5.3c-0.1,1.2,0.6,2.3,1.7,2.8c1.4,0.7,3.1,0.1,3.8-1.4
		c0.2-0.4,0.3-0.9,0.3-1.4C-572.3,137.7-572.3,131.9-572.3,126.2L-572.3,126.2z M-585.1,126.2c0-3.4,0-6.8,0-10.2c0-2.3,0-4.6,0-6.9
		c0.1-1.4-0.8-2.6-2.2-2.9c-1.9-0.5-3.6,0.9-3.6,3.1c0,11.3,0,22.7,0,34c0,0.3,0,0.6,0.1,1c0.3,1.3,1.4,2.2,2.7,2.2
		c1.3,0,2.5-0.8,2.8-2c0.1-0.5,0.2-1,0.1-1.5C-585.1,137.3-585.1,131.8-585.1,126.2z M-596.7,72.3c-0.9-0.9-1.8-1.8-2.7-2.6
		c-0.7-0.8-1.9-0.8-2.6-0.1c0,0-0.1,0.1-0.1,0.1c-0.4,0.4-0.8,0.8-1.2,1.2c-3,3-6.1,6.1-9.1,9.1c-0.9,0.9-1.1,1.9-0.4,2.7
		c0.9,1,1.9,1.9,2.9,2.8L-596.7,72.3z"/>
	<path id="Path_13060" class="st0" d="M-547.4,86.9H-575c0.1-2,1.5-3.6,3.4-4.1c3.7-1.1,7.4-2.2,11.1-3.3c2.2-0.7,4.5-1.3,6.7-2
		c2.5-0.8,5.2,0.5,6,3c0.2,0.5,0.3,1.1,0.2,1.6C-547.4,83.7-547.4,85.3-547.4,86.9z"/>
</g>
</svg>
