<?xml version="1.0" encoding="utf-8"?>
<!-- Generator: Adobe Illustrator 27.9.0, SVG Export Plug-In . SVG Version: 6.00 Build 0)  -->
<svg version="1.1" id="Layer_1" xmlns="http://www.w3.org/2000/svg" xmlns:xlink="http://www.w3.org/1999/xlink" x="0px" y="0px"
	 viewBox="0 0 200 150" style="enable-background:new 0 0 200 150;" xml:space="preserve">
<style type="text/css">
	.st0{fill:none;}
	.st1{opacity:0.11;enable-background:new    ;}
	.st2{fill:#3F3F3F;}
	.st3{fill:#838383;}
	.st4{fill:#A0A0A0;}
	.st5{fill:#888888;}
	.st6{fill:#646464;}
</style>
<g id="delete" transform="translate(0.083 1.726)">
	<rect id="back" x="-0.1" y="-1.7" class="st0" width="200" height="150"/>
	<path id="design" class="st1" d="M2.7,59.6c0,7.3,6,13.3,13.3,13.3h60.2c7.1,0,12.8,5.7,12.8,12.8c0,7.1-5.7,12.8-12.8,12.8
		c0,0,0,0,0,0H32.5c-4.7,0-8.5,3.8-8.5,8.5c0,4.7,3.8,8.5,8.5,8.5h42.6c4.7,0,8.5,3.8,8.5,8.5s-3.8,8.5-8.5,8.5H36.8
		c-2.9,0-5.3,2.4-5.3,5.3s2.4,5.3,5.3,5.3h92.7c2.9,0,5.3-2.4,5.3-5.3s-2.4-5.3-5.3-5.3h-14.9c-4.7,0-8.5-3.8-8.5-8.5
		s3.8-8.5,8.5-8.5h75.7c4.7,0,8.5-3.8,8.5-8.5s-3.8-8.5-8.5-8.5h-11.7c-7.1,0-12.8-5.7-12.8-12.8c0-7.1,5.7-12.8,12.8-12.8h6.9
		c7.4-0.1,13.3-6.1,13.2-13.4c-0.1-7.3-5.9-13.1-13.2-13.2h-63.9c-5-0.1-9-4.1-9-9.2c0.1-4.9,4-8.9,9-9h26.6c3.4,0,6.4-2.1,7.5-5.3
		c0.3-0.9,0.5-1.8,0.5-2.7c0-4.4-3.6-8-8-8H64c-4.4,0-8,3.6-8,8c0,0.9,0.2,1.8,0.5,2.7c1.1,3.2,4.1,5.3,7.5,5.3h17
		c5,0.1,9,4.1,9,9.2c-0.1,4.9-4,8.9-9,9H16C8.7,46.3,2.7,52.3,2.7,59.6"/>
	<g id="circles">
		<path id="Path_17194" d="M104.4,137.9c-29.6,0-53.6-24-53.6-53.6c0-15.7,6.9-30.7,18.9-40.9c1-0.8,2.4-0.7,3.2,0.3
			c0.8,1,0.7,2.4-0.3,3.2C52,64.4,49.5,95.4,67,116s48.5,23.2,69.1,5.6c2.1-1.8,4-3.7,5.7-5.8c0.8-1,2.3-1.1,3.2-0.3
			c1,0.8,1.1,2.3,0.3,3.2c0,0,0,0,0,0C135.2,131,120.2,137.9,104.4,137.9"/>
		<path id="Path_17195" d="M155.7,86.6c-1.3,0-2.3-1-2.3-2.3l0,0c0-27.1-22-49.1-49.1-49c-4.1,0-8.3,0.5-12.3,1.6
			c-1.2,0.3-2.5-0.4-2.8-1.6c-0.3-1.2,0.4-2.5,1.6-2.8c28.7-7.4,58,9.8,65.4,38.5c1.1,4.4,1.7,8.9,1.7,13.4
			C158,85.6,157,86.6,155.7,86.6L155.7,86.6"/>
	</g>
	<g id="eliments">
		<path id="Path_17196" class="st2" d="M42.1,121c0-1.5-1.2-2.7-2.7-2.7s-2.7,1.2-2.7,2.7s1.2,2.7,2.7,2.7c0,0,0,0,0,0
			C40.8,123.7,42.1,122.5,42.1,121"/>
		<path id="Path_17197" class="st2" d="M62.2,24.7c0-1-0.8-1.8-1.8-1.8s-1.8,0.8-1.8,1.8c0,1,0.8,1.8,1.8,1.8
			C61.4,26.6,62.2,25.7,62.2,24.7C62.2,24.7,62.2,24.7,62.2,24.7"/>
		<path id="Path_17198" class="st2" d="M160.3,144.8c0-1-0.8-1.8-1.8-1.8s-1.8,0.8-1.8,1.8s0.8,1.8,1.8,1.8h0
			C159.5,146.6,160.3,145.8,160.3,144.8C160.3,144.8,160.3,144.8,160.3,144.8"/>
		<path id="Path_17199" class="st3" d="M171.3,121c-3.5,0-6.4-2.9-6.4-6.4s2.9-6.4,6.4-6.4c3.5,0,6.4,2.9,6.4,6.4v0
			C177.7,118.1,174.8,120.9,171.3,121 M171.3,110c-2.5,0-4.6,2.1-4.6,4.6s2.1,4.6,4.6,4.6c2.5,0,4.6-2.1,4.6-4.6
			C175.9,112,173.8,110,171.3,110"/>
		<path id="Path_17200" class="st3" d="M162.1,44c-2.5,0-4.6-2.1-4.6-4.6s2.1-4.6,4.6-4.6c2.5,0,4.6,2.1,4.6,4.6
			C166.7,41.9,164.7,44,162.1,44 M162.1,36.6c-1.5,0-2.7,1.2-2.7,2.7s1.2,2.7,2.7,2.7s2.7-1.2,2.7-2.7c0,0,0,0,0,0
			C164.9,37.9,163.6,36.6,162.1,36.6"/>
		<path id="Path_17201" class="st3" d="M79.6,11c-3,0-5.5-2.5-5.5-5.5S76.6,0,79.6,0s5.5,2.5,5.5,5.5S82.7,11,79.6,11 M79.6,1.8
			c-2,0-3.7,1.6-3.7,3.7c0,2,1.6,3.7,3.7,3.7c2,0,3.7-1.6,3.7-3.7c0,0,0,0,0,0C83.3,3.5,81.7,1.8,79.6,1.8"/>
		<path id="Path_17202" class="st3" d="M4.5,74.2c-2.5,0-4.6-2.1-4.6-4.6S2,65,4.5,65s4.6,2.1,4.6,4.6C9.1,72.2,7,74.2,4.5,74.2
			 M4.5,66.9c-1.5,0-2.7,1.2-2.7,2.7c0,1.5,1.2,2.7,2.7,2.7s2.7-1.2,2.7-2.7C7.2,68.1,6,66.9,4.5,66.9"/>
		<path id="Path_17203" class="st4" d="M123.2,11.4c0,0.5-0.4,0.9-0.9,0.9h-3.2v3.2c0,0.5-0.4,0.9-0.9,0.9c-0.5,0-0.9-0.4-0.9-0.9
			v-3.2H114c-0.5,0-0.9-0.4-0.9-0.9s0.4-0.9,0.9-0.9l0,0h3.2V7.3c0-0.5,0.4-0.9,0.9-0.9c0.5,0,0.9,0.4,0.9,0.9l0,0v3.2h3.2
			C122.8,10.5,123.2,10.9,123.2,11.4"/>
		<path id="Path_17204" class="st4" d="M34.7,38.5c0,0.4-0.3,0.7-0.7,0.7h-2.3v2.3c0,0.4-0.3,0.7-0.7,0.7s-0.7-0.3-0.7-0.7v-2.3
			h-2.3c-0.4,0-0.7-0.3-0.7-0.7s0.3-0.7,0.7-0.7h2.3v-2.3c0-0.4,0.3-0.7,0.7-0.7s0.7,0.3,0.7,0.7l0,0v2.3h2.3
			C34.4,37.8,34.7,38.1,34.7,38.5"/>
		<path id="Path_17205" class="st4" d="M199.7,73.3c0,0.5-0.4,0.8-0.8,0.8H196V77c0,0.5-0.4,0.8-0.8,0.8c-0.5,0-0.8-0.4-0.8-0.8
			v-2.9h-2.9c-0.5,0-0.8-0.4-0.8-0.8s0.4-0.8,0.8-0.8l0,0h2.9v-2.9c0-0.5,0.4-0.8,0.8-0.8c0.5,0,0.8,0.4,0.8,0.8v2.9h2.9
			C199.3,72.5,199.7,72.8,199.7,73.3"/>
	</g>
	<g id="bin">
		<path id="Path_17207" class="st5" d="M127.9,59.3h-46c-3.3,0-6,2.7-6,6v5.5c0,0.8,0.7,1.5,1.5,1.5h54.9c0.8,0,1.5-0.7,1.5-1.5
			v-5.5C133.9,62,131.2,59.3,127.9,59.3"/>
		<path id="Path_17208" class="st6" d="M82.9,65.3v5.5c0,0.8,0.7,1.5,1.5,1.5c0,0,0,0,0,0h-7c-0.8,0-1.5-0.7-1.5-1.5c0,0,0,0,0,0
			v-5.5c0-3.3,2.7-6,6-6h7C85.6,59.3,82.9,62,82.9,65.3"/>
		<path id="Path_17209" d="M127.9,57.3h-9V54c0-2.6-2.1-4.8-4.8-4.8H95.7c-2.6,0-4.8,2.1-4.8,4.8v3.2h-9c-4.4,0-8,3.6-8,8v5.5
			c0,1.9,1.6,3.5,3.5,3.5c0,0,0,0,0,0h1.5v35c0,4.4,3.6,8,8,8h35c4.4,0,8-3.6,8-8v-35h2.5c1.9,0,3.5-1.6,3.5-3.5c0,0,0,0,0,0v-5.5
			C135.9,60.9,132.3,57.3,127.9,57.3 M94.9,54c0-0.4,0.3-0.8,0.8-0.8l0,0h18.5c0.4,0,0.8,0.3,0.8,0.8v3.2h-20V54z M131.9,70.3h-11
			c-1.1,0-2,0.9-2,2c0,1.1,0.9,2,2,2h5v35c0,2.2-1.8,4-4,4h-35c-2.2,0-4-1.8-4-4v-35h28c1.1,0,2-0.9,2-2c0-1.1-0.9-2-2-2h-33v-5
			c0-2.2,1.8-4,4-4h46c2.2,0,4,1.8,4,4V70.3z"/>
		<path id="Path_17210" d="M92.9,101.3c-1.1,0-2-0.9-2-2v-10c0-1.1,0.9-2,2-2s2,0.9,2,2v10C94.9,100.4,94,101.3,92.9,101.3"/>
		<path id="Path_17211" d="M104.9,105.3c-1.1,0-2-0.9-2-2v-18c0-1.1,0.9-2,2-2s2,0.9,2,2v18C106.9,104.4,106,105.3,104.9,105.3"/>
		<path id="Path_17212" d="M116.9,101.3c-1.1,0-2-0.9-2-2v-10c0-1.1,0.9-2,2-2s2,0.9,2,2v10C118.9,100.4,118,101.3,116.9,101.3"/>
	</g>
</g>
</svg>
