<?xml version="1.0" encoding="utf-8"?>
<!-- Generator: Adobe Illustrator 27.9.0, SVG Export Plug-In . SVG Version: 6.00 Build 0)  -->
<svg version="1.1" id="Layer_1" xmlns="http://www.w3.org/2000/svg" xmlns:xlink="http://www.w3.org/1999/xlink" x="0px" y="0px"
	 viewBox="0 0 184.9 191" style="enable-background:new 0 0 184.9 191;" xml:space="preserve">
<style type="text/css">
	.st0{fill:url(#Path_102_00000054986323147387495340000015355253643492598461_);}
	.st1{fill:#989898;}
	.st2{fill:url(#Path_103_00000023274415384054111460000004960720550456200124_);}
	.st3{fill:#A6A6A6;}
</style>
<g id="giftbox" transform="translate(0 0.007)">
	<g id="bottom">
		
			<linearGradient id="Path_102_00000167394355951404705940000001678373520874189241_" gradientUnits="userSpaceOnUse" x1="-203.2313" y1="513.1566" x2="-203.2313" y2="514.1756" gradientTransform="matrix(161.5842 0 0 -120.0033 32931.3047 61773.6523)">
			<stop  offset="0" style="stop-color:#424242"/>
			<stop  offset="1" style="stop-color:#555555"/>
		</linearGradient>
		<path id="Path_102" style="fill:url(#Path_102_00000167394355951404705940000001678373520874189241_);" d="M173.1,80v0.2l-0.7,8.5
			l-8,94.6c-0.5,4.5-4.4,7.8-8.9,7.7H30.6c-4.5,0.1-8.3-3.2-8.9-7.6l-9.3-94.7l-0.8-8.5v-0.1C11,75.2,15.2,71,20.4,71h143.8
			C169.4,71,173.5,75.2,173.1,80z"/>
		<rect id="Rectangle_2" x="74.5" y="70.7" class="st1" width="35.6" height="120.3"/>
	</g>
	<g id="top">
		
			<linearGradient id="Path_103_00000125564118267778196220000013550925702325939618_" gradientUnits="userSpaceOnUse" x1="-203.3914" y1="506.9731" x2="-203.3914" y2="508.0121" gradientTransform="matrix(184.9186 0 0 -36.6 37703.2969 18636.8164)">
			<stop  offset="0" style="stop-color:#424242"/>
			<stop  offset="1" style="stop-color:#555555"/>
		</linearGradient>
		<path id="Path_103" style="fill:url(#Path_103_00000125564118267778196220000013550925702325939618_);" d="M184.9,47.4l-2.1,30.1
			c-0.1,1.7-1.4,3-3.1,3H4.9c-1.7,0-3.1-1.4-3.1-3.1L0,47.4c0-0.4,0-0.9,0.2-1.3c0.4-1.3,1.6-2.2,2.9-2.2h178.7
			c1.4,0,2.5,0.9,2.9,2.2C184.9,46.5,184.9,47,184.9,47.4z"/>
		<path id="Path_104" class="st1" d="M162.8,24.1c0-0.1-0.1-0.2-0.1-0.3c-0.9-1.6-2.9-2.3-4.6-1.4c0,0-0.1,0.1-0.1,0.1
			c-16.2,9.2-30.9,13.2-43.1,14.6c6.3-2.8,12.1-6.9,16.9-11.9c6.4-7,8-14.3,4.4-19.5c-3.4-4.9-7.6-5.8-10.5-5.7
			c-7,0.2-15.3,6.4-25.1,18.9c-3.6,4.6-6.7,9.1-8.9,12.4c-2.2-3.3-5.3-7.9-8.9-12.4C72.9,6.4,64.7,0.3,57.7,0
			c-2.9-0.1-7.1,0.8-10.5,5.7c-3.6,5.3-2,12.6,4.4,19.5c4.8,5,10.6,9.1,16.9,11.9c-12.2-1.4-26.9-5.5-43.1-14.6
			c-1.6-0.9-3.7-0.4-4.7,1.3c0,0,0,0,0,0c-0.1,0.2-0.2,0.3-0.2,0.5c-0.6,1.6,0.1,3.4,1.6,4.2C44.4,41.2,64.2,44.7,79,44.7
			c3.6,0,7.3-0.2,10.9-0.6c0.6-0.1,1.2-0.1,1.8-0.2c0.6,0.1,1.2,0.2,1.8,0.2c3.6,0.4,7.3,0.6,10.9,0.6c14.9,0,34.7-3.4,57.1-16.2
			C163,27.6,163.6,25.7,162.8,24.1z M106,23.2c8-10.2,15.3-16.1,19.9-16.3h0.2c1.2,0,2.7,0.4,4.3,2.7c1.6,2.4,0.2,6.6-3.8,10.9
			c-5.1,5.6-15.3,12.1-29.5,15.2C99.2,32.5,102.4,27.9,106,23.2z M56.7,20.6c-4-4.3-5.4-8.5-3.8-10.9C54.5,7.4,56,7,57.2,7h0.2
			c2.7,0.1,8.9,2.3,19.9,16.2c3.7,4.7,6.9,9.3,9,12.6C72,32.6,61.8,26.1,56.7,20.6z"/>
		<path id="Path_105" class="st1" d="M161.4,28.5c-22.4,12.7-42.2,16.2-57.1,16.2c-3.6,0-7.3-0.2-10.9-0.6c-0.6-0.1-1.2-0.1-1.8-0.2
			c-0.6,0.1-1.2,0.2-1.8,0.2c-3.6,0.4-7.3,0.6-10.9,0.6c-14.9,0-34.7-3.4-57.1-16.2c-1.5-0.8-2.1-2.6-1.6-4.2
			c16.9,9.1,44.1,20.5,73,19.4c38.4-1.4,61.8-14.6,69.4-19.7c0.9,1.5,0.5,3.4-1,4.4C161.5,28.4,161.5,28.5,161.4,28.5z"/>
		<rect id="Rectangle_3" x="72.4" y="43.9" class="st1" width="40.1" height="36.6"/>
		<path id="Path_106" class="st3" d="M184.7,46.1H0.2c0.4-1.3,1.6-2.2,2.9-2.2h178.7C183.2,43.9,184.3,44.8,184.7,46.1z"/>
		<rect id="Rectangle_4" x="72.4" y="43.9" class="st3" width="40.1" height="2.2"/>
	</g>
</g>
</svg>
