<?xml version="1.0" encoding="utf-8"?>
<!-- Generator: Adobe Illustrator 27.9.0, SVG Export Plug-In . SVG Version: 6.00 Build 0)  -->
<svg version="1.1" id="Layer_1" xmlns="http://www.w3.org/2000/svg" xmlns:xlink="http://www.w3.org/1999/xlink" x="0px" y="0px"
	 viewBox="0 0 200.2 150" style="enable-background:new 0 0 200.2 150;" xml:space="preserve">
<style type="text/css">
	.st0{fill:none;}
	.st1{opacity:0.11;}
	.st2{fill:#3F3F3F;}
	.st3{fill:#838383;}
	.st4{fill:#A0A0A0;}
	.st5{fill:#888888;}
</style>
<g id="logout2" transform="translate(0.083 1.726)">
	<rect id="Rectangle_17641" x="-0.1" y="-1.7" class="st0" width="200" height="150"/>
	<g id="design" transform="translate(3.897 13.07)" class="st1">
		<path id="back" d="M196.2,46.5c0,7.3-6,13.3-13.3,13.3h-60.2c-7.1,0-12.8,5.7-12.8,12.8c0,7.1,5.7,12.8,12.8,12.8c0,0,0,0,0,0
			h43.7c4.7,0,8.5,3.8,8.5,8.5c0,4.7-3.8,8.5-8.5,8.5h-42.6c-4.7,0-8.5,3.8-8.5,8.5s3.8,8.5,8.5,8.5h38.4c2.9,0,5.3,2.4,5.3,5.3
			c0,2.9-2.4,5.3-5.3,5.3H69.4c-2.9,0-5.3-2.4-5.3-5.3c0-2.9,2.4-5.3,5.3-5.3h14.9c4.7,0,8.5-3.8,8.5-8.5s-3.8-8.5-8.5-8.5H8.7
			c-4.7,0-8.5-3.8-8.5-8.5s3.8-8.5,8.5-8.5h11.7c7.1,0,12.8-5.7,12.8-12.8c0-7.1-5.7-12.8-12.8-12.8c0,0,0,0,0,0h-6.9
			C6.1,59.8,0.2,53.8,0.3,46.4c0.1-7.3,5.9-13.1,13.2-13.2h63.9c5-0.1,9-4.1,9-9.2c-0.1-4.9-4-8.9-9-9H50.8c-3.4,0-6.4-2.1-7.5-5.3
			C43,8.9,42.8,8,42.8,7.1c0-4.4,3.6-8,8-8H135c4.4,0,8,3.6,8,8c0,0.9-0.2,1.8-0.5,2.7c-1.1,3.2-4.1,5.3-7.5,5.3h-17
			c-5,0.1-9,4.1-9,9.2c0.1,4.9,4,8.9,9,9h65C190.3,33.2,196.2,39.2,196.2,46.5"/>
	</g>
	<g id="circle">
		<path id="Path_17194" d="M104.4,137.9c-29.6,0-53.6-24-53.6-53.6c0-15.7,6.9-30.7,18.9-40.9c1-0.8,2.4-0.7,3.2,0.3
			c0.8,1,0.7,2.4-0.3,3.2C52,64.4,49.5,95.4,67,116s48.5,23.2,69.1,5.6c2.1-1.8,4-3.7,5.7-5.8c0.8-1,2.3-1.1,3.2-0.3
			c1,0.8,1.1,2.3,0.3,3.2c0,0,0,0,0,0C135.2,131,120.2,137.9,104.4,137.9"/>
		<path id="Path_17195" d="M155.7,86.6c-1.3,0-2.3-1-2.3-2.3l0,0c0-27.1-22-49.1-49.1-49c-4.1,0-8.3,0.5-12.3,1.6
			c-1.2,0.3-2.5-0.4-2.8-1.6c-0.3-1.2,0.4-2.5,1.6-2.8c28.7-7.4,58,9.8,65.4,38.5c1.1,4.4,1.7,8.9,1.7,13.4
			C158,85.6,157,86.6,155.7,86.6L155.7,86.6"/>
	</g>
	<g id="elements">
		<path id="Path_17196" class="st2" d="M42.1,121c0-1.5-1.2-2.7-2.7-2.7s-2.7,1.2-2.7,2.7s1.2,2.7,2.7,2.7c0,0,0,0,0,0
			C40.8,123.7,42.1,122.5,42.1,121"/>
		<path id="Path_17197" class="st2" d="M62.2,24.7c0-1-0.8-1.8-1.8-1.8s-1.8,0.8-1.8,1.8c0,1,0.8,1.8,1.8,1.8
			C61.4,26.6,62.2,25.7,62.2,24.7C62.2,24.7,62.2,24.7,62.2,24.7"/>
		<path id="Path_17198" class="st2" d="M160.3,144.8c0-1-0.8-1.8-1.8-1.8s-1.8,0.8-1.8,1.8s0.8,1.8,1.8,1.8h0
			C159.5,146.6,160.3,145.8,160.3,144.8C160.3,144.8,160.3,144.8,160.3,144.8"/>
		<path id="Path_17199" class="st3" d="M171.3,121c-3.5,0-6.4-2.9-6.4-6.4s2.9-6.4,6.4-6.4c3.5,0,6.4,2.9,6.4,6.4v0
			C177.7,118.1,174.8,120.9,171.3,121 M171.3,110c-2.5,0-4.6,2.1-4.6,4.6s2.1,4.6,4.6,4.6c2.5,0,4.6-2.1,4.6-4.6
			C175.9,112,173.8,110,171.3,110"/>
		<path id="Path_17200" class="st3" d="M162.1,44c-2.5,0-4.6-2.1-4.6-4.6s2.1-4.6,4.6-4.6c2.5,0,4.6,2.1,4.6,4.6
			C166.7,41.9,164.7,44,162.1,44 M162.1,36.6c-1.5,0-2.7,1.2-2.7,2.7s1.2,2.7,2.7,2.7s2.7-1.2,2.7-2.7c0,0,0,0,0,0
			C164.9,37.9,163.6,36.6,162.1,36.6"/>
		<path id="Path_17201" class="st3" d="M79.6,11c-3,0-5.5-2.5-5.5-5.5S76.6,0,79.6,0s5.5,2.5,5.5,5.5S82.7,11,79.6,11 M79.6,1.8
			c-2,0-3.7,1.6-3.7,3.7c0,2,1.6,3.7,3.7,3.7c2,0,3.7-1.6,3.7-3.7c0,0,0,0,0,0C83.3,3.5,81.7,1.8,79.6,1.8"/>
		<path id="Path_17202" class="st3" d="M4.5,74.2c-2.5,0-4.6-2.1-4.6-4.6S2,65,4.5,65s4.6,2.1,4.6,4.6C9.1,72.2,7,74.2,4.5,74.2
			 M4.5,66.9c-1.5,0-2.7,1.2-2.7,2.7c0,1.5,1.2,2.7,2.7,2.7s2.7-1.2,2.7-2.7C7.2,68.1,6,66.9,4.5,66.9"/>
		<path id="Path_17203" class="st4" d="M123.2,11.4c0,0.5-0.4,0.9-0.9,0.9h-3.2v3.2c0,0.5-0.4,0.9-0.9,0.9c-0.5,0-0.9-0.4-0.9-0.9
			v-3.2H114c-0.5,0-0.9-0.4-0.9-0.9s0.4-0.9,0.9-0.9l0,0h3.2V7.3c0-0.5,0.4-0.9,0.9-0.9c0.5,0,0.9,0.4,0.9,0.9l0,0v3.2h3.2
			C122.8,10.5,123.2,10.9,123.2,11.4"/>
		<path id="Path_17204" class="st4" d="M34.7,38.5c0,0.4-0.3,0.7-0.7,0.7h-2.3v2.3c0,0.4-0.3,0.7-0.7,0.7s-0.7-0.3-0.7-0.7v-2.3
			h-2.3c-0.4,0-0.7-0.3-0.7-0.7s0.3-0.7,0.7-0.7h2.3v-2.3c0-0.4,0.3-0.7,0.7-0.7s0.7,0.3,0.7,0.7l0,0v2.3h2.3
			C34.4,37.8,34.7,38.1,34.7,38.5"/>
		<path id="Path_17205" class="st4" d="M199.7,73.3c0,0.5-0.4,0.8-0.8,0.8H196V77c0,0.5-0.4,0.8-0.8,0.8c-0.5,0-0.8-0.4-0.8-0.8
			v-2.9h-2.9c-0.5,0-0.8-0.4-0.8-0.8s0.4-0.8,0.8-0.8l0,0h2.9v-2.9c0-0.5,0.4-0.8,0.8-0.8c0.5,0,0.8,0.4,0.8,0.8v2.9h2.9
			C199.3,72.5,199.7,72.8,199.7,73.3"/>
	</g>
	<g id="logout">
		<path id="Path_17190" class="st5" d="M101.1,68.3v43.3c0,0.7-0.2,1.4-0.7,1.8c-0.5,0.4-1.2,0.5-1.8,0.3l-12-2.9
			c-0.4-0.1-0.7-0.2-1-0.4c-1.5-0.9-2.4-2.4-2.4-4.1V62.9c0-0.7,0.2-1.4,0.7-1.8c0.5-0.4,1.2-0.5,1.8-0.3l12,2.9
			C99.6,64.4,101,66.2,101.1,68.3"/>
		<path id="Path_17191" d="M118.6,76.6c1.1,0,2-0.9,2-2v-12c0-3.8-3.1-6.9-6.9-6.9H86.1c-3.8,0-6.9,3.1-6.9,6.9v43.5
			c0.1,3.9,2.7,7.3,6.4,8.3l12,2.9c0.5,0.1,1,0.2,1.6,0.2c1.3,0,2.5-0.4,3.6-1.2c1.5-1.2,2.3-3,2.2-4.9v-1.2h8.7
			c3.8,0,6.9-3.1,6.9-6.9V91.7c0-1.1-0.9-1.9-2-1.9c-1,0-1.9,0.9-1.9,1.9v11.8c0,1.6-1.3,3-3,3H105V68.3c-0.1-3.9-2.7-7.3-6.4-8.3
			l-1-0.2h16.1c1.6,0,3,1.3,3,3v12C116.6,75.7,117.5,76.6,118.6,76.6L118.6,76.6z M97.6,63.8c2,0.6,3.4,2.4,3.5,4.5v43.3
			c0,0.7-0.2,1.4-0.7,1.8c-0.5,0.4-1.2,0.5-1.8,0.3l-12-2.9c-0.4-0.1-0.7-0.2-1-0.4c-1.5-0.9-2.4-2.4-2.4-4.1V62.9
			c0-0.7,0.2-1.4,0.7-1.8c0.5-0.4,1.2-0.5,1.8-0.3L97.6,63.8z"/>
		<path id="Path_17192" d="M90.2,111.6l-3.6-0.9c-2-0.6-3.4-2.4-3.5-4.5V62.9c0-0.7,0.2-1.4,0.7-1.8c0.5-0.4,1.2-0.5,1.8-0.3
			l1.1,0.3v44.2C86.8,107.8,88.1,110.2,90.2,111.6"/>
		<path id="Path_17193" d="M141.3,83.2L141.3,83.2c0,0.1,0,0.1,0,0.2c0,0,0,0,0,0c0,0.1,0,0.1,0,0.2c0,0.1,0,0.1,0,0.2
			s0,0.1-0.1,0.2c0,0.1,0,0.1-0.1,0.2c0,0-0.1,0.1-0.1,0.1s-0.1,0.1-0.1,0.2s-0.1,0.1-0.1,0.1l-9.1,10c-0.7,0.8-2,0.9-2.8,0.2
			s-0.9-2-0.2-2.8l0,0l6.1-6.7l-20,0l0,0c-1.1,0-1.9-0.9-1.9-2c0-1,0.9-1.9,1.9-1.9l20,0l-6-6.6c-0.7-0.8-0.7-2,0.1-2.8
			c0.8-0.7,2-0.7,2.7,0.1l9,9.8l0,0c0,0,0.1,0.1,0.1,0.2c0.1,0.1,0.1,0.2,0.2,0.3l0,0c0,0.1,0,0.1,0.1,0.2c0,0.1,0.1,0.2,0.1,0.3
			c0,0.1,0,0.1,0,0.2v0C141.3,83.1,141.3,83.1,141.3,83.2"/>
	</g>
</g>
</svg>
