<?xml version="1.0" encoding="utf-8"?>
<!-- Generator: Adobe Illustrator 27.9.0, SVG Export Plug-In . SVG Version: 6.00 Build 0)  -->
<svg version="1.1" id="Layer_1" xmlns="http://www.w3.org/2000/svg" xmlns:xlink="http://www.w3.org/1999/xlink" x="0px" y="0px"
	 viewBox="0 0 200 150" style="enable-background:new 0 0 200 150;" xml:space="preserve">
<style type="text/css">
	.st0{fill:none;}
	.st1{fill:#FFFFFF;}
	.st2{fill:#3F3F3F;}
	.st3{fill:#838383;}
	.st4{fill:#A0A0A0;}
	.st5{fill:#888888;}
	.st6{fill:#ADADAD;}
	.st7{fill:#7B7B7B;}
	.st8{fill:#969696;}
	.st9{fill:#C3C3C3;}
	.st10{fill:#A9A9A9;}
</style>
<g id="not_found" transform="translate(0 1.726)">
	<rect id="Rectangle_17641" x="0" y="-1.7" class="st0" width="199.8" height="150"/>
	<g id="design" transform="translate(4.158 12.195)">
		<path id="back" class="st1" d="M195.8,47.4c0,7.3-6,13.3-13.3,13.3h-60.1c-7.1,0-12.8,5.7-12.8,12.8c0,7.1,5.7,12.8,12.8,12.8H166
			c4.7,0,8.5,3.8,8.5,8.5c0,4.7-3.8,8.5-8.5,8.5h-42.6c-4.7,0-8.5,3.8-8.5,8.5s3.8,8.5,8.5,8.5h38.3c2.9,0,5.3,2.4,5.3,5.3
			c0,1.4-0.6,2.8-1.6,3.8c-1,1-2.3,1.6-3.8,1.6H69.2c-2.9,0-5.3-2.4-5.3-5.3c0-1.4,0.6-2.8,1.6-3.8c1-1,2.3-1.6,3.8-1.6h14.9
			c4.7,0,8.5-3.8,8.5-8.5s-3.8-8.5-8.5-8.5H8.5c-4.7,0-8.5-3.8-8.5-8.5s3.8-8.5,8.5-8.5h11.7c7.1,0,12.8-5.7,12.8-12.8
			c0-7.1-5.7-12.8-12.8-12.8h-6.9C5.9,60.7,0,54.7,0.1,47.3C0.2,40,6,34.2,13.3,34.1h63.9c5-0.1,9-4.1,9-9.2c-0.1-4.9-4-8.9-9-9
			H50.6c-3.4,0-6.4-2.1-7.5-5.3c-0.3-0.9-0.5-1.8-0.5-2.7c0-4.4,3.6-8,8-8h84.1c4.4,0,8,3.6,8,8c0,0.9-0.2,1.8-0.5,2.7
			c-1.1,3.2-4.1,5.3-7.5,5.3h-17c-5,0.1-9,4.1-9,9.2c0.1,4.9,4,8.9,9,9h64.9C189.9,34.1,195.8,40.1,195.8,47.4"/>
	</g>
	<g id="circle" transform="translate(50.749 30.683)">
		<path id="Path_17194" d="M53.6,107.2C24,107.2,0,83.2,0,53.6c0-15.7,6.9-30.7,18.9-40.9c1-0.8,2.4-0.7,3.2,0.3
			c0.8,1,0.7,2.4-0.3,3.2C1.2,33.8-1.3,64.7,16.2,85.3s48.5,23.2,69.1,5.6c2.1-1.8,4-3.7,5.7-5.8c0.8-1,2.3-1.1,3.2-0.3
			c1,0.8,1.1,2.3,0.3,3.2c0,0,0,0,0,0C84.4,100.3,69.4,107.2,53.6,107.2"/>
		<path id="Path_17195" d="M104.9,55.9c-1.3,0-2.3-1-2.3-2.3l0,0c0-27.1-22-49.1-49.1-49c-4.1,0-8.3,0.5-12.3,1.6
			c-1.2,0.3-2.5-0.4-2.8-1.6c-0.3-1.2,0.4-2.5,1.6-2.8c28.7-7.4,58,9.8,65.4,38.5c1.1,4.4,1.7,8.9,1.7,13.4
			C107.2,54.9,106.2,55.9,104.9,55.9L104.9,55.9"/>
	</g>
	<g id="elements" transform="translate(0 -0.018)">
		<path id="Path_17196" class="st2" d="M42.1,121c0-1.5-1.2-2.7-2.7-2.7s-2.7,1.2-2.7,2.7s1.2,2.7,2.7,2.7c0,0,0,0,0,0
			C40.9,123.7,42.1,122.5,42.1,121"/>
		<path id="Path_17197" class="st2" d="M62.3,24.7c0-1-0.8-1.8-1.8-1.8s-1.8,0.8-1.8,1.8c0,1,0.8,1.8,1.8,1.8
			C61.4,26.6,62.3,25.8,62.3,24.7C62.3,24.7,62.3,24.7,62.3,24.7"/>
		<path id="Path_17198" class="st2" d="M160.2,144.8c0-1-0.8-1.8-1.8-1.8s-1.8,0.8-1.8,1.8s0.8,1.8,1.8,1.8h0
			C159.4,146.6,160.2,145.8,160.2,144.8C160.2,144.8,160.2,144.8,160.2,144.8"/>
		<path id="Path_17199" class="st3" d="M171.2,121c-3.5,0-6.4-2.9-6.4-6.4s2.9-6.4,6.4-6.4c3.5,0,6.4,2.9,6.4,6.4v0
			C177.6,118.1,174.7,121,171.2,121 M171.2,110c-2.5,0-4.6,2.1-4.6,4.6s2.1,4.6,4.6,4.6c2.5,0,4.6-2.1,4.6-4.6
			C175.7,112,173.7,110,171.2,110"/>
		<path id="Path_17200" class="st3" d="M162,44c-2.5,0-4.6-2.1-4.6-4.6s2.1-4.6,4.6-4.6c2.5,0,4.6,2.1,4.6,4.6
			C166.6,41.9,164.6,44,162,44 M162,36.7c-1.5,0-2.7,1.2-2.7,2.7s1.2,2.7,2.7,2.7s2.7-1.2,2.7-2.7c0,0,0,0,0,0
			C164.8,37.9,163.6,36.7,162,36.7"/>
		<path id="Path_17201" class="st3" d="M79.7,11c-3,0-5.5-2.5-5.5-5.5S76.6,0,79.7,0s5.5,2.5,5.5,5.5S82.7,11,79.7,11 M79.7,1.8
			c-2,0-3.7,1.6-3.7,3.7c0,2,1.6,3.7,3.7,3.7c2,0,3.7-1.6,3.7-3.7c0,0,0,0,0,0C83.3,3.5,81.7,1.8,79.7,1.8"/>
		<path id="Path_17202" class="st3" d="M4.6,74.2c-2.5,0-4.6-2.1-4.6-4.6s2.1-4.6,4.6-4.6s4.6,2.1,4.6,4.6
			C9.2,72.2,7.1,74.2,4.6,74.2 M4.6,66.9c-1.5,0-2.7,1.2-2.7,2.7c0,1.5,1.2,2.7,2.7,2.7s2.7-1.2,2.7-2.7C7.3,68.1,6.1,66.9,4.6,66.9
			"/>
		<path id="Path_17203" class="st4" d="M123.1,11.5c0,0.5-0.4,0.9-0.9,0.9H119v3.2c0,0.5-0.4,0.9-0.9,0.9c-0.5,0-0.9-0.4-0.9-0.9
			v-3.2H114c-0.5,0-0.9-0.4-0.9-0.9s0.4-0.9,0.9-0.9l0,0h3.2V7.3c0-0.5,0.4-0.9,0.9-0.9c0.5,0,0.9,0.4,0.9,0.9l0,0v3.2h3.2
			C122.7,10.5,123.1,10.9,123.1,11.5"/>
		<path id="Path_17204" class="st4" d="M34.8,38.5c0,0.4-0.3,0.7-0.7,0.7h-2.3v2.3c0,0.4-0.3,0.7-0.7,0.7s-0.7-0.3-0.7-0.7v-2.3
			h-2.3c-0.4,0-0.7-0.3-0.7-0.7s0.3-0.7,0.7-0.7h2.3v-2.3c0-0.4,0.3-0.7,0.7-0.7s0.7,0.3,0.7,0.7l0,0v2.3h2.3
			C34.5,37.8,34.8,38.1,34.8,38.5"/>
		<path id="Path_17205" class="st4" d="M199.6,73.3c0,0.5-0.4,0.8-0.8,0.8h-2.9v2.9c0,0.5-0.4,0.8-0.8,0.8c-0.5,0-0.8-0.4-0.8-0.8
			v-2.9h-2.9c-0.5,0-0.8-0.4-0.8-0.8s0.4-0.8,0.8-0.8l0,0h2.9v-2.9c0-0.5,0.4-0.8,0.8-0.8c0.5,0,0.8,0.4,0.8,0.8v2.9h2.9
			C199.2,72.5,199.6,72.9,199.6,73.3"/>
	</g>
	<g id="pie-chart_1_" transform="translate(66.361 45.855)">
		<g id="Group_17171" transform="translate(2.203 2.749)">
			<path id="Path_17533" class="st0" d="M48.9,47.1c-0.3,0.5-1,0.7-1.5,0.4c0,0-0.1,0-0.1-0.1c-3.7-2.2-7.5-4.4-11.3-6.6
				c-0.1,0-0.2,0-0.2,0L10.8,55.4"/>
			<path id="Path_17534" class="st0" d="M10.8,55.4l-2.1,1.2c0,0,0,0,0,0c0,0,0,0,0,0.1c1.6,2.4,3.5,4.6,5.7,6.5
				c0.5,0.4,0.6,1.1,0.2,1.6c0,0,0,0,0,0"/>
			<path id="Path_17535" class="st0" d="M51.5,48.6c-0.2,0.3-0.2,0.7,0,1.1c0.2,0.3,0.4,0.5,0.7,0.6c2.9,1.7,5.8,3.4,8.7,5.1"/>
			<path id="Path_17536" class="st0" d="M60.8,55.4C55,61.9,46.9,65.9,38.2,66.5c-1,0.1-2,0.1-3,0.1c-6.5-0.1-12.8-2.1-18.2-5.8
				c-2.3-1.6-4.4-3.4-6.2-5.4"/>
			<path id="Path_17537" class="st0" d="M16.8,66.6c0.3-0.4,0.8-0.6,1.3-0.4c0.4,0.1,0.7,0.3,1,0.5c0.5,0.3,0.9,0.5,1,0.6
				c9.9,5.5,21.9,5.4,31.8-0.2c0.9-0.5,1.7-1,2.5-1.6c3.4-2.4,6.3-5.4,8.6-8.8c0,0,0,0,0-0.1c0,0,0,0,0,0l-2.1-1.2"/>
			<path id="Path_17538" class="st0" d="M20.9,38.7c-0.2-0.3-0.2-0.7-0.1-1.1c0.2-0.3,0.4-0.5,0.7-0.6c3.1-1.8,6.2-3.6,9.3-5.4
				c0,0,0.1-0.1,0.1-0.1l0-4.6"/>
			<path id="Path_17539" class="st0" d="M30.9,26.9l0-26.9c0,0,0-0.1-0.1-0.1c0,0,0,0,0,0c-6.2,0.3-12.2,2.4-17.1,6.1
				c-0.8,0.6-1.5,1.2-2.3,1.9c-4.8,4.3-8.3,9.9-10.1,16.1c-1.9,6.4-1.7,13.2,0.6,19.4"/>
			<path id="Path_17540" class="st0" d="M1.9,43.6c0.5,1.3,1,2.5,1.6,3.7c0,0,0,0,0,0c0,0,0,0,0.1,0c4.3-2.5,8.5-4.9,12.8-7.4
				c0.3-0.2,0.6-0.3,0.9-0.3c0.4,0,0.8,0.2,0.9,0.6"/>
			<path id="Path_17541" class="st0" d="M39.6,9.7c0.5,0,1,0.4,1.1,0.9c0,0,0,0.5,0,1.3c0,5.1,0,10.1,0,15.1"/>
			<path id="Path_17542" class="st0" d="M40.7,27l0,4.5c0,0,0,0.1,0.1,0.1L68,47.4c0,0,0.1,0,0.1,0c0,0,0,0,0,0
				c0.6-1.2,1.1-2.4,1.6-3.7"/>
			<path id="Path_17543" class="st0" d="M69.7,43.7c1.3-3.6,1.9-7.3,1.9-11.1c-0.1-4.9-1.2-9.8-3.4-14.2C63.1,7.7,52.6,0.7,40.8,0
				c-0.1,0-0.1,0-0.1,0.1c0,0,0,0,0,0v4.9c0,0.3,0,0.7-0.1,1c-0.2,0.4-0.6,0.6-1,0.6"/>
			<path id="Path_17544" class="st0" d="M30.9,26.9C15.1,36,5.6,41.5,2.4,43.3c-0.2,0.1-0.4,0.2-0.6,0.2"/>
			<path id="Path_17545" class="st0" d="M69.7,43.7L40.7,27"/>
		</g>
		<path id="Path_17546" d="M23.1,41.4c-0.2-0.3-0.2-0.7-0.1-1.1c0.2-0.3,0.4-0.5,0.7-0.6c3.1-1.8,6.2-3.6,9.3-5.4
			c0,0,0.1-0.1,0.1-0.1l0-4.6l0-26.9c0,0,0-0.1-0.1-0.1c0,0,0,0,0,0C26.8,3,20.9,5.1,15.9,8.9c-0.8,0.6-1.5,1.2-2.3,1.9
			c-4.8,4.3-8.3,9.9-10.1,16.1c-1.9,6.4-1.7,13.2,0.6,19.4c0.5,1.3,1,2.5,1.6,3.7c0,0,0,0,0,0c0,0,0,0,0.1,0
			c4.3-2.5,8.5-4.9,12.8-7.4c0.3-0.2,0.6-0.3,0.9-0.3c0.4,0,0.8,0.2,0.9,0.6c0.2,0.5,0.1,1-0.2,1.3c0,0-0.4,0.3-1,0.6
			c-4.3,2.5-8.7,5-13,7.5c-0.3,0.2-0.6,0.3-0.9,0.3c-0.2,0-0.5-0.1-0.7-0.2c-0.2-0.1-0.3-0.3-0.4-0.5C1.7,47.4,0.2,42.2,0,36.9V35
			c0.1-1.7,0.2-3.3,0.5-5C2,21.8,6.2,14.4,12.4,8.9c3.5-3.2,7.7-5.5,12.2-7c3-0.9,6.1-1.4,9.2-1.4c0.3,0,0.6,0,0.9,0.1
			C35,0.8,35.1,1,35.2,1.2c0.1,0.2,0.1,0.4,0.1,0.7c0,11,0,22,0,33c0,0.4-0.2,0.9-0.6,1c-3.3,1.9-6.5,3.8-9.8,5.7
			c-0.3,0.2-0.6,0.3-0.9,0.3C23.6,41.9,23.3,41.7,23.1,41.4z"/>
		<path id="Path_17547" d="M76,34.7v1.7c-0.2,5.4-1.6,10.6-4.1,15.4c-0.2,0.4-0.4,0.7-0.7,0.9c-0.4,0.2-0.9,0.2-1.2-0.1l-0.4-0.2
			C60.1,46.9,50.7,41.5,41.2,36c-0.2-0.1-0.4-0.3-0.5-0.6c-0.1-0.2-0.1-0.5-0.1-0.7c0-6.7,0-13.4,0-20c0-0.8,0-1.2,0-1.3
			c0.1-0.6,0.7-1,1.3-0.9c0.5,0.1,0.8,0.4,0.9,0.9c0,0,0,0.5,0,1.3c0,5.1,0,10.1,0,15.1l0,4.5c0,0,0,0.1,0.1,0.1l27.2,15.7
			c0,0,0.1,0,0.1,0c0,0,0,0,0,0c0.6-1.2,1.1-2.4,1.6-3.7c1.3-3.6,1.9-7.3,1.9-11.1c-0.1-4.9-1.2-9.8-3.4-14.2
			C65.3,10.5,54.8,3.5,43,2.8c-0.1,0-0.1,0-0.1,0.1c0,0,0,0,0,0v5c0,0.3,0,0.7-0.1,1c-0.2,0.4-0.6,0.6-1,0.6c-0.3,0-0.7-0.2-0.9-0.5
			c-0.2-0.3-0.2-0.5-0.2-0.8c0-1.9,0-3.8,0-5.7c0-0.4,0-0.8,0.1-1.2C40.8,1,41,0.8,41.3,0.6c0.3-0.1,0.6-0.2,0.8-0.1
			c7.7,0.2,15,2.9,20.9,7.8c3.4,2.8,6.3,6.3,8.4,10.2C74.3,23.5,75.8,29,76,34.7z"/>
		<path id="Path_17548" class="st5" d="M33.1,29.7C17.3,38.8,7.8,44.3,4.6,46.1c-0.2,0.1-0.4,0.2-0.6,0.2
			c-2.3-6.2-2.5-13.1-0.6-19.4c1.8-6.2,5.3-11.8,10.1-16.1c0.8-0.7,1.5-1.3,2.3-1.9C20.9,5.1,26.8,3,33,2.7c0,0,0.1,0,0.1,0.1
			c0,0,0,0,0,0L33.1,29.7z"/>
		<path id="Path_17549" class="st6" d="M71.9,46.4L42.9,29.8c0-5,0-10,0-15.1c0-0.8,0-1.3,0-1.3c-0.1-0.5-0.6-0.9-1.1-0.9V9.5
			c0.4,0,0.8-0.2,1-0.6c0.1-0.3,0.2-0.7,0.1-1V2.9c0-0.1,0.1-0.1,0.1-0.1c0,0,0,0,0,0c11.8,0.7,22.2,7.7,27.3,18.3
			c2.2,4.4,3.3,9.3,3.4,14.2C73.8,39.1,73.2,42.9,71.9,46.4z"/>
		<path id="Path_17550" class="st7" d="M33.1,29.7l0,4.6c0,0.1,0,0.1-0.1,0.1c-3.1,1.8-6.2,3.5-9.3,5.4c-0.3,0.1-0.5,0.4-0.7,0.6
			c-0.2,0.3-0.1,0.7,0.1,1.1l-2.6,1.5c-0.2-0.3-0.5-0.6-0.9-0.6c-0.3,0-0.7,0.2-0.9,0.3c-4.2,2.4-8.5,4.9-12.8,7.4c0,0,0,0-0.1,0
			c0,0,0,0,0,0c-0.6-1.2-1.2-2.4-1.6-3.7c0.2,0,0.4-0.1,0.6-0.2C7.8,44.3,17.3,38.8,33.1,29.7z"/>
		<path id="Path_17551" class="st8" d="M42.9,29.8l28.9,16.6c-0.4,1.3-1,2.5-1.6,3.7c0,0-0.1,0.1-0.1,0c0,0,0,0,0,0L43,34.4
			c0,0-0.1-0.1-0.1-0.1L42.9,29.8z"/>
		<path id="Path_17552" d="M51.1,49.9c-0.3,0.5-1,0.7-1.5,0.4c0,0-0.1,0-0.1-0.1c-3.7-2.2-7.5-4.4-11.3-6.6c-0.1,0-0.2,0-0.2,0
			L13,58.1l-2.1,1.2c0,0,0,0,0,0c0,0,0,0,0,0.1c1.6,2.4,3.5,4.6,5.7,6.5c0.5,0.4,0.6,1.1,0.2,1.6c0,0,0,0,0,0
			c-0.3,0.3-0.7,0.4-1.1,0.3c-0.3-0.1-0.6-0.3-0.9-0.5c-2.5-2.3-4.7-4.8-6.4-7.7c-0.3-0.3-0.3-0.8-0.1-1.2c0.2-0.3,0.5-0.5,0.8-0.7
			c9.2-5.4,18.5-10.7,27.7-16.1c0.5-0.3,0.7-0.4,0.8-0.4c0.2-0.1,0.4-0.1,0.6-0.1c0.2,0,0.4,0.1,0.6,0.2c3.9,2.3,7.8,4.5,11.8,6.8
			C51.1,48.6,51.4,49.3,51.1,49.9C51.1,49.9,51.1,49.9,51.1,49.9z"/>
		<path id="Path_17553" class="st9" d="M51.1,49.9l2.6,1.5c-0.2,0.3-0.2,0.7,0,1.1c0.2,0.3,0.4,0.5,0.7,0.6c2.9,1.7,5.8,3.4,8.7,5.1
			c-5.8,6.5-13.9,10.5-22.6,11.1c-1,0.1-2,0.1-3,0.1c-6.5-0.1-12.8-2.1-18.2-5.8c-2.3-1.6-4.4-3.4-6.2-5.4l24.9-14.5
			c0.1,0,0.2,0,0.2,0c3.8,2.2,7.6,4.4,11.3,6.6c0.5,0.4,1.2,0.3,1.6-0.2C51.1,50,51.1,49.9,51.1,49.9z"/>
		<path id="Path_17554" d="M19,69.4c0.3-0.4,0.8-0.6,1.3-0.4c0.4,0.1,0.7,0.3,1,0.5c0.5,0.3,0.9,0.5,1,0.6
			c9.9,5.5,21.9,5.4,31.8-0.2c0.9-0.5,1.7-1,2.5-1.6c3.4-2.4,6.3-5.4,8.6-8.8c0,0,0,0,0-0.1c0,0,0,0,0,0L63,58.1
			c-2.9-1.7-5.8-3.4-8.7-5.1c-0.3-0.1-0.5-0.4-0.7-0.6c-0.2-0.3-0.2-0.7,0-1.1c0.3-0.5,0.9-0.7,1.4-0.5c0,0,0.1,0,0.1,0.1
			c6.7,3.9,10.8,6.2,12.1,7c0.4,0.2,0.6,0.6,0.6,1c-0.1,0.3-0.2,0.7-0.4,1c-6.3,10.2-17.5,16.4-29.5,16.3c-1,0-2,0-3-0.1
			c-5.4-0.5-10.5-2.2-15.1-5c-0.2-0.1-0.4-0.3-0.6-0.5C18.8,70.4,18.8,69.8,19,69.4z"/>
		<path id="Path_17555" class="st10" d="M63,58.1l2.1,1.2c0,0,0,0,0,0c0,0,0,0,0,0.1c-2.3,3.5-5.2,6.5-8.6,8.8
			c-0.8,0.6-1.6,1.1-2.5,1.6c-9.8,5.6-21.9,5.7-31.8,0.2c-0.1-0.1-0.5-0.3-1-0.6c-0.3-0.2-0.7-0.4-1-0.5c-0.5-0.2-1,0-1.3,0.4
			l-2.4-1.8c0.4-0.5,0.3-1.2-0.2-1.6c0,0,0,0,0,0c-2.2-1.9-4.1-4.1-5.7-6.5c0,0,0,0,0-0.1c0,0,0,0,0,0l2.1-1.2c1.9,2,4,3.9,6.2,5.4
			c5.4,3.7,11.7,5.7,18.2,5.8c1,0,2,0,3-0.1C49.1,68.6,57.2,64.7,63,58.1z"/>
	</g>
</g>
</svg>
