<?xml version="1.0" encoding="utf-8"?>
<!-- Generator: Adobe Illustrator 27.9.0, SVG Export Plug-In . SVG Version: 6.00 Build 0)  -->
<svg version="1.1" id="Layer_1" xmlns="http://www.w3.org/2000/svg" xmlns:xlink="http://www.w3.org/1999/xlink" x="0px" y="0px"
	 viewBox="0 0 333 157" style="enable-background:new 0 0 333 157;" xml:space="preserve">
<style type="text/css">
	.st0{fill:none;}
	.st1{fill:url(#Path_14615_00000082344039442124081820000017415339271330755485_);}
	.st2{fill:url(#Rectangle_17623_00000039130973661753632040000012337777859077945531_);}
	.st3{fill:url(#Path_14616_00000000909761833081258240000000294349515406036646_);}
	.st4{fill:url(#Path_14617_00000015318922394795660750000009845198931284746901_);}
	.st5{fill:url(#Path_14618_00000171693133418945950070000004975437504687364480_);}
	.st6{fill:url(#Rectangle_17628_00000129923336640878389010000001278434913225043078_);}
	.st7{fill:url(#Path_14619_00000078004237082915250930000007818306722046338728_);}
	.st8{fill:url(#Rectangle_17630_00000042705713844244929910000000266797554334879935_);}
	.st9{fill:url(#Path_14615-2_00000061460431445016624390000007825131817562528437_);}
	.st10{fill:url(#Union_11_00000108281197226823060490000007476602436285733782_);}
	.st11{fill:url(#Path_14620_00000121972439964303218510000007502931244898942379_);}
	.st12{fill:url(#Path_14621_00000103976839188058041430000007581946348800667797_);}
	.st13{fill:url(#Path_14622_00000176003225754433112530000005542592266440744328_);}
	.st14{fill:url(#Path_14623_00000090296228581053307510000014462691139375762082_);}
	.st15{fill:url(#Path_14624_00000153699239361271473810000005772823997190943362_);}
</style>
<g id="refer_friends" transform="translate(-21 -171)">
	<rect id="back" x="21" y="171" class="st0" width="333" height="157"/>
	<g id="giftbox" transform="translate(130.307 178.989)">
		
			<linearGradient id="Path_14615_00000140701934776179071680000003560220763548549822_" gradientUnits="userSpaceOnUse" x1="-238.5192" y1="486.3728" x2="-238.5192" y2="487.3728" gradientTransform="matrix(101.7248 0 0 -75.5297 24321.4277 36855.832)">
			<stop  offset="0" style="stop-color:#A9A9A9"/>
			<stop  offset="1" style="stop-color:#C7C7C7"/>
		</linearGradient>
		<path id="Path_14615" style="fill:url(#Path_14615_00000140701934776179071680000003560220763548549822_);" d="M12.9,44.7
			c-3-0.1-5.5,2.2-5.6,5.2c0,0.2,0,0.3,0,0.5v0.1l0.5,5.4l5.8,59.6c0.4,2.8,2.8,4.8,5.6,4.8h78.6c2.8,0.1,5.3-2,5.6-4.8l5.1-59.6
			l0.5-5.4l0-0.1c0.1-3-2.2-5.5-5.2-5.6c-0.2,0-0.3,0-0.5,0L12.9,44.7z"/>
		
			<linearGradient id="Rectangle_17623_00000072262200023441382490000008030727348338296987_" gradientUnits="userSpaceOnUse" x1="-233.9679" y1="487.3842" x2="-233.9679" y2="486.3842" gradientTransform="matrix(22.435 0 0 -75.721 5307.1724 36949.7422)">
			<stop  offset="0" style="stop-color:#FAFAFA"/>
			<stop  offset="1" style="stop-color:#C1C1C1"/>
		</linearGradient>
		
			<rect id="Rectangle_17623" x="46.9" y="44.5" style="fill:url(#Rectangle_17623_00000072262200023441382490000008030727348338296987_);" width="22.4" height="75.7"/>
		
			<linearGradient id="Path_14616_00000072256134950430067400000007515934051304376960_" gradientUnits="userSpaceOnUse" x1="-238.6814" y1="476.0661" x2="-238.6814" y2="477.0661" gradientTransform="matrix(116.38 0 0 -23.054 27835.9434 11025.9082)">
			<stop  offset="0" style="stop-color:#A9A9A9"/>
			<stop  offset="1" style="stop-color:#C7C7C7"/>
		</linearGradient>
		<path id="Path_14616" style="fill:url(#Path_14616_00000072256134950430067400000007515934051304376960_);" d="M1.9,27.6
			c-0.8,0-1.6,0.6-1.8,1.4C0,29.3,0,29.6,0,29.8l1.1,18.9c0,1.1,0.9,1.9,1.9,1.9h110.1c1,0,1.9-0.9,1.9-1.9l1.3-18.9
			c0,0,0-0.1,0-0.1v0c0-0.2,0-0.4-0.1-0.7c-0.2-0.8-1-1.4-1.8-1.4L1.9,27.6z"/>
		
			<linearGradient id="Path_14617_00000122710045259485820780000013931672697485591179_" gradientUnits="userSpaceOnUse" x1="-238.3505" y1="479.7348" x2="-238.3505" y2="478.7348" gradientTransform="matrix(89.9438 0 0 -28.111 21495.8652 13485.8252)">
			<stop  offset="0" style="stop-color:#FAFAFA"/>
			<stop  offset="1" style="stop-color:#C1C1C1"/>
		</linearGradient>
		<path id="Path_14617" style="fill:url(#Path_14617_00000122710045259485820780000013931672697485591179_);" d="M35.7,12.9
			c-2.5-2.7-3.4-5.4-2.4-6.9c0.5-1,1.6-1.7,2.7-1.7c0,0,0.1,0,0.1,0c1.7,0.1,5.6,1.5,12.5,10.2c2.3,2.9,4.3,5.9,5.6,7.9
			C45.3,20.5,38.9,16.5,35.7,12.9 M66.7,14.6c5.1-6.4,9.6-10.2,12.5-10.3c0,0,0.1,0,0.1,0c1.1,0,2.2,0.7,2.7,1.7
			c1,1.5,0.1,4.1-2.4,6.9c-3.2,3.5-9.6,7.6-18.6,9.6C62.4,20.5,64.4,17.6,66.7,14.6 M79.3,0c-0.1,0-0.2,0-0.2,0
			c-4.4,0.2-9.6,4.1-15.8,11.9c-2.3,2.9-4.2,5.7-5.6,7.8c-1.4-2.1-3.3-4.9-5.6-7.8C45.9,4.1,40.7,0.2,36.3,0
			c-2.7-0.1-5.2,1.3-6.6,3.6c-2.3,3.3-1.2,7.9,2.8,12.3c3,3.2,6.6,5.7,10.6,7.5C33.5,22.2,24.3,19,16,14.1c-1-0.6-2.4-0.2-3,0.8
			c0,0,0,0,0,0c-0.1,0.1-0.1,0.2-0.2,0.3c-0.4,1,0.1,2.1,1,2.6c14.1,8,26.5,10.2,35.9,10.2c2.3,0,4.6-0.1,6.8-0.4
			c0.4,0,0.7-0.1,1.1-0.1c0.4,0.1,0.7,0.1,1.1,0.1c2.3,0.3,4.6,0.4,6.8,0.4c9.4,0,21.8-2.2,35.9-10.2c1-0.6,1.4-1.8,0.9-2.8
			c0-0.1-0.1-0.1-0.1-0.2c-0.6-1-1.9-1.4-3-0.8c0,0,0,0,0,0c-8.3,4.9-17.5,8-27.1,9.2c4-1.8,7.6-4.3,10.6-7.5c4-4.4,5.1-9,2.8-12.3
			C84.4,1.4,82,0,79.3,0L79.3,0z"/>
		
			<linearGradient id="Path_14618_00000124137591127791890850000018204865107374773684_" gradientUnits="userSpaceOnUse" x1="-238.3505" y1="465.5364" x2="-238.3505" y2="464.5364" gradientTransform="matrix(89.9438 0 0 -12.972 21495.8633 6054.0825)">
			<stop  offset="0" style="stop-color:#FAFAFA"/>
			<stop  offset="1" style="stop-color:#C1C1C1"/>
		</linearGradient>
		<path id="Path_14618" style="fill:url(#Path_14618_00000124137591127791890850000018204865107374773684_);" d="M58.8,27.5
			c-18.2,0.7-35.3-6.5-46-12.2c-0.4,1,0.1,2.1,1,2.6c14.1,8,26.5,10.2,35.9,10.2c2.3,0,4.6-0.1,6.8-0.4c0.4,0,0.7-0.1,1.1-0.1
			c0.4,0.1,0.7,0.1,1.1,0.1c2.3,0.3,4.6,0.4,6.8,0.4c9.4,0,21.8-2.2,35.9-10.2c1-0.6,1.4-1.8,0.9-2.8C97.7,18.3,82.9,26.6,58.8,27.5
			"/>
		
			<linearGradient id="Rectangle_17628_00000043424322163098913540000009008865923739092117_" gradientUnits="userSpaceOnUse" x1="-234.617" y1="477.0661" x2="-234.617" y2="476.0661" gradientTransform="matrix(25.241 0 0 -23.054 5980.1719 11025.9082)">
			<stop  offset="0" style="stop-color:#FAFAFA"/>
			<stop  offset="1" style="stop-color:#C1C1C1"/>
		</linearGradient>
		
			<rect id="Rectangle_17628" x="45.6" y="27.6" style="fill:url(#Rectangle_17628_00000043424322163098913540000009008865923739092117_);" width="25.2" height="23.1"/>
		
			<linearGradient id="Path_14619_00000026154852470190687430000007852314162675860896_" gradientUnits="userSpaceOnUse" x1="-238.6794" y1="245.0343" x2="-238.6794" y2="246.0343" gradientTransform="matrix(116.174 0 0 -1.391 27786.5332 369.8595)">
			<stop  offset="0" style="stop-color:#A9A9A9"/>
			<stop  offset="1" style="stop-color:#C7C7C7"/>
		</linearGradient>
		<path id="Path_14619" style="fill:url(#Path_14619_00000026154852470190687430000007852314162675860896_);" d="M116.3,29H0.1
			c0.2-0.8,1-1.4,1.8-1.4h112.5C115.3,27.6,116,28.2,116.3,29"/>
		
			<linearGradient id="Rectangle_17630_00000076594783101004639830000012799028313168128691_" gradientUnits="userSpaceOnUse" x1="-234.617" y1="247.9636" x2="-234.617" y2="246.9636" gradientTransform="matrix(25.241 0 0 -1.402 5980.1709 375.2599)">
			<stop  offset="0" style="stop-color:#FAFAFA"/>
			<stop  offset="1" style="stop-color:#C1C1C1"/>
		</linearGradient>
		
			<rect id="Rectangle_17630" x="45.6" y="27.6" style="fill:url(#Rectangle_17630_00000076594783101004639830000012799028313168128691_);" width="25.2" height="1.4"/>
	</g>
	<g id="design">
		
			<linearGradient id="Path_14615-2_00000152968640174370169320000006484649876181268148_" gradientUnits="userSpaceOnUse" x1="-102.5184" y1="651.4449" x2="-103.2354" y2="650.8219" gradientTransform="matrix(19.3855 0 0 -17.87 2293.8772 11948.6846)">
			<stop  offset="0" style="stop-color:#434343"/>
			<stop  offset="1" style="stop-color:#646464"/>
		</linearGradient>
		<path id="Path_14615-2" style="fill:url(#Path_14615-2_00000152968640174370169320000006484649876181268148_);" d="M294.6,301.9
			c-0.3,0-0.7,0-1,0.1c-0.8,0.2-1.2,0.9-1.1,1.7c0.2,0.7,0.8,1.1,1.5,1.1c0.2,0,5.1-0.7,7.2,6c2.7,8.9,9.1,9,9.4,9
			c0.8-0.1,1.4-0.7,1.3-1.5c0-0.7-0.6-1.3-1.3-1.3c0,0-4.6-0.1-6.7-7C301.9,303.5,297.4,301.9,294.6,301.9L294.6,301.9z"/>
		
			<linearGradient id="Union_11_00000156561017824326516860000010459916892934504620_" gradientUnits="userSpaceOnUse" x1="-108.3145" y1="643.1152" x2="-107.7695" y2="642.1152" gradientTransform="matrix(12.5432 -4.0755 -4.0758 -12.5441 4093.5532 7915.6353)">
			<stop  offset="0" style="stop-color:#9B9B9B"/>
			<stop  offset="1" style="stop-color:#D8D8D8"/>
		</linearGradient>
		<path id="Union_11" style="fill:url(#Union_11_00000156561017824326516860000010459916892934504620_);" d="M119,299.9l-1.2-3.6
			l-3.6,1.2c-0.7,0.2-1.5-0.2-1.7-0.9c0,0,0,0,0,0c-0.2-0.7,0.2-1.5,0.9-1.7c0,0,0,0,0,0l3.6-1.2l-1.2-3.6c-0.2-0.7,0.2-1.5,0.9-1.7
			c0.7-0.2,1.5,0.2,1.7,0.9l1.2,3.6l3.6-1.2c0.7-0.2,1.5,0.2,1.7,0.9c0,0,0,0,0,0c0.2,0.7-0.2,1.5-0.9,1.7l-3.6,1.2l1.2,3.6
			c0.2,0.7-0.2,1.5-0.9,1.7C120,301,119.2,300.6,119,299.9C119,299.9,119,299.9,119,299.9z"/>
		
			<linearGradient id="Path_14620_00000000937476517786359780000002275293116336744358_" gradientUnits="userSpaceOnUse" x1="-120.6226" y1="640.0369" x2="-121.3396" y2="639.4139" gradientTransform="matrix(8.8144 -8.2196 -7.5954 -8.1451 6174.9453 4527.1694)">
			<stop  offset="0" style="stop-color:#434343"/>
			<stop  offset="1" style="stop-color:#646464"/>
		</linearGradient>
		<path id="Path_14620" style="fill:url(#Path_14620_00000000937476517786359780000002275293116336744358_);" d="M246.9,307.5
			l6.1,1.3l-4.2,4.6L246.9,307.5z M244.5,305.3L244.5,305.3c-0.3,0.3-0.4,0.7-0.3,1.1l3,9.5c0.2,0.6,0.8,0.9,1.3,0.7
			c0.1,0,0.3-0.1,0.4-0.2c0,0,0,0,0.1-0.1l6.7-7.4c0.4-0.4,0.4-1.1-0.1-1.5c-0.1-0.1-0.3-0.2-0.5-0.3l-9.7-2.1
			C245.2,304.9,244.8,305,244.5,305.3L244.5,305.3z"/>
		
			<linearGradient id="Path_14621_00000094603317360577175590000012565264645649042305_" gradientUnits="userSpaceOnUse" x1="-100.6489" y1="648.8989" x2="-101.6879" y2="648.192" gradientTransform="matrix(15.67 0 0 -15.67 1877.2679 10436.4824)">
			<stop  offset="0" style="stop-color:#4A4A4A"/>
			<stop  offset="1" style="stop-color:#8A8A8A"/>
		</linearGradient>
		<path id="Path_14621" style="fill:url(#Path_14621_00000094603317360577175590000012565264645649042305_);" d="M287,273.5
			c0-3,2.4-5.4,5.4-5.4s5.4,2.4,5.4,5.4s-2.4,5.4-5.4,5.4c0,0,0,0,0,0C289.4,278.9,287,276.5,287,273.5 M292.4,265.6
			c-4.3,0-7.8,3.5-7.8,7.8s3.5,7.8,7.8,7.8c4.3,0,7.8-3.5,7.8-7.8C300.2,269.1,296.7,265.6,292.4,265.6z"/>
		
			<linearGradient id="Path_14622_00000134960965554030403200000000118021959922677432_" gradientUnits="userSpaceOnUse" x1="-86.2421" y1="668.2488" x2="-85.6971" y2="667.2488" gradientTransform="matrix(7.0358 13.8081 13.2167 -6.7344 -7957.395 5976.2759)">
			<stop  offset="0" style="stop-color:#9B9B9B"/>
			<stop  offset="1" style="stop-color:#D8D8D8"/>
		</linearGradient>
		<path id="Path_14622" style="fill:url(#Path_14622_00000134960965554030403200000000118021959922677432_);" d="M266.7,290.5
			l2.2,1.6l-2.6,0.8c-0.3,0.1-0.6,0.3-0.7,0.7l-0.8,2.6l-1.6-2.2c-0.2-0.3-0.5-0.4-0.8-0.4l-2.7,0l1.6-2.2c0.2-0.3,0.2-0.6,0.1-0.9
			l-0.9-2.6l2.6,0.9c0.3,0.1,0.7,0.1,0.9-0.1l2.2-1.6l0,2.7C266.3,290,266.5,290.3,266.7,290.5 M271.7,291.6l-3.4-2.4l0.1-4.2
			c0-0.6-0.4-1-1-1c-0.2,0-0.4,0.1-0.6,0.2l-3.4,2.5l-4-1.3c-0.5-0.2-1.1,0.1-1.3,0.6c-0.1,0.2-0.1,0.4,0,0.6l1.3,4l-2.5,3.4
			c-0.3,0.4-0.2,1.1,0.2,1.4c0.2,0.1,0.4,0.2,0.6,0.2l4.2-0.1l2.4,3.4c0.3,0.4,0.9,0.6,1.4,0.2c0.2-0.1,0.3-0.3,0.4-0.5l1.2-4l4-1.2
			c0.5-0.2,0.8-0.7,0.7-1.3C272,291.9,271.9,291.7,271.7,291.6"/>
		
			<linearGradient id="Path_14623_00000074444393629850267080000011379531229042491017_" gradientUnits="userSpaceOnUse" x1="-129.895" y1="647.6805" x2="-129.0612" y2="646.6808" gradientTransform="matrix(3.6361 -2.5484 -8.7896 -12.5412 6261.3174 8057.9263)">
			<stop  offset="0" style="stop-color:#4A4A4A"/>
			<stop  offset="1" style="stop-color:#8A8A8A"/>
		</linearGradient>
		<path id="Path_14623" style="fill:url(#Path_14623_00000074444393629850267080000011379531229042491017_);" d="M96,266.9
			c0.1,0.7,0.7,1.2,1.4,1.2c0,0,0,0,0,0c0.3,0,2.6,0,3.3,3.4c1.2,5.6,5.2,6,5.3,6c0.7,0.1,1.3-0.5,1.4-1.2c0-0.3-0.1-0.6-0.2-0.8
			l0,0c-0.2-0.3-0.6-0.5-0.9-0.5c0,0-2.3-0.3-3.1-4c-0.2-1.1-0.6-2.1-1.2-2.9l0,0c-1.1-1.6-2.9-2.5-4.8-2.4
			C96.5,265.6,96,266.2,96,266.9"/>
		
			<linearGradient id="Path_14624_00000027580955716764024320000016074314324120309135_" gradientUnits="userSpaceOnUse" x1="-93.0798" y1="636.9178" x2="-92.3858" y2="637.7109" gradientTransform="matrix(10.4513 1.4688 1.3567 -9.6531 199.7476 6601.6519)">
			<stop  offset="0" style="stop-color:#434343"/>
			<stop  offset="1" style="stop-color:#646464"/>
		</linearGradient>
		<path id="Path_14624" style="fill:url(#Path_14624_00000027580955716764024320000016074314324120309135_);" d="M95.6,309.3
			l2.5,4.9l-5.5-0.3L95.6,309.3z M95.9,306.5L95.9,306.5c-0.4,0-0.7,0.1-0.9,0.4l-4.8,7.3c-0.3,0.4-0.2,1,0.3,1.3
			c0.1,0.1,0.2,0.1,0.4,0.1c0,0,0.1,0,0.1,0l8.7,0.5c0.5,0,1-0.4,1-0.9c0-0.2,0-0.3-0.1-0.5l-3.9-7.8
			C96.4,306.8,96.2,306.6,95.9,306.5L95.9,306.5z"/>
	</g>
</g>
</svg>
